<svg xmlns="http://www.w3.org/2000/svg" width="406.235" height="371.213" viewBox="0 0 406.235 371.213">
  <g id="Group_3613" data-name="Group 3613" transform="translate(-629.004 -184.982)">
    <g id="Group_3576" data-name="Group 3576" transform="translate(632.379 191.839)">
      <path id="Path_3226" data-name="Path 3226" d="M842.274,483.155l14.052,8.112,5.026-2.9a5.29,5.29,0,0,1,4.793,0l2.2,1.268c1.324.764,1.324,2,0,2.766l-5.029,2.9,156.674,90.456,5.024-2.9a5.3,5.3,0,0,1,4.8,0l2.2,1.269c1.323.767,1.326,2,0,2.77l-5.024,2.9,14.049,8.114a13.249,13.249,0,0,0,11.985,0l80.1-46.423c3.3-1.91,3.3-5.007-.008-6.918L934.35,429.815a13.235,13.235,0,0,0-11.979,0l-80.1,46.423C838.961,478.146,838.964,481.243,842.274,483.155Z" transform="translate(-732.74 -309.615)" fill="#ededed"/>
      <path id="Path_3227" data-name="Path 3227" d="M889.236,199.914l-2.377,1.37a.035.035,0,0,1-.02.01l-.005.005h0c-1.078.629-1.741,1.966-1.741,3.865l0,142.127a13.24,13.24,0,0,0,5.991,10.376l198.765,114.755c1.636.944,3.117,1.04,4.2.436v.007l.035-.019,0,0,2.378-1.375,0,0c1.093-.621,1.769-1.962,1.771-3.879l0-142.13a13.264,13.264,0,0,0-6-10.374L893.487,200.33c-1.628-.939-3.1-1.037-4.173-.451l-.006-.007-.05.03A.04.04,0,0,0,889.236,199.914Z" transform="translate(-754.662 -198.87)" fill="#f8f8f8"/>
      <path id="Path_3228" data-name="Path 3228" d="M1253.767,460.439c-1.839-1.062-3.333-.2-3.335,1.919l0,62.624a7.351,7.351,0,0,0,3.331,5.771l18.863,10.89,0-70.311Z" transform="translate(-931.441 -324.906)" opacity="0.2" style="mix-blend-mode: overlay;isolation: isolate"/>
      <path id="Path_3229" data-name="Path 3229" d="M1093.918,315.084,895.155,200.33c-1.628-.939-3.1-1.037-4.173-.451l-.006-.007-.05.03a.04.04,0,0,0-.021.013l-2.364,1.365c1.082-.611,2.571-.517,4.215.431l198.767,114.758a13.241,13.241,0,0,1,5.994,10.376l0,142.128c0,1.9-.669,3.242-1.752,3.869l2.373-1.371,0,0c1.093-.621,1.769-1.962,1.771-3.879l0-142.13A13.264,13.264,0,0,0,1093.918,315.084Z" transform="translate(-756.33 -198.87)" opacity="0.3" style="mix-blend-mode: overlay;isolation: isolate"/>
      <path id="Path_3230" data-name="Path 3230" d="M1091.073,609.714,892.308,494.959c-1.9-1.1-3.593-1.052-4.691-.094a12.681,12.681,0,0,0,4.691,5.366l198.765,114.755c1.9,1.1,3.6,1.052,4.694.093A12.692,12.692,0,0,0,1091.073,609.714Z" transform="translate(-755.883 -341.434)" opacity="0.2" style="mix-blend-mode: overlay;isolation: isolate"/>
      <g id="Group_3569" data-name="Group 3569" transform="translate(129.79)">
        <path id="Path_3231" data-name="Path 3231" d="M1091.923,473.279a6.062,6.062,0,0,1-2.993-.9L890.165,357.621a13.966,13.966,0,0,1-6.313-10.932l0-142.127c0-2.064.724-3.629,2.04-4.408l.037-.022.01-.006,2.374-1.368.015-.009h0l.05-.03a.616.616,0,0,1,.136-.061,4.916,4.916,0,0,1,4.695.514l198.763,114.753a14,14,0,0,1,6.319,10.929l0,142.13c0,2.073-.732,3.638-2.055,4.413l-.039.025-2.339,1.351a.607.607,0,0,1-.076.045.685.685,0,0,1-.066.028A3.763,3.763,0,0,1,1091.923,473.279ZM886.578,201.237l-.022.013c-.918.536-1.423,1.712-1.423,3.311l0,142.127a12.544,12.544,0,0,0,5.671,9.821L1089.57,471.265a3.648,3.648,0,0,0,3.573.43.665.665,0,0,1,.067-.032l2.3-1.331a.466.466,0,0,1,.043-.026c.931-.53,1.445-1.71,1.447-3.323l0-142.129a12.573,12.573,0,0,0-5.678-9.818L892.565,200.282a3.658,3.658,0,0,0-3.546-.443.677.677,0,0,1-.08.036l-2.361,1.362Zm2.057-1.926h0Z" transform="translate(-883.85 -198.267)" fill="#c1c1c1"/>
      </g>
      <path id="Path_3232" data-name="Path 3232" d="M1093.221,464.241,894.459,349.481a5.317,5.317,0,0,1-2.4-4.15l0-132.444c0-1.526,1.077-2.145,2.4-1.383l198.765,114.755a5.312,5.312,0,0,1,2.4,4.153l0,132.446C1095.62,464.381,1094.544,465,1093.221,464.241Z" transform="translate(-758.032 -204.515)" fill="#fff"/>
      <path id="Path_3233" data-name="Path 3233" d="M1253.767,460.439c-1.839-1.062-3.333-.2-3.335,1.919l0,62.624a7.351,7.351,0,0,0,3.331,5.771l15.262,8.812V469.252Z" transform="translate(-931.441 -324.906)" fill="#dee1e9"/>
      <path id="Path_3234" data-name="Path 3234" d="M909.711,519.823l1.2.689,3.825-2.208v-4.152l-5.027,2.9C908.386,517.819,908.386,519.055,909.711,519.823Z" transform="translate(-766.093 -351.117)" fill="#80b6f1"/>
      <path id="Path_3235" data-name="Path 3235" d="M909.711,519.823l1.2.689,3.825-2.208v-4.152l-5.027,2.9C908.386,517.819,908.386,519.055,909.711,519.823Z" transform="translate(-766.093 -351.117)" opacity="0.2" style="mix-blend-mode: overlay;isolation: isolate"/>
      <g id="Group_3571" data-name="Group 3571" transform="translate(143.418 161.109)">
        <g id="Group_3570" data-name="Group 3570">
          <path id="Path_3236" data-name="Path 3236" d="M914.167,522.95l0,0a1.627,1.627,0,0,0,1.619-.164l8.988-5.191v-5.311l-3.223-1.862-8.995,5.193a5.071,5.071,0,0,0-2.3,3.981,1.645,1.645,0,0,0,.619,1.442l-.005.011Z" transform="translate(-910.256 -510.421)" fill="#7185a3"/>
          <path id="Path_3237" data-name="Path 3237" d="M914.167,522.95l0,0a1.627,1.627,0,0,0,1.619-.164l8.988-5.191v-5.311l-3.223-1.862-8.995,5.193a5.071,5.071,0,0,0-2.3,3.981,1.645,1.645,0,0,0,.619,1.442l-.005.011Z" transform="translate(-910.256 -510.421)" fill="#b7dafe"/>
          <path id="Path_3238" data-name="Path 3238" d="M927.795,514.028l-8.993,5.193a5.076,5.076,0,0,0-2.3,3.982c0,1.466,1.03,2.057,2.3,1.326l8.988-5.191Z" transform="translate(-913.279 -512.166)" opacity="0.5" style="mix-blend-mode: overlay;isolation: isolate"/>
        </g>
      </g>
      <path id="Path_3239" data-name="Path 3239" d="M1226.824,702.9l1.195.7,3.826-2.21v-4.152l-5.031,2.9C1225.493,700.9,1225.5,702.141,1226.824,702.9Z" transform="translate(-919.535 -439.707)" fill="#a8a4a4"/>
      <g id="Group_3572" data-name="Group 3572" transform="translate(307.083 255.583)">
        <path id="Path_3241" data-name="Path 3241" d="M1231.272,706h0a1.631,1.631,0,0,0,1.617-.163l8.988-5.195,0-5.305-3.227-1.867-8.995,5.193a5.093,5.093,0,0,0-2.3,3.981,1.647,1.647,0,0,0,.619,1.444l-.007.011Z" transform="translate(-1227.361 -693.467)" fill="#7185a3"/>
        <path id="Path_3242" data-name="Path 3242" d="M1231.272,706h0a1.631,1.631,0,0,0,1.617-.163l8.988-5.195,0-5.305-3.227-1.867-8.995,5.193a5.093,5.093,0,0,0-2.3,3.981,1.647,1.647,0,0,0,.619,1.444l-.007.011Z" transform="translate(-1227.361 -693.467)" fill="#fff"/>
        <path id="Path_3243" data-name="Path 3243" d="M1244.9,697.084l-9,5.191a5.1,5.1,0,0,0-2.3,3.981c0,1.466,1.032,2.057,2.3,1.328l8.988-5.195Z" transform="translate(-1230.384 -695.217)" fill="#ededed"/>
      </g>
      <path id="Path_3244" data-name="Path 3244" d="M968.784,614.893c0-.02,0-.04-.005-.06a3.274,3.274,0,0,0-.1-.418c-.005-.015-.008-.031-.013-.046a3.405,3.405,0,0,0-.175-.414c-.007-.014-.01-.029-.018-.045a4.02,4.02,0,0,0-.228-.372c-.014-.025-.028-.05-.045-.076a4.354,4.354,0,0,0-.291-.36.919.919,0,0,0-.06-.074,6.311,6.311,0,0,0-1.511-1.184l-14.052-8.115-5.021,2.9a5.29,5.29,0,0,1-4.8,0l-1-.574,0,0-1.195-.7c-1.328-.762-1.331-2-.01-2.765l1.434-.827h0l3.6-2.075L788.615,509.239l-5.027,2.9a5.293,5.293,0,0,1-4.795,0l-1-.576-1.2-.689c-1.324-.767-1.324-2,0-2.769l1.428-.824h0l3.6-2.077-14.054-8.115a13.244,13.244,0,0,0-11.981,0L636.1,566.07c-.2.117-.4.24-.577.368a3.9,3.9,0,0,0-1.9,3.057h0v.018c0,.006,0,.011,0,.017v4.075l.013,0c-.033,1.276.781,2.559,2.471,3.533L834.867,691.9a13.25,13.25,0,0,0,11.985,0l119.489-68.987c1.639-.945,2.456-2.183,2.471-3.423h.008v-.034s0,0,0,0v-4.159A2.7,2.7,0,0,0,968.784,614.893Z" transform="translate(-632.98 -342.166)" fill="#f8f8f8"/>
      <path id="Path_3245" data-name="Path 3245" d="M968.792,684.24c.158,1.358-.653,2.746-2.451,3.783L846.852,757.01a13.242,13.242,0,0,1-11.985,0L636.106,642.25c-1.655-.956-2.482-2.207-2.484-3.459h0v4.075l.013,0c-.033,1.276.781,2.559,2.471,3.533l198.76,114.759a13.25,13.25,0,0,0,11.985,0l119.489-68.987c1.639-.945,2.456-2.183,2.471-3.423h.008v-.034s0,0,0,0v-4.159A2.639,2.639,0,0,0,968.792,684.24Z" transform="translate(-632.98 -411.427)" opacity="0.3" style="mix-blend-mode: overlay;isolation: isolate"/>
      <g id="Group_3573" data-name="Group 3573" transform="translate(0 152.857)">
        <path id="Path_3246" data-name="Path 3246" d="M840.263,693.372a12.931,12.931,0,0,1-6.318-1.508L635.185,577.105c-1.787-1.029-2.774-2.432-2.793-3.964a.637.637,0,0,1-.013-.126V568.94c0-.018,0-.039,0-.06a4.55,4.55,0,0,1,2.17-3.556c.2-.14.408-.276.628-.4l119.488-68.986a13.973,13.973,0,0,1,12.622,0l14.054,8.115a.641.641,0,0,1,0,1.111l-5.027,2.9c-.426.247-.671.549-.671.828s.245.583.673.831l2.2,1.264a4.658,4.658,0,0,0,4.153,0l5.026-2.9a.641.641,0,0,1,.641,0L945.01,598.548a.641.641,0,0,1,0,1.111l-5.031,2.9c-.424.245-.668.545-.667.824s.247.583.676.829l1.146.667c.018.008.035.017.052.026l1,.575a4.66,4.66,0,0,0,4.156,0l5.02-2.9a.642.642,0,0,1,.642,0l14.052,8.115a6.948,6.948,0,0,1,1.664,1.307,1.248,1.248,0,0,1,.083.1,4.844,4.844,0,0,1,.32.4c.031.047.048.077.066.106a4.668,4.668,0,0,1,.25.412c.011.022.026.056.037.085a3.893,3.893,0,0,1,.194.465c.005.015.016.054.02.069a3.758,3.758,0,0,1,.122.488c0,.023.009.073.011.1a3.321,3.321,0,0,1,.039.476v4.163a.76.76,0,0,1-.009.109,4.856,4.856,0,0,1-2.791,3.9l-119.49,68.986A12.9,12.9,0,0,1,840.263,693.372Zm-206.6-120.484a.6.6,0,0,1,.014.146c-.028,1.094.735,2.146,2.15,2.96l198.76,114.76a12.566,12.566,0,0,0,11.344,0l119.489-68.987a3.619,3.619,0,0,0,2.15-2.875.665.665,0,0,1,.008-.091v-4.088a2,2,0,0,0-.028-.316l0-.015c0-.013,0-.056-.006-.069a2.911,2.911,0,0,0-.078-.292c0-.012-.014-.048-.017-.06a2.848,2.848,0,0,0-.136-.312c-.008-.016-.018-.04-.027-.063-.052-.095-.114-.187-.177-.281-.009-.013-.029-.049-.037-.062a3.418,3.418,0,0,0-.249-.31c-.009-.01-.032-.04-.041-.052a5.66,5.66,0,0,0-1.368-1.073L951.68,603.88l-4.7,2.717a5.913,5.913,0,0,1-5.44,0l-.943-.543a.542.542,0,0,1-.057-.029l-1.195-.7a2.086,2.086,0,0,1-.008-3.876l4.068-2.346L788.014,509.388l-4.706,2.716a5.922,5.922,0,0,1-5.437,0l-2.195-1.263a2.09,2.09,0,0,1,0-3.881l4.065-2.346-13.091-7.559a12.555,12.555,0,0,0-11.339,0l-119.49,68.987c-.187.108-.362.219-.525.336a3.317,3.317,0,0,0-1.629,2.541c0,.015,0,.029,0,.043v3.933Z" transform="translate(-632.379 -494.432)" fill="#c1c1c1"/>
      </g>
      <path id="Path_3247" data-name="Path 3247" d="M944.109,664.3a7.953,7.953,0,0,1-7.192,0L751,556.958c-1.986-1.145-1.988-3.006,0-4.151l59.876-34.57a7.942,7.942,0,0,1,7.191,0L1003.98,625.578c1.984,1.146,1.992,3.005.007,4.15Z" transform="translate(-689.056 -352.678)" opacity="0.3" style="mix-blend-mode: overlay;isolation: isolate"/>
      <g id="Group_3574" data-name="Group 3574" transform="translate(66.942 168.344)">
        <path id="Path_3248" data-name="Path 3248" d="M776.662,564.662a5.3,5.3,0,0,1-4.793,0l-8.8-5.077c-1.323-.764-1.324-2.006,0-2.766l6.385-3.69a5.286,5.286,0,0,1,4.792.005l8.794,5.075c1.322.764,1.325,2,0,2.767Zm33.546-3.68c1.325-.761,1.322-2,0-2.767l-22.38-12.92a5.29,5.29,0,0,0-4.8,0l-6.386,3.686c-1.323.764-1.323,2,0,2.767l22.381,12.923a5.3,5.3,0,0,0,4.8,0Zm-13.571,7.838c1.322-.766,1.32-2.006,0-2.768l-6.4-3.692a5.288,5.288,0,0,0-4.792,0l-6.389,3.688c-1.322.764-1.321,2,0,2.765l6.4,3.693a5.293,5.293,0,0,0,4.792,0Zm13.588,7.844c1.322-.764,1.321-2,0-2.766l-6.395-3.691a5.3,5.3,0,0,0-4.792,0l-6.388,3.686c-1.323.765-1.319,2,0,2.767l6.394,3.692a5.3,5.3,0,0,0,4.8,0Zm13.591,7.847c1.321-.763,1.321-2,0-2.765l-6.4-3.694a5.3,5.3,0,0,0-4.793,0l-6.386,3.684c-1.323.764-1.321,2,0,2.766l6.4,3.693a5.3,5.3,0,0,0,4.792,0Zm90.792,52.418c1.32-.762,1.32-2,0-2.765l-15.654-9.037a5.283,5.283,0,0,0-4.791,0l-6.39,3.687c-1.323.764-1.32,2,0,2.768l15.656,9.037a5.282,5.282,0,0,0,4.791,0Zm27.161.01c1.323-.763,1.321-2,0-2.766l-15.653-9.038a5.3,5.3,0,0,0-4.793,0l-6.387,3.689c-1.323.764-1.32,2,0,2.766l15.653,9.038a5.306,5.306,0,0,0,4.793,0Zm-50.008-13.2c1.322-.767,1.32-2-.007-2.769l-6.391-3.691a5.294,5.294,0,0,0-4.794,0l-6.387,3.688c-1.323.761-1.323,2,0,2.766l6.392,3.691a5.32,5.32,0,0,0,4.8,0Zm-13.592-7.85c1.327-.759,1.32-2,0-2.762L831,585.9a5.309,5.309,0,0,0-4.793-.006l-6.386,3.692c-1.323.761-1.322,2,0,2.765l47.161,27.228a5.3,5.3,0,0,0,4.8,0ZM841.006,538.2c1.325-.763,1.321-2,0-2.764l-18.052-10.424a5.288,5.288,0,0,0-4.793,0l-.8.458c-1.324.764-1.32,2,.005,2.767l18.051,10.424a5.291,5.291,0,0,0,4.791,0Zm13.591,7.848c1.324-.763,1.321-2,0-2.768l-6.4-3.694a5.3,5.3,0,0,0-4.791,0l-.8.458c-1.322.766-1.318,2.007,0,2.768l6.394,3.693a5.3,5.3,0,0,0,4.8,0Zm13.588,7.845c1.323-.764,1.323-2,0-2.768l-6.4-3.688a5.28,5.28,0,0,0-4.792,0l-.8.459c-1.321.764-1.319,2,0,2.766l6.394,3.694a5.3,5.3,0,0,0,4.793,0Zm13.589,7.847c1.326-.764,1.323-2,0-2.769l-6.391-3.69a5.3,5.3,0,0,0-4.8,0l-.8.461c-1.326.763-1.323,2,0,2.765l6.395,3.694a5.294,5.294,0,0,0,4.791,0Zm13.59,7.848c1.323-.766,1.323-2.007,0-2.772l-6.4-3.693a5.294,5.294,0,0,0-4.792,0l-.8.461c-1.322.764-1.321,2,0,2.766l6.4,3.692a5.294,5.294,0,0,0,4.794,0Zm13.589,7.843c1.323-.764,1.323-2,0-2.768l-6.395-3.692a5.3,5.3,0,0,0-4.793,0l-.8.462c-1.323.765-1.321,2,0,2.767l6.394,3.691a5.311,5.311,0,0,0,4.8,0Zm13.591,7.848c1.321-.765,1.321-2,0-2.77l-6.392-3.692a5.311,5.311,0,0,0-4.8,0l-.8.462c-1.321.761-1.321,2,0,2.767l6.4,3.693a5.312,5.312,0,0,0,4.793,0Zm13.589,7.846c1.323-.766,1.32-2,0-2.769l-6.4-3.691a5.294,5.294,0,0,0-4.793,0l-.8.46c-1.32.765-1.322,2,.008,2.767l6.392,3.692a5.3,5.3,0,0,0,4.791,0Zm13.588,7.845c1.32-.765,1.318-2.006,0-2.769l-6.4-3.691a5.284,5.284,0,0,0-4.793,0l-.8.458c-1.325.763-1.323,2,.005,2.767l6.392,3.693a5.3,5.3,0,0,0,4.793,0Zm13.589,7.845c1.323-.762,1.32-2,0-2.765l-6.392-3.7a5.3,5.3,0,0,0-4.794,0l-.8.461c-1.323.762-1.323,2,.008,2.766l6.39,3.694a5.315,5.315,0,0,0,4.794,0Zm13.591,7.849c1.323-.765,1.323-2,0-2.768l-6.4-3.695a5.309,5.309,0,0,0-4.793,0l-.8.462c-1.325.763-1.323,2,0,2.765l6.395,3.693a5.309,5.309,0,0,0,4.791,0Zm13.589,7.844c1.322-.764,1.322-2.005,0-2.767l-6.395-3.694a5.306,5.306,0,0,0-4.8,0l-.792.462c-1.323.763-1.32,2,0,2.765l6.395,3.692a5.305,5.305,0,0,0,4.793,0Zm13.591,7.844c1.321-.763,1.318-2-.005-2.77l-6.392-3.689a5.291,5.291,0,0,0-4.793,0l-.8.46c-1.325.765-1.323,2,0,2.768l6.395,3.691a5.312,5.312,0,0,0,4.793,0ZM823.8,568.828c1.325-.764,1.322-2,0-2.766l-6.395-3.692a5.3,5.3,0,0,0-4.8,0l-6.387,3.689c-1.322.762-1.321,2,0,2.767l6.395,3.693a5.3,5.3,0,0,0,4.793,0Zm13.589,7.847c1.323-.763,1.321-2,0-2.767l-6.4-3.691a5.3,5.3,0,0,0-4.8,0L819.81,573.9c-1.323.764-1.323,2,0,2.772l6.4,3.69a5.3,5.3,0,0,0,4.792,0Zm13.591,7.847c1.321-.767,1.319-2.007,0-2.769l-6.4-3.693a5.3,5.3,0,0,0-4.793,0l-6.384,3.687c-1.326.761-1.326,2,0,2.768l6.393,3.688a5.3,5.3,0,0,0,4.794,0Zm13.587,7.843c1.323-.762,1.319-2,0-2.766l-6.394-3.691a5.284,5.284,0,0,0-4.794,0l-6.386,3.685c-1.322.766-1.322,2.006,0,2.771l6.394,3.69a5.3,5.3,0,0,0,4.793,0Zm13.587,7.848c1.325-.764,1.32-2,0-2.766l-6.4-3.7a5.3,5.3,0,0,0-4.79,0l-6.387,3.689c-1.327.761-1.324,2,0,2.765l6.4,3.7a5.3,5.3,0,0,0,4.8,0Zm13.591,7.847c1.324-.763,1.32-2.006,0-2.767l-6.4-3.7a5.309,5.309,0,0,0-4.793,0l-6.387,3.688c-1.323.764-1.321,2,0,2.767l6.393,3.69a5.314,5.314,0,0,0,4.8.007Zm13.592,7.844c1.325-.765,1.317-2,0-2.766l-6.394-3.692a5.282,5.282,0,0,0-4.8,0l-6.384,3.687c-1.323.762-1.323,2,0,2.764l6.4,3.693a5.291,5.291,0,0,0,4.794,0Zm13.588,7.846c1.325-.762,1.32-2,0-2.769l-6.4-3.691a5.286,5.286,0,0,0-4.791,0l-6.387,3.685c-1.325.767-1.32,2,0,2.771l6.4,3.689a5.306,5.306,0,0,0,4.793,0Zm-60.37-50.527c1.323-.761,1.321-2,0-2.766l-6.393-3.691a5.307,5.307,0,0,0-4.793,0l-6.386,3.686c-1.321.765-1.324,2,0,2.771l6.4,3.692a5.3,5.3,0,0,0,4.793,0Zm13.591,7.847c1.323-.763,1.321-2-.007-2.765l-6.392-3.693a5.3,5.3,0,0,0-4.792,0l-6.387,3.683c-1.323.766-1.325,2,0,2.771l6.393,3.692a5.306,5.306,0,0,0,4.793,0Zm13.588,7.844c1.323-.761,1.32-2,0-2.763l-6.4-3.693a5.3,5.3,0,0,0-4.793,0l-6.387,3.686c-1.32.766-1.32,2.006,0,2.771l6.395,3.692a5.308,5.308,0,0,0,4.793,0Zm13.589,7.849c1.326-.762,1.321-2,0-2.767l-6.4-3.693a5.291,5.291,0,0,0-4.791,0l-6.387,3.684c-1.322.768-1.322,2,0,2.77l6.4,3.694a5.307,5.307,0,0,0,4.79,0Zm13.591,7.845c1.323-.764,1.318-2,0-2.768l-6.394-3.689a5.3,5.3,0,0,0-4.8,0l-6.387,3.686c-1.32.766-1.32,2,0,2.768l6.4,3.692a5.292,5.292,0,0,0,4.794,0Zm13.591,7.846c1.321-.762,1.316-2,0-2.767l-6.4-3.691a5.284,5.284,0,0,0-4.788,0l-6.387,3.686c-1.324.765-1.324,2,0,2.769l6.4,3.693a5.3,5.3,0,0,0,4.789,0Zm13.586,7.845c1.323-.764,1.32-2,0-2.766l-6.4-3.691a5.309,5.309,0,0,0-4.793-.006l-6.39,3.69c-1.32.762-1.32,2,.008,2.768l6.392,3.693a5.311,5.311,0,0,0,4.8,0Zm13.592,7.845c1.322-.761,1.317-2-.005-2.767l-6.4-3.69a5.3,5.3,0,0,0-4.793,0L936.1,625.37c-1.324.762-1.324,2,0,2.769l6.394,3.689a5.311,5.311,0,0,0,4.8.005Zm28.842,16.653c1.323-.762,1.318-2,0-2.765l-21.652-12.5a5.307,5.307,0,0,0-4.791,0l-6.39,3.69c-1.321.761-1.323,2,0,2.766l21.649,12.5a5.327,5.327,0,0,0,4.8,0Zm-13.576,7.837c1.325-.764,1.323-2,0-2.768l-6.4-3.693a5.3,5.3,0,0,0-4.791,0l-6.387,3.685c-1.321.766-1.325,2,0,2.768l6.394,3.69a5.3,5.3,0,0,0,4.8,0Zm-13.568,7.836c1.323-.764,1.318-2-.005-2.768l-6.395-3.689a5.292,5.292,0,0,0-4.791,0l-6.392,3.686c-1.318.764-1.318,2,.005,2.768l6.4,3.693a5.3,5.3,0,0,0,4.792,0Zm-13.591-7.846c1.323-.763,1.318-2-.005-2.771l-6.395-3.69a5.3,5.3,0,0,0-4.79,0l-6.388,3.689c-1.323.762-1.323,2,0,2.767l6.4,3.694a5.293,5.293,0,0,0,4.793,0Zm13.573-7.835c1.323-.764,1.318-2.006,0-2.768l-6.394-3.693a5.312,5.312,0,0,0-4.8,0l-6.382,3.686c-1.323.764-1.326,2,0,2.767l6.394,3.693a5.293,5.293,0,0,0,4.793,0Zm-27.162-.012c1.321-.762,1.318-2,0-2.765l-6.4-3.692a5.285,5.285,0,0,0-4.791,0L910.619,642c-1.321.764-1.321,2,0,2.768l6.394,3.692a5.3,5.3,0,0,0,4.8,0ZM817.785,549.685c1.325-.762,1.32-2,0-2.767l-16.387-9.459a5.279,5.279,0,0,0-4.788,0l-6.389,3.686c-1.324.763-1.326,2,0,2.767l16.387,9.463a5.306,5.306,0,0,0,4.793,0Zm13.591,7.846c1.323-.762,1.32-2-.005-2.767l-6.395-3.692a5.3,5.3,0,0,0-4.791,0l-6.387,3.689c-1.323.764-1.323,2,0,2.767l6.4,3.692a5.3,5.3,0,0,0,4.793,0Zm13.588,7.847c1.325-.762,1.321-2,0-2.767l-6.4-3.692a5.3,5.3,0,0,0-4.793,0l-6.387,3.687c-1.323.763-1.323,2,0,2.767l6.4,3.691a5.29,5.29,0,0,0,4.794,0Zm48.343,12.242c1.324-.767,1.32-2.007,0-2.769l-6.394-3.691a5.288,5.288,0,0,0-4.79-.005l-6.39,3.689c-1.32.766-1.316,2,.008,2.767l6.394,3.694a5.284,5.284,0,0,0,4.791,0Zm13.59,7.846c1.325-.767,1.323-2.007,0-2.767L900.5,579a5.309,5.309,0,0,0-4.791,0l-6.387,3.689c-1.324.764-1.32,2,.005,2.768l6.392,3.692a5.306,5.306,0,0,0,4.8,0Zm13.591,7.843c1.323-.759,1.321-2,0-2.766l-6.4-3.693a5.29,5.29,0,0,0-4.792,0l-6.387,3.688c-1.323.764-1.323,2,0,2.765l6.4,3.7a5.311,5.311,0,0,0,4.791,0Zm13.589,7.848c1.325-.764,1.321-2-.005-2.769l-6.394-3.69a5.291,5.291,0,0,0-4.788,0l-6.387,3.688c-1.325.764-1.323,2,0,2.767l6.395,3.693a5.3,5.3,0,0,0,4.793,0ZM947.665,609c1.326-.764,1.321-2-.005-2.769l-6.394-3.693a5.312,5.312,0,0,0-4.789,0l-6.389,3.688c-1.323.765-1.321,2,0,2.768l6.39,3.692a5.307,5.307,0,0,0,4.8,0Zm13.589,7.845c1.323-.761,1.323-2,0-2.766l-6.392-3.692a5.3,5.3,0,0,0-4.8,0l-6.39,3.691c-1.316.759-1.316,2,.008,2.765l6.392,3.689a5.3,5.3,0,0,0,4.793.007Zm13.59,7.846c1.324-.761,1.321-2,0-2.766l-6.392-3.69a5.3,5.3,0,0,0-4.794-.005l-6.387,3.687c-1.323.767-1.318,2,0,2.765l6.4,3.694a5.3,5.3,0,0,0,4.791,0ZM996.1,636.962c1.318-.764,1.318-2.007-.007-2.769l-14.052-8.113a5.3,5.3,0,0,0-4.793-.005l-6.389,3.691c-1.321.761-1.319,2,0,2.763l14.057,8.116a5.292,5.292,0,0,0,4.791,0ZM866.133,561.925c1.321-.761,1.318-2-.005-2.769l-6.393-3.691a5.308,5.308,0,0,0-4.8,0l-6.383,3.687c-1.322.765-1.322,2,0,2.767l6.393,3.69a5.281,5.281,0,0,0,4.794,0Zm13.586,7.847c1.325-.763,1.32-2,0-2.77l-6.4-3.688a5.291,5.291,0,0,0-4.791,0L862.14,567c-1.319.759-1.318,2,.005,2.764l6.4,3.694a5.3,5.3,0,0,0,4.792,0Zm-54.354-31.381c1.321-.766,1.321-2.006-.005-2.769l-10.391-6a5.3,5.3,0,0,0-4.793,0l-6.387,3.689c-1.323.764-1.319,2,0,2.767l10.392,6a5.288,5.288,0,0,0,4.791,0Zm13.59,7.846c1.32-.767,1.32-2,0-2.767l-6.4-3.692a5.292,5.292,0,0,0-4.793,0l-6.387,3.686c-1.323.764-1.323,2,0,2.768l6.4,3.691a5.292,5.292,0,0,0,4.792,0Zm13.588,7.844c1.322-.761,1.319-2,0-2.767l-6.4-3.691a5.292,5.292,0,0,0-4.791,0l-6.387,3.686c-1.321.766-1.321,2,.005,2.768l6.394,3.692a5.29,5.29,0,0,0,4.791,0Z" transform="translate(-762.081 -524.438)" fill="#ededed"/>
      </g>
      <path id="Path_3249" data-name="Path 3249" d="M853.191,725.617a7.935,7.935,0,0,1-7.187,0l-54.825-31.654c-1.987-1.145-1.989-3,0-4.149L826,669.7a7.947,7.947,0,0,1,7.191,0l54.822,31.649c1.99,1.15,1.99,3.007.008,4.153Z" transform="translate(-708.497 -425.97)" opacity="0.2" style="mix-blend-mode: overlay;isolation: isolate"/>
      <path id="Path_3250" data-name="Path 3250" d="M791.188,691.2l34.826-20.111a7.958,7.958,0,0,1,7.191,0l54.822,31.652a2.99,2.99,0,0,1,1.332,1.386c.4-.964-.026-2.017-1.332-2.772l-54.822-31.649a7.947,7.947,0,0,0-7.191,0l-34.825,20.11c-1.3.752-1.733,1.8-1.329,2.766A2.979,2.979,0,0,1,791.188,691.2Z" transform="translate(-708.51 -425.97)" opacity="0.2" style="mix-blend-mode: overlay;isolation: isolate"/>
      <g id="Group_3575" data-name="Group 3575" transform="translate(224.808 281.952)">
        <path id="Path_3251" data-name="Path 3251" d="M1162.113,749.4a1.847,1.847,0,0,1-.824,1.426l-11.4,6.58c-.454.262-.827.051-.827-.47h0a1.826,1.826,0,0,1,.827-1.432l11.388-6.573c.456-.263.834-.053.834.469Zm3.546-3a1.816,1.816,0,0,0-.824,1.429c-.006.527.368.741.819.475a1.809,1.809,0,0,0,.822-1.426C1166.478,746.352,1166.107,746.147,1165.659,746.4Zm3-1.734a1.819,1.819,0,0,0-.822,1.426c0,.526.363.741.827.474a1.813,1.813,0,0,0,.819-1.421C1169.483,744.623,1169.119,744.407,1168.663,744.669ZM1081,796.229a1.848,1.848,0,0,1-.824,1.426l-11.4,6.578c-.453.263-.824.049-.832-.47h0a1.84,1.84,0,0,1,.832-1.428l11.391-6.576c.454-.262.829-.056.829.47Z" transform="translate(-1067.951 -744.557)" fill="#ededed"/>
      </g>
    </g>
    <g id="Group_3581" data-name="Group 3581" transform="translate(664.419 184.982)">
      <g id="Group_3577" data-name="Group 3577" transform="translate(14.892 26.668)">
        <path id="Path_3252" data-name="Path 3252" d="M842.2,240.8v-4.15l130.426,75.3V316.1ZM969.954,452.54c-4.412,18.147-15.6,26.608-42.629,42.21l-74.337,42.512-128.931-74.44-.745-1.286,47.361-27.345c22.838-13.186,43.194-37.363,56.3-64.206Z" transform="translate(-723.311 -236.652)" opacity="0.3" style="mix-blend-mode: overlay;isolation: isolate"/>
        <path id="Path_3253" data-name="Path 3253" d="M1069.809,319.991l-130.426-75.3,0,69.6c0,19.149-5.706,40.071-15.232,59.588l142.983,82.554c2.1-8.619,2.666-19.411,2.666-34.211Z" transform="translate(-820.495 -240.542)" fill="#dee1e9"/>
      </g>
      <g id="Group_3580" data-name="Group 3580">
        <g id="Group_3578" data-name="Group 3578">
          <path id="Path_3254" data-name="Path 3254" d="M872.736,481.265c39.858-23.012,72.279-79.124,72.269-125.083l.008-95.517-128.934-74.44h-1.488v95.517c0,45.484-32.088,101.021-71.531,123.8L695.7,432.88l.743,1.286,128.933,74.442Z" transform="translate(-695.059 -185.583)" fill="#fff"/>
          <path id="Path_3255" data-name="Path 3255" d="M824.775,508.648a.64.64,0,0,1-.321-.086L695.522,434.12a.636.636,0,0,1-.235-.234l-.743-1.286a.642.642,0,0,1,.235-.876l47.36-27.342c39.262-22.672,71.207-77.958,71.209-123.241V185.624a.641.641,0,0,1,.642-.642h1.488a.642.642,0,0,1,.32.086l128.933,74.439a.642.642,0,0,1,.321.556l-.008,95.517c.01,46.162-32.554,102.523-72.59,125.638l-.32-.555.32.555L825.1,508.561A.64.64,0,0,1,824.775,508.648ZM696.312,433.095l128.463,74.17,47.039-27.157c39.682-22.911,71.958-78.773,71.948-124.527l.008-95.147L815.305,186.266h-.674v94.876c0,45.691-32.235,101.475-71.852,124.352l-46.8,27.021Z" transform="translate(-694.458 -184.982)" fill="#c1c1c1"/>
        </g>
        <path id="Path_3256" data-name="Path 3256" d="M994.415,296.693l0-39.4a3.566,3.566,0,0,0-1.611-2.675c-10.775-6.218-20.817-15.021-26.217-22.977-.547-.8-1.31-1.243-1.86-1.07-5.4,1.718-15.43-1.073-26.294-7.344a1.011,1.011,0,0,0-1.074-.145,1.1,1.1,0,0,0-.459,1v39.4c0,18.276,26.987,48,28.14,49.264a2.763,2.763,0,0,0,.621.509,1.387,1.387,0,0,0,.616.2c.747.045,12.4.664,20.477-3.921l-.01.005C991.1,307.073,994.415,303.1,994.415,296.693Z" transform="translate(-811.769 -203.369)" fill="#f5f5f5"/>
        <g id="Group_3579" data-name="Group 3579" transform="translate(23.191 39.513)">
          <path id="Path_3257" data-name="Path 3257" d="M843.669,337.818c.09-.521.183-1.045.263-1.566l50.523,29.131c-.053.541-.1,1.081-.168,1.624Zm61.735,2.849v1.721l36.689,21.139,0-1.719Zm-16.868,6-43.205-24.909c-.023.56-.041,1.118-.069,1.684l43.276,24.944Zm-6.445-11.584-36.685-21.142v1.718L882.091,336.8ZM905.4,348.529v1.721l30.242,17.418v-1.719Zm-10.422-13.872-49.577-28.583V307.8l49.577,28.581ZM868.24,433.64c.28-.412.558-.823.834-1.239l-51.732-29.844c-.276.416-.56.823-.837,1.24ZM859.8,419.3c.26-.427.508-.856.764-1.282L821.684,395.6c-.255.426-.5.855-.763,1.278Zm-14.414,54.692,31.145,17.966q.663-.475,1.319-.959l-31.219-18.011C846.215,473.33,845.8,473.658,845.384,473.993ZM855.418,396.1,829.47,381.149c-.218.449-.438.894-.657,1.343l25.949,14.953C854.98,396.995,855.205,396.551,855.418,396.1Zm-3.075,71.9q-.578.531-1.16,1.049l44.385,25.611c.4-.333.8-.679,1.2-1.022ZM801.7,423.019l32.068,18.5c.346-.368.681-.749,1.027-1.126l-32.1-18.512C802.368,422.26,802.036,422.639,801.7,423.019Zm11-13.746c-.291.4-.576.817-.87,1.218l45.208,26.078c.3-.4.608-.793.906-1.195Zm86.331,49.8-25.688-14.806c-.292.4-.579.809-.877,1.209l25.661,14.794C898.426,459.867,898.735,459.471,899.03,459.07ZM878,437.548c-.274.416-.556.827-.835,1.24l38.624,22.274c.275-.411.553-.823.829-1.239Zm4.354-6.952c-.254.426-.505.853-.763,1.276l51.54,29.733c.259-.423.509-.853.762-1.278Zm-74.536-14.869c-.313.394-.629.782-.946,1.175l51.569,29.751q.479-.577.962-1.165Zm54.444,42.235,51.252,29.572c.351-.371.694-.746,1.037-1.12l-51.265-29.579C862.948,457.218,862.6,457.584,862.259,457.962Zm-4.357,4.645c-.358.367-.707.743-1.068,1.1l38.177,22.026c.371-.354.737-.723,1.108-1.083Zm-13.05-133.647c-.055.54-.11,1.081-.17,1.622l24.426,14.067c.026-.571.022-1.131.037-1.7ZM814.5,493.393l-1.486.861,49.58,28.62,1.491-.859Zm69.42-88.49c.2-.461.391-.92.582-1.383l-51.648-29.788c-.2.457-.386.92-.583,1.378Zm-86.652,86.406-49.583-28.622-1.488.86,49.583,28.622Zm24.045-1.847-1.491.861L856.516,511.5l1.489-.859Zm6.808-3.932-1.488.858,43.141,24.9,1.49-.858ZM905.4,332.8l0,1.719,23.792,13.7V346.5ZM837.933,514.779l-30.241-17.455-1.488.861,30.241,17.456Zm12.529,15.1-49.578-28.623-1.493.861,49.582,28.622Zm-72.9-42.083-36.688-21.177-1.487.858,36.688,21.18Zm90.861-37.1c-.314.392-.63.785-.946,1.173l44.927,25.917c.324-.389.654-.765.978-1.157Zm-35.06,31.742,49.639,28.649,1.491-.861L834.819,481.56C834.338,481.864,833.848,482.145,833.367,482.44Zm72.04-196.819v1.716l43.133,24.857v-1.72Zm0,7.864v1.721L942.1,316.335l0-1.72Zm0,7.863v1.718l49.578,28.578.005-1.719Zm-25.14,65.77c.092-.52.191-1.039.276-1.555l-38-21.907c-.11.509-.215,1.017-.331,1.529Zm25.137-42.18v1.72l49.578,28.581,0-1.718Zm.005-15.726,0,1.718,43.133,24.858v-1.721ZM883,386.068c.15-.49.29-.981.433-1.469L838.505,358.69c-.155.483-.3.967-.464,1.451Zm22.406-106.592,49.58,28.573,0-1.719-49.578-28.573Zm-30.9,109.03-38.632-22.273c-.176.469-.361.936-.544,1.4l38.673,22.3C874.179,389.46,874.339,388.981,874.509,388.507Zm14.684-105.033,0,.859a3.2,3.2,0,0,0-1.73-.561,1.84,1.84,0,0,0-1.262.917,16.467,16.467,0,0,0-1.268,3.14l-7.6,20.95-.806-.461-6.211-23.686-6.171,16.54-.721-.421-8.1-30.781q-.907-3.441-1.149-4.116a6.318,6.318,0,0,0-1.094-1.942A6.879,6.879,0,0,0,851.2,262.4v-.859l10.093,5.827,0,.858-.482-.278a1.988,1.988,0,0,0-1.625-.386.981.981,0,0,0-.564,1.022,25.607,25.607,0,0,0,.883,4.24l5.366,20.742,4.523-12.385-.8-3.11-.642-2.48A22.294,22.294,0,0,0,867,273a6.228,6.228,0,0,0-.642-1.112,8.027,8.027,0,0,0-1.007-1.183,6.789,6.789,0,0,0-1.208-.836l0-.858,10.612,6.129V276l-.724-.42c-.752-.431-1.3-.565-1.644-.4s-.526.575-.526,1.208a23.217,23.217,0,0,0,.9,4.647l5.229,20.1,5.184-14.324a11.339,11.339,0,0,0,.885-3.475,2.823,2.823,0,0,0-.3-1.163,3.541,3.541,0,0,0-.729-1.075,9.666,9.666,0,0,0-1.992-1.475v-.858Zm15.874,80.209c-1.373,17.607-6.991,36.256-15.6,53.794l51.515,29.714h0c8.732-18.058,14-37.269,14-54.566v-.157h0l-49.918-28.786Zm-79,111A109,109,0,0,0,842.9,462.556h0l-51-29.431a124.726,124.726,0,0,1-22.859,17.236l-9.224,5.324L809.4,484.306Z" transform="translate(-739.39 -261.539)" fill="#dee1e9"/>
        </g>
      </g>
    </g>
    <g id="Group_3588" data-name="Group 3588" transform="translate(629.004 476.119)">
      <path id="Path_3258" data-name="Path 3258" d="M730.971,802.548l-70.823-40.886a8.089,8.089,0,0,0-7.321,0l-12.4,7.164c-2.023,1.165-2.023,3.058,0,4.225l70.822,40.888a8.079,8.079,0,0,0,7.32,0l12.4-7.161C732.989,805.6,732.994,803.718,730.971,802.548Z" transform="translate(-637.163 -734.738)" fill="#ededed"/>
      <path id="Path_3259" data-name="Path 3259" d="M666.7,738.584l4.31-11.088-4.31-6.119-8.616,4.972-4.306,11.093,4.306,6.119Z" transform="translate(-644.357 -715.669)" fill="#ededef"/>
      <path id="Path_3260" data-name="Path 3260" d="M658.47,716.627l-8.778-5.067-8.616,4.972-4.306,11.1,4.306,6.114,8.777,5.066-4.306-6.119,4.306-11.093Z" transform="translate(-636.128 -710.919)" fill="#fff"/>
      <g id="Group_3582" data-name="Group 3582" transform="translate(0.642 5.613)" opacity="0.5">
        <path id="Path_3261" data-name="Path 3261" d="M636.77,732.291l8.777,5.061,4.306-11.093-8.777-5.066Z" transform="translate(-636.77 -721.193)" fill="#ededed"/>
      </g>
      <path id="Path_3262" data-name="Path 3262" d="M641.076,748.809l8.777,5.067-4.306-6.119L636.77,742.7Z" transform="translate(-636.128 -725.984)" fill="#ededed"/>
      <g id="Group_3583" data-name="Group 3583" transform="translate(0)">
        <path id="Path_3263" data-name="Path 3263" d="M649.252,738.851a.642.642,0,0,1-.32-.086l-8.777-5.067a.643.643,0,0,1-.2-.186l-4.306-6.114a.641.641,0,0,1-.074-.6l4.307-11.1a.64.64,0,0,1,.277-.324l8.616-4.972a.642.642,0,0,1,.642,0l8.778,5.067a.641.641,0,0,1,0,1.111l-8.42,4.859L645.668,732l4.108,5.838a.642.642,0,0,1-.525,1.011Zm-8.334-6.193,6.135,3.541-2.632-3.74a.64.64,0,0,1-.073-.6l4.306-11.092a.638.638,0,0,1,.277-.323l7.654-4.416-7.494-4.326-8.1,4.674-4.1,10.567Z" transform="translate(-635.527 -710.318)" fill="#c1c1c1"/>
      </g>
      <path id="Path_3264" data-name="Path 3264" d="M666.7,738.584l4.31-11.088-4.31-6.119-8.616,4.972-4.306,11.093,4.306,6.119Z" transform="translate(-644.357 -715.669)" fill="#ededef"/>
      <path id="Path_3265" data-name="Path 3265" d="M727.7,756.6l-61-35.22-8.616,4.972-4.306,11.093,4.306,6.119,61.008,35.223-4.31-6.116,4.31-11.093Z" transform="translate(-644.357 -715.669)" fill="#5b6b91"/>
      <path id="Path_3266" data-name="Path 3266" d="M714.78,777.328l-61-35.225,4.306-11.093,61.008,35.225Z" transform="translate(-644.357 -720.33)" fill="#5b6b91" opacity="0.5" style="mix-blend-mode: overlay;isolation: isolate"/>
      <path id="Path_3267" data-name="Path 3267" d="M719.09,793.844l-61.008-35.223-4.306-6.119,61,35.225Z" transform="translate(-644.357 -730.73)" fill="#5b6b91" opacity="0.9" style="mix-blend-mode: overlay;isolation: isolate"/>
      <g id="Group_3584" data-name="Group 3584" transform="translate(8.777 5.066)">
        <path id="Path_3268" data-name="Path 3268" d="M718.488,778.823a.639.639,0,0,1-.32-.086L657.16,743.514a.635.635,0,0,1-.2-.187l-4.306-6.119a.639.639,0,0,1-.073-.6l4.306-11.092a.639.639,0,0,1,.277-.323l8.616-4.972a.639.639,0,0,1,.642,0l61,35.22a.641.641,0,0,1,0,1.111L719,761.414l-4.1,10.562,4.112,5.835a.642.642,0,0,1-.525,1.011Zm-60.564-36.349,58.362,33.695-2.632-3.734a.641.641,0,0,1-.074-.6l4.311-11.093a.64.64,0,0,1,.277-.323L725.817,756,666.1,721.516,658,726.19l-4.1,10.562Z" transform="translate(-652.533 -720.134)" fill="#c1c1c1"/>
      </g>
      <path id="Path_3269" data-name="Path 3269" d="M815.273,825.813l1.361-3.5-1.361-1.929-2.709,1.569-1.358,3.5,1.358,1.922Z" transform="translate(-720.534 -763.578)" fill="#ededef"/>
      <path id="Path_3270" data-name="Path 3270" d="M796.289,805.5l-11.395-15.881-8.611,4.976-4.31,11.093,4.31,6.116,17.3.681-1.358-1.922,1.358-3.5Z" transform="translate(-701.55 -748.689)" fill="#fff"/>
      <g id="Group_3585" data-name="Group 3585" transform="translate(70.423 45.905)" opacity="0.5">
        <path id="Path_3271" data-name="Path 3271" d="M792.221,815.228l-20.249-4.876,4.31-11.093,17.3,12.474Z" transform="translate(-771.973 -799.259)" fill="#ededed"/>
      </g>
      <path id="Path_3272" data-name="Path 3272" d="M793.58,827.55l-17.3-.682-4.31-6.116,20.249,4.876Z" transform="translate(-701.55 -763.754)" fill="#ededed"/>
      <g id="Group_3586" data-name="Group 3586" transform="translate(69.781 40.287)">
        <path id="Path_3273" data-name="Path 3273" d="M792.978,812.525h-.025l-17.3-.681a.641.641,0,0,1-.5-.272l-4.311-6.116a.641.641,0,0,1-.074-.6l4.311-11.093a.64.64,0,0,1,.277-.323l8.611-4.976a.643.643,0,0,1,.842.182l11.395,15.881a.642.642,0,0,1-.2.929l-2.515,1.456-1.152,2.965,1.16,1.64a.642.642,0,0,1-.524,1.012Zm-16.955-1.952,15.68.618-.607-.859a.64.64,0,0,1-.074-.6l1.358-3.5a.638.638,0,0,1,.276-.323l2.1-1.214L784.11,789.863l-7.912,4.572L772.093,805Z" transform="translate(-770.73 -788.376)" fill="#c1c1c1"/>
      </g>
      <path id="Path_3274" data-name="Path 3274" d="M820.918,826.489l.453.646-.456,1.173-.91.523-7.442-1.458-1.358-1.922,1.358-3.5,2.709-1.569Z" transform="translate(-720.534 -763.578)" fill="#5b6b91"/>
      <path id="Path_3275" data-name="Path 3275" d="M819.558,829.656l.453-1.17-7.447-5.059-1.358,3.5Z" transform="translate(-720.534 -765.049)" fill="#4e6399" opacity="0.5" style="mix-blend-mode: overlay;isolation: isolate"/>
      <path id="Path_3276" data-name="Path 3276" d="M820.006,833.579l-.448-.646-8.353-2.734,1.358,1.922Z" transform="translate(-720.534 -768.326)" fill="#5b6b91" opacity="0.9" style="mix-blend-mode: overlay;isolation: isolate"/>
      <g id="Group_3587" data-name="Group 3587" transform="translate(90.03 56.168)">
        <path id="Path_3277" data-name="Path 3277" d="M819.4,828.871a.66.66,0,0,1-.123-.012l-7.442-1.458a.644.644,0,0,1-.4-.259l-1.358-1.922a.64.64,0,0,1-.074-.6l1.358-3.5a.638.638,0,0,1,.276-.323l2.709-1.569a.639.639,0,0,1,.792.119l5.645,6.1a.561.561,0,0,1,.055.067l.453.646a.641.641,0,0,1,.072.6l-.455,1.174a.64.64,0,0,1-.278.323l-.91.523A.636.636,0,0,1,819.4,828.871Zm-7.067-2.68,6.955,1.363.505-.291.25-.643-.231-.33-5.268-5.693-2.071,1.2-1.152,2.964Z" transform="translate(-809.962 -819.144)" fill="#c1c1c1"/>
      </g>
    </g>
    <g id="Group_3591" data-name="Group 3591" transform="translate(937.898 333.97)">
      <g id="Group_3589" data-name="Group 3589" transform="translate(0 0)">
        <path id="Path_3278" data-name="Path 3278" d="M1270.386,565.767c0,2.124-1.493,2.984-3.335,1.922l-38.141-22.023a7.353,7.353,0,0,1-3.331-5.771l-.005-62.624c0-2.12,1.5-2.982,3.336-1.919l38.141,22.028a7.325,7.325,0,0,1,3.331,5.764Z" transform="translate(-1224.932 -474.253)" fill="#fff"/>
        <path id="Path_3279" data-name="Path 3279" d="M1267.941,568.185a3.666,3.666,0,0,1-1.812-.544l-38.141-22.023a7.954,7.954,0,0,1-3.652-6.327l-.005-62.623a2.659,2.659,0,0,1,4.3-2.475l38.142,22.028a7.924,7.924,0,0,1,3.651,6.32l.005,62.622h0a2.945,2.945,0,0,1-1.3,2.711A2.348,2.348,0,0,1,1267.941,568.185Zm-41.122-93.248a1.087,1.087,0,0,0-.548.134,1.772,1.772,0,0,0-.658,1.6l.005,62.623a6.76,6.76,0,0,0,3.009,5.215l38.142,22.022a1.414,1.414,0,0,0,2.373-1.366l-.005-62.624a6.728,6.728,0,0,0-3.008-5.208L1227.988,475.3A2.416,2.416,0,0,0,1226.819,474.936Z" transform="translate(-1224.331 -473.649)" fill="#c1c1c1"/>
      </g>
      <g id="Group_3590" data-name="Group 3590" transform="translate(7.134 20.526)">
        <path id="Path_3280" data-name="Path 3280" d="M1269.984,568.714c0,.508-.36.716-.8.458l-30.224-17.45a1.767,1.767,0,0,1-.8-1.386h0c0-.506.36-.712.8-.456l30.224,17.45a1.782,1.782,0,0,1,.8,1.383Zm-5.56,4.17c0,.511-.356.716-.8.463L1238.958,559.1a1.747,1.747,0,0,1-.8-1.386h0c0-.506.355-.712.8-.461l24.669,14.244a1.765,1.765,0,0,1,.8,1.384Zm-5.556-6.9a1.753,1.753,0,0,0-.8-1.381l-19.114-11.04c-.446-.253-.8-.045-.8.461h0a1.75,1.75,0,0,0,.8,1.383l19.114,11.04c.439.25.8.045.8-.464Zm11.113-10.184c0,.509-.358.714-.8.459l-30.229-17.449a1.77,1.77,0,0,1-.8-1.383h0c0-.511.358-.716.8-.463l30.224,17.449a1.782,1.782,0,0,1,.8,1.388Zm-5.555,4.17c0,.511-.358.716-.8.461l-24.677-14.245a1.758,1.758,0,0,1-.8-1.382h0c0-.509.356-.716.8-.461l24.667,14.244a1.766,1.766,0,0,1,.8,1.383Zm-5.558-6.9a1.754,1.754,0,0,0-.8-1.383l-19.114-11.039c-.444-.253-.8-.042-.8.459h0a1.781,1.781,0,0,0,.8,1.39l19.114,11.031c.441.259.8.05.8-.458Zm-4.8-38.276c-5.6-3.227-10.143-.614-10.146,5.843s4.542,14.325,10.15,17.563,10.141.617,10.141-5.846l-10.141-5.853Z" transform="translate(-1238.154 -513.42)" fill="#dee1e9"/>
      </g>
      <path id="Path_3281" data-name="Path 3281" d="M1273.293,513.627v11.7l10.143,5.859C1283.439,524.723,1278.9,516.862,1273.293,513.627Z" transform="translate(-1248.023 -492.994)" fill="#5b6b91"/>
    </g>
    <g id="Group_3593" data-name="Group 3593" transform="translate(770.678 211.008)">
      <path id="Path_3282" data-name="Path 3282" d="M909.808,236.756l-7.767,4.485a1.092,1.092,0,0,0-.461,1v39.4c0,18.276,26.986,48,28.14,49.264a2.738,2.738,0,0,0,.621.509,1.379,1.379,0,0,0,.616.2c.747.045,12.4.664,20.477-3.921l0,.006,7.866-4.543v0c4.3-2.476,7.573-6.443,7.573-12.8v-39.4a3.585,3.585,0,0,0-1.614-2.675c-10.775-6.217-20.817-15.02-26.219-22.976-.547-.8-1.308-1.241-1.86-1.069-5.392,1.716-15.43-1.073-26.292-7.344a1,1,0,0,0-1.083-.138Z" transform="translate(-900.938 -236.011)" fill="#fff"/>
      <path id="Path_3283" data-name="Path 3283" d="M965.693,268.285c-10.775-6.217-20.817-15.02-26.219-22.976-.547-.8-1.308-1.241-1.86-1.069-5.392,1.716-15.43-1.073-26.292-7.344a1,1,0,0,0-1.083-.138h0l-7.767,4.485h0a1.006,1.006,0,0,1,1.075.143c10.865,6.272,20.9,9.062,26.295,7.344.549-.173,1.314.268,1.86,1.07,5.4,7.956,15.442,16.76,26.217,22.978a3.563,3.563,0,0,1,1.611,2.675l0,39.4c0,6.4-3.32,10.38-7.675,12.849a.04.04,0,0,0,.01,0l0,.006,7.866-4.543v0c4.3-2.476,7.573-6.443,7.573-12.8v-39.4A3.585,3.585,0,0,0,965.693,268.285Z" transform="translate(-901.369 -236.011)" fill="#ededed"/>
      <g id="Group_3592" data-name="Group 3592" transform="translate(0)">
        <path id="Path_3284" data-name="Path 3284" d="M932.371,331.707c-1.186,0-1.936-.042-2.055-.049a2.012,2.012,0,0,1-.9-.291,3.4,3.4,0,0,1-.764-.623c-1.161-1.269-28.314-31.171-28.312-49.7v-39.4a1.713,1.713,0,0,1,.781-1.56l7.768-4.486.039-.021a1.637,1.637,0,0,1,1.72.183c10.634,6.138,20.512,8.931,25.742,7.266a2.5,2.5,0,0,1,2.585,1.32c5.353,7.884,15.32,16.613,26.009,22.781a4.207,4.207,0,0,1,1.935,3.227v39.408c0,5.83-2.641,10.313-7.849,13.325l-.044.028-7.866,4.543a.657.657,0,0,1-.1.045C944.729,331.26,936.236,331.707,932.371,331.707Zm-22.876-94.979-7.735,4.466c-.07.041-.142.195-.14.446v39.4c0,18.039,26.829,47.583,27.971,48.831a2.11,2.11,0,0,0,.469.387.781.781,0,0,0,.332.118c.494.03,12.172.678,20.123-3.839a.626.626,0,0,1,.086-.041l7.736-4.468.046-.029c4.811-2.766,7.25-6.885,7.25-12.239v-39.4a2.967,2.967,0,0,0-1.3-2.121c-10.844-6.257-20.971-15.135-26.427-23.17-.423-.622-.941-.879-1.138-.818-5.56,1.77-15.832-1.066-26.8-7.4-.23-.152-.382-.174-.436-.141Z" transform="translate(-900.337 -235.409)" fill="#c1c1c1"/>
      </g>
      <path id="Path_3285" data-name="Path 3285" d="M949.285,337.891l-8.554-14.8,2.36-1.358,6.191,10.722,9.3-5.36,2.361,4.081Z" transform="translate(-919.882 -277.178)" fill="#5b6b91"/>
      <path id="Path_3286" data-name="Path 3286" d="M947.429,334.15l-8.555-14.8,2.36-1.358,6.191,10.722,7.911-4.555a21.97,21.97,0,0,0-7.911-8.717c-5.818-3.357-10.531-.642-10.531,6.064s4.713,14.866,10.531,18.222,10.529.646,10.532-6.064a18.119,18.119,0,0,0-.8-5.113Z" transform="translate(-918.026 -273.437)" fill="#5b6b91" opacity="0.2"/>
    </g>
    <g id="Group_3604" data-name="Group 3604" transform="translate(937.082 242.743)">
      <g id="Group_3602" data-name="Group 3602" transform="translate(0 0)">
        <path id="Path_3294" data-name="Path 3294" d="M1223.992,316.364a7.109,7.109,0,0,0,3.218,5.564l36.8,21.247c1.777,1.022,3.212.2,3.212-1.853l0-15.928a7.117,7.117,0,0,0-3.218-5.569l-36.8-21.243c-1.774-1.025-3.22-.194-3.218,1.857Z" transform="translate(-1223.35 -297.499)" fill="#fff"/>
        <path id="Path_3295" data-name="Path 3295" d="M1264.844,343.653a3.569,3.569,0,0,1-1.758-.526l-36.8-21.248a7.711,7.711,0,0,1-3.538-6.12V299.835a2.588,2.588,0,0,1,4.18-2.412l36.8,21.244a7.727,7.727,0,0,1,3.538,6.124l0,15.928A2.859,2.859,0,0,1,1266,343.35,2.283,2.283,0,0,1,1264.844,343.653Zm-39.673-45.471a1.022,1.022,0,0,0-.519.128,1.687,1.687,0,0,0-.62,1.525V315.76a6.505,6.505,0,0,0,2.9,5.008l36.8,21.247a1.34,1.34,0,0,0,2.25-1.3l0-15.928a6.518,6.518,0,0,0-2.9-5.013l-36.8-21.244A2.3,2.3,0,0,0,1225.171,298.182Z" transform="translate(-1222.749 -296.895)" fill="#c1c1c1"/>
      </g>
      <g id="Group_3603" data-name="Group 3603" transform="translate(6.906 10.406)">
        <path id="Path_3296" data-name="Path 3296" d="M1266.832,335.334c0,.491-.346.692-.772.445L1236.9,318.941a1.7,1.7,0,0,1-.769-1.332h0c0-.494.349-.694.772-.446l29.159,16.832a1.724,1.724,0,0,1,.772,1.339Zm-5.36,4.021c0,.5-.348.688-.772.448l-23.8-13.74a1.706,1.706,0,0,1-.772-1.337h0c0-.485.344-.691.772-.441l23.8,13.741a1.692,1.692,0,0,1,.769,1.33Zm-5.357-6.649a1.7,1.7,0,0,0-.77-1.331L1236.9,320.727c-.43-.254-.774-.05-.774.439h0a1.706,1.706,0,0,0,.774,1.337l18.439,10.648c.426.242.774.049.772-.446Z" transform="translate(-1236.129 -317.056)" fill="#dee1e9"/>
      </g>
    </g>
    <g id="Group_3607" data-name="Group 3607" transform="translate(757.303 530.836)">
      <path id="Path_3297" data-name="Path 3297" d="M888.367,856.326l14.05,8.111v8.607l-12.7,7.334-14.049-8.114v-8.607Z" transform="translate(-875.024 -855.684)" fill="#fff"/>
      <g id="Group_3605" data-name="Group 3605" transform="translate(0.642 7.973)" opacity="0.5">
        <path id="Path_3298" data-name="Path 3298" d="M889.715,887.252l-14.049-8.114v-8.607l14.049,8.113Z" transform="translate(-875.666 -870.531)" fill="#f5f5f5"/>
      </g>
      <path id="Path_3299" data-name="Path 3299" d="M915.588,880.648l-12.7,7.335v-8.607l12.7-7.334Z" transform="translate(-888.196 -863.289)" fill="#ededed"/>
      <g id="Group_3606" data-name="Group 3606" transform="translate(0)">
        <path id="Path_3300" data-name="Path 3300" d="M889.114,880.418a.639.639,0,0,1-.321-.086l-14.049-8.114a.641.641,0,0,1-.321-.555v-8.607a.641.641,0,0,1,.321-.555l12.7-7.332a.638.638,0,0,1,.641,0l14.05,8.111a.64.64,0,0,1,.321.555v8.607a.641.641,0,0,1-.321.555l-12.7,7.335A.64.64,0,0,1,889.114,880.418Zm-13.408-9.126,13.408,7.743,12.06-6.964v-7.866l-13.408-7.74-12.059,6.961Z" transform="translate(-874.423 -855.083)" fill="#c1c1c1"/>
      </g>
    </g>
  </g>
</svg>
