<svg xmlns="http://www.w3.org/2000/svg" width="409.357" height="337" viewBox="0 0 409.357 337">
  <g id="Group_3633" data-name="Group 3633" transform="translate(-744.628 -203.667)">
    <g id="Group_3626" data-name="Group 3626" transform="translate(774.027 203.667)">
      <g id="Group_3618" data-name="Group 3618" transform="translate(0)">
        <path id="Path_3301" data-name="Path 3301" d="M1114.916,607.44a16.112,16.112,0,0,1-14.57-.006L858.7,467.914c-4.032-2.328-4.034-6.095-.012-8.413l80.092-46.294a16.1,16.1,0,0,1,14.57,0L1195,552.731c4.024,2.321,4.024,6.089.007,8.41Z" transform="translate(-818.063 -286.07)" fill="#ededed"/>
        <path id="Path_3302" data-name="Path 3302" d="M1022.937,635.189l-.027,0a3.6,3.6,0,0,0-2.089-2.893l-61.276-35.378a11.457,11.457,0,0,0-9.171-.5l-64.117,25.229c-1.773.7-2.916,1.815-3.117,3.05a2.2,2.2,0,0,0,.014.369l-.04,0v6.664h.037a3.519,3.519,0,0,0,2.076,3.041l81.7,47.17a10.736,10.736,0,0,0,5.776,1.2,9.091,9.091,0,0,0,5.287-1.8l43.693-37.015a3.043,3.043,0,0,0,1.224-2.4l.027,0Z" transform="translate(-828.945 -359.125)" fill="#ededed"/>
        <path id="Path_3303" data-name="Path 3303" d="M1038.982,632.292l-61.276-35.378a11.457,11.457,0,0,0-9.171-.5L928.912,612l83.933,48.463,27-22.879C1041.8,635.935,1041.437,633.709,1038.982,632.292Z" transform="translate(-847.105 -359.125)" opacity="0.3" style="mix-blend-mode: overlay;isolation: isolate"/>
        <path id="Path_3304" data-name="Path 3304" d="M1022.91,654.483a3.044,3.044,0,0,1-1.224,2.4L977.994,693.9a9.1,9.1,0,0,1-5.288,1.8,10.717,10.717,0,0,1-5.778-1.2l-81.7-47.171a3.543,3.543,0,0,1-2.074-2.968l-.04,0v6.664h.037a3.519,3.519,0,0,0,2.076,3.041l81.7,47.17a10.736,10.736,0,0,0,5.776,1.2,9.09,9.09,0,0,0,5.287-1.8l43.693-37.015a3.043,3.043,0,0,0,1.224-2.4l.027,0v-6.733Z" transform="translate(-828.945 -378.423)" opacity="0.3" style="mix-blend-mode: overlay;isolation: isolate"/>
        <path id="Path_3305" data-name="Path 3305" d="M1096.225,661.137a3.043,3.043,0,0,1-1.224,2.4l-27,22.879,0,6.733,27-22.879a3.043,3.043,0,0,0,1.224-2.4l.026,0v-6.733Z" transform="translate(-902.259 -385.077)" opacity="0.1" style="mix-blend-mode: overlay;isolation: isolate"/>
        <g id="Group_3615" data-name="Group 3615" transform="translate(53.329 235.719)">
          <path id="Path_3306" data-name="Path 3306" d="M971.469,683.44a11.261,11.261,0,0,1-5.513-1.335l-81.7-47.171a4.46,4.46,0,0,1-2.5-3.529.8.8,0,0,1-.037-.241V624.5a.834.834,0,0,1,.022-.194,1.522,1.522,0,0,1,.013-.293c.252-1.553,1.579-2.9,3.642-3.712l64.116-25.229a12.207,12.207,0,0,1,9.9.554l61.276,35.378a4.486,4.486,0,0,1,2.5,3.381.787.787,0,0,1,.039.245v6.733a.862.862,0,0,1-.029.22,3.887,3.887,0,0,1-1.52,2.823l-43.693,37.015a9.9,9.9,0,0,1-5.785,2C971.955,683.434,971.712,683.44,971.469,683.44Zm-88.065-52.5a.735.735,0,0,1,.036.256,2.725,2.725,0,0,0,1.657,2.281l81.7,47.17a9.991,9.991,0,0,0,5.309,1.092,8.348,8.348,0,0,0,4.787-1.6l43.7-37.017a2.244,2.244,0,0,0,.927-1.739.851.851,0,0,1,.027-.232v-6.314a.828.828,0,0,1-.027-.191,2.813,2.813,0,0,0-1.669-2.182l-61.276-35.378a10.564,10.564,0,0,0-8.442-.445l-64.116,25.228c-1.474.579-2.444,1.477-2.594,2.4l.011.018c.006.066.012.133.013.2a.827.827,0,0,1-.04.273Z" transform="translate(-881.721 -594.286)" fill="#c1c1c1"/>
        </g>
        <path id="Path_3307" data-name="Path 3307" d="M804.154,205.549l-7.264,4.195c-.011.007-.017.013-.024.013l-.005,0h0c-1.31.766-2.117,2.39-2.119,4.7V387.254a16.107,16.107,0,0,0,7.288,12.615l241.65,139.514c1.992,1.15,3.791,1.266,5.112.536l0,0,.036-.022.007,0,7.263-4.2.006,0c1.325-.757,2.151-2.387,2.151-4.718l0-172.8a16.1,16.1,0,0,0-7.292-12.61L809.321,206.058c-1.979-1.144-3.762-1.262-5.074-.549l-.008-.01-.062.04Z" transform="translate(-793.9 -204.221)" fill="#ededed"/>
        <path id="Path_3308" data-name="Path 3308" d="M1052.387,345.572,810.74,206.058c-1.979-1.144-3.762-1.262-5.074-.549l-.008-.01-.062.04-.023.01-7.253,4.189c1.315-.745,3.127-.629,5.126.526L1045.1,349.779a16.109,16.109,0,0,1,7.289,12.615l0,172.794c0,2.308-.805,3.932-2.114,4.7l7.243-4.185.006,0c1.325-.757,2.151-2.387,2.151-4.718l0-172.8A16.1,16.1,0,0,0,1052.387,345.572Z" transform="translate(-795.319 -204.221)" opacity="0.3" style="mix-blend-mode: overlay;isolation: isolate"/>
        <path id="Path_3309" data-name="Path 3309" d="M1046.552,529.044,804.9,389.525a6.459,6.459,0,0,1-2.916-5.05V223.454c0-1.853,1.312-2.605,2.913-1.678l241.653,139.515a6.478,6.478,0,0,1,2.92,5.043V527.36C1049.472,529.214,1048.16,529.97,1046.552,529.044Z" transform="translate(-796.773 -210.691)" fill="#fff"/>
        <path id="Path_3310" data-name="Path 3310" d="M893.7,373.276V480.029l127.932,73.861V417.139Z" transform="translate(-833.14 -270.926)" fill="#dee1e9"/>
        <path id="Path_3311" data-name="Path 3311" d="M843.843,357.123V335.461a9.663,9.663,0,0,0-4.373-7.572l-37.484-21.64V338l37.487,21.645C841.886,361.037,843.843,359.911,843.843,357.123Z" transform="translate(-796.773 -244.346)" fill="#ededed"/>
        <path id="Path_3312" data-name="Path 3312" d="M1182.693,461.286v82.16a9.647,9.647,0,0,0,4.375,7.571l13.373,7.721V466.49l-13.375-7.722C1184.649,457.372,1182.693,458.5,1182.693,461.286Z" transform="translate(-947.742 -304.59)" fill="#dee1e9"/>
        <g id="Group_3616" data-name="Group 3616">
          <path id="Path_3313" data-name="Path 3313" d="M1046.382,540.667a7.446,7.446,0,0,1-3.677-1.109L801.056,400.044a17.059,17.059,0,0,1-7.709-13.344V213.907c0-2.545.9-4.473,2.535-5.427l.033-.018,7.266-4.2.04-.022.016-.01a.857.857,0,0,1,.2-.091c1.616-.8,3.652-.584,5.756.633l241.646,139.514a17.056,17.056,0,0,1,7.713,13.338l0,172.8c0,2.565-.914,4.5-2.574,5.449l-.027.014-7.238,4.182c-.022.012-.045.024-.069.035A4.618,4.618,0,0,1,1046.382,540.667ZM796.714,209.943c-1.092.662-1.682,2.064-1.684,3.965V386.7a15.2,15.2,0,0,0,6.868,11.886L1043.547,538.1c1.652.955,3.174,1.142,4.285.528l.055-.028.015-.007,7.225-4.175.03-.017c1.1-.641,1.706-2.052,1.706-3.976l0-172.8a15.194,15.194,0,0,0-6.871-11.881L808.348,206.233c-1.639-.947-3.148-1.139-4.251-.538a.822.822,0,0,1-.113.051l-7.205,4.16A.734.734,0,0,1,796.714,209.943Z" transform="translate(-793.347 -203.667)" fill="#c1c1c1"/>
        </g>
        <g id="Group_3617" data-name="Group 3617" transform="translate(4.372 9.849)">
          <path id="Path_3314" data-name="Path 3314" d="M1047.3,529.727a3.491,3.491,0,0,1-1.725-.506h0L803.929,389.7a7.294,7.294,0,0,1-3.337-5.777V222.9a2.6,2.6,0,0,1,4.177-2.407L1046.42,360.011a7.3,7.3,0,0,1,3.341,5.769V526.808a2.878,2.878,0,0,1-1.276,2.612A2.332,2.332,0,0,1,1047.3,529.727Zm-.885-1.964a.976.976,0,0,0,1.658-.955V365.783a5.627,5.627,0,0,0-2.5-4.314L803.926,221.953a.971.971,0,0,0-1.651.949V383.924a5.627,5.627,0,0,0,2.5,4.322L1046.42,527.763Z" transform="translate(-800.592 -219.988)" fill="#c1c1c1"/>
        </g>
      </g>
      <g id="Group_3625" data-name="Group 3625" transform="translate(23.661 70.112)">
        <path id="Path_3315" data-name="Path 3315" d="M1018.07,400.443h0a2.773,2.773,0,0,1-2.785-.278L897.627,332.254a8.69,8.69,0,0,1-3.932-6.811,2.769,2.769,0,0,1,1.154-2.548l2.381-1.372v0a2.765,2.765,0,0,1,2.807.265L1017.694,389.7a8.7,8.7,0,0,1,3.935,6.809l0,0a2.721,2.721,0,0,1-1.195,2.561l0,.01Z" transform="translate(-856.801 -320.408)" fill="#ededed"/>
        <path id="Path_3316" data-name="Path 3316" d="M1018.309,401.037c-.184.1-.628.1-1.276-.278L899.382,332.848a7.2,7.2,0,0,1-3.181-5.493c0-.744.215-1.133.395-1.236s.625-.1,1.27.279l117.656,67.912a7.505,7.505,0,0,1,3.184,5.492C1018.7,400.547,1018.491,400.932,1018.309,401.037Z" transform="translate(-857.794 -322.315)" opacity="0.3" style="mix-blend-mode: overlay;isolation: isolate"/>
        <path id="Path_3317" data-name="Path 3317" d="M1020.354,399.232l-116.5-67.247a6.547,6.547,0,0,1-2.23-2.38,7.248,7.248,0,0,1-.769-1.895l116.516,67.253A7.637,7.637,0,0,1,1020.354,399.232Z" transform="translate(-859.638 -322.968)" opacity="0.3" style="mix-blend-mode: overlay;isolation: isolate"/>
        <g id="Group_3619" data-name="Group 3619" transform="translate(36.053)">
          <path id="Path_3318" data-name="Path 3318" d="M1016.5,400.993a4.435,4.435,0,0,1-2.185-.653l-117.66-67.913a9.48,9.48,0,0,1-4.353-7.54,3.558,3.558,0,0,1,1.574-3.276l2.381-1.372.059-.031a3.586,3.586,0,0,1,3.589.3l117.657,67.907a9.5,9.5,0,0,1,4.356,7.538q0,.029,0,.058a3.543,3.543,0,0,1-1.512,3.175.718.718,0,0,1-.1.07l-2.363,1.363A2.849,2.849,0,0,1,1016.5,400.993ZM897.042,321.728l-2.326,1.341a2.017,2.017,0,0,0-.733,1.818,7.882,7.882,0,0,0,3.511,6.082l117.659,67.912a2.029,2.029,0,0,0,1.942.278h0l2.261-1.3a.793.793,0,0,1,.12-.08,1.975,1.975,0,0,0,.755-1.821c0-.017,0-.034,0-.051a7.913,7.913,0,0,0-3.515-6.033L899.064,321.964a2.016,2.016,0,0,0-1.959-.269C897.084,321.707,897.063,321.719,897.042,321.728Z" transform="translate(-892.301 -319.853)" fill="#c1c1c1"/>
        </g>
        <path id="Path_3319" data-name="Path 3319" d="M833.95,474.414c0-9.882,6.969-21.94,15.53-26.883L864.1,455.97V359.533c0-9.427,6.346-20.822,14.368-26.143L990.54,398.1c-7.922,4.76-14.321,15.932-14.321,25.114v97.472c0,9.874-6.969,21.935-15.532,26.878-4.256,2.459-8.114,2.7-10.92,1.116h0l-.054-.029a.01.01,0,0,0,0-.007L838.558,484.473l0,0C835.718,482.863,833.948,479.384,833.95,474.414Z" transform="translate(-833.109 -325.221)" fill="#fff"/>
        <path id="Path_3320" data-name="Path 3320" d="M906.092,333.39l112.07,64.706a23.42,23.42,0,0,0-2.592,1.839L903.608,335.291A25.574,25.574,0,0,1,906.092,333.39Z" transform="translate(-860.732 -325.221)" fill="#f5f5f5"/>
        <path id="Path_3321" data-name="Path 3321" d="M960.687,622.566c-4.256,2.459-8.114,2.7-10.92,1.116h0l-.054-.029a.01.01,0,0,0,0-.007L838.558,559.48l0,0c-2.844-1.606-4.613-5.085-4.612-10.055,0-9.881,6.969-21.94,15.53-26.883l14.622,8.439v-6.815l112.117,64.733v6.794C976.218,605.562,969.251,617.623,960.687,622.566Z" transform="translate(-833.109 -400.227)" fill="#ededed"/>
        <g id="Group_3620" data-name="Group 3620" transform="translate(0 7.327)">
          <path id="Path_3322" data-name="Path 3322" d="M953.207,549.972a8.864,8.864,0,0,1-4.354-1.087l-.045-.023-.054-.03a.8.8,0,0,1-.086-.054L837.585,484.649c-.028-.017-.055-.034-.081-.053-3.193-1.856-4.95-5.663-4.948-10.736,0-10.146,7.153-22.532,15.951-27.612a.845.845,0,0,1,.842,0l13.359,7.711V358.98c0-9.567,6.473-21.358,14.743-26.845a.843.843,0,0,1,.886-.027l112.071,64.706a.842.842,0,0,1,.013,1.45c-7.672,4.61-13.913,15.553-13.913,24.393v97.472c0,10.146-7.158,22.531-15.953,27.607A14.913,14.913,0,0,1,953.207,549.972Zm-3.6-2.6.025.014c2.662,1.5,6.243,1.108,10.085-1.112,8.332-4.808,15.11-16.538,15.112-26.149V422.656c0-9.065,5.861-19.783,13.548-25.074l-110.42-63.753c-7.642,5.323-13.565,16.256-13.563,25.151v96.437a.841.841,0,0,1-1.262.729l-14.2-8.193c-8.142,4.955-14.7,16.458-14.695,25.908h0c0,4.487,1.484,7.8,4.183,9.321a1.016,1.016,0,0,1,.091.059l111.06,64.116Z" transform="translate(-832.556 -331.995)" fill="#c1c1c1"/>
        </g>
        <path id="Path_3323" data-name="Path 3323" d="M945.153,613.622c0,4.938,1.739,8.409,4.551,10.024L838.558,559.48l0,0c-2.844-1.606-4.613-5.085-4.612-10.055,0-9.881,6.969-21.94,15.53-26.883l111.207,64.207C952.124,591.687,945.153,603.746,945.153,613.622Z" transform="translate(-833.109 -400.227)" fill="#fff"/>
        <path id="Path_3324" data-name="Path 3324" d="M949.7,639.857,838.558,575.691l0,0c-2.844-1.606-4.613-5.085-4.612-10.055,0-.73.048-1.47.117-2.213l111.206,64.2c-.072.743-.12,1.482-.12,2.21C945.153,634.772,946.892,638.243,949.7,639.857Z" transform="translate(-833.109 -416.439)" fill="#f5f5f5"/>
        <g id="Group_3621" data-name="Group 3621" transform="translate(0 121.469)">
          <path id="Path_3325" data-name="Path 3325" d="M949.151,623.934a.84.84,0,0,1-.418-.111l-.037-.022L837.585,559.656c-.028-.017-.055-.034-.081-.053-3.193-1.856-4.95-5.663-4.948-10.736,0-10.146,7.153-22.532,15.951-27.612a.845.845,0,0,1,.842,0l111.206,64.207a.843.843,0,0,1,0,1.458c-8.334,4.81-15.113,16.541-15.113,26.149,0,4.449,1.456,7.742,4.1,9.277l.031.018a.841.841,0,0,1-.422,1.57ZM838.513,558.248,945.1,619.781a15.6,15.6,0,0,1-1.338-6.712c0-9.672,6.506-21.381,14.737-26.852L848.933,522.959c-8.142,4.955-14.7,16.458-14.694,25.908,0,4.487,1.484,7.8,4.183,9.322A1.015,1.015,0,0,1,838.513,558.248Z" transform="translate(-832.556 -521.143)" fill="#c1c1c1"/>
        </g>
        <g id="Group_3622" data-name="Group 3622" transform="translate(43.165 48.601)">
          <path id="Path_3326" data-name="Path 3326" d="M904.47,400.43a.744.744,0,0,1,.647.091l9.823,5.671a2.12,2.12,0,0,1,.7.735L913.787,408l-7.42-4.284Zm9.356,11v5.347l-7.6-4.384v-5.464l-2.143-3.708v9.218a2.275,2.275,0,0,0,1.032,1.783l9.823,5.67c.567.329,1.026.063,1.029-.593v-9.1Zm-9.356,10.413a.742.742,0,0,1,.647.091l9.823,5.672a2.079,2.079,0,0,1,.7.735l-1.859,1.068-7.418-4.285Zm9.356,11v5.349l-7.6-4.383v-5.466l-2.143-3.707v9.218a2.27,2.27,0,0,0,1.032,1.782l9.823,5.673c.567.327,1.029.06,1.029-.594v-9.107Zm-9.356,10.415a.745.745,0,0,1,.647.089l9.823,5.672a2.1,2.1,0,0,1,.7.735l-1.857,1.07-7.42-4.284Zm9.356,11v5.348l-7.6-4.386v-5.461l-2.143-3.709v9.218a2.272,2.272,0,0,0,1.032,1.783l9.823,5.672c.567.327,1.029.062,1.026-.593l0-9.107Zm1.115,16.175-9.823-5.672c-.572-.327-1.032-.063-1.032.591v11.335a2.264,2.264,0,0,0,1.032,1.777l9.823,5.675c.567.325,1.026.062,1.029-.592V472.214A2.276,2.276,0,0,0,914.941,470.436Zm-1.115,10.591-7.6-4.387v-8.761l7.6,4.387Z" transform="translate(-904.086 -400.391)" fill="#dee1e9"/>
        </g>
        <g id="Group_3623" data-name="Group 3623" transform="translate(62.988 63.328)">
          <path id="Path_3327" data-name="Path 3327" d="M1003.48,463.947c0,.654-.462.919-1.027.592l-64.487-37.23a2.272,2.272,0,0,1-1.031-1.782h0c0-.651.46-.92,1.031-.591l64.487,37.232a2.281,2.281,0,0,1,1.027,1.779Zm-7.428.454a2.271,2.271,0,0,0-1.027-1.778l-57.058-32.942c-.57-.331-1.031-.066-1.031.588h0a2.269,2.269,0,0,0,1.031,1.781l57.058,32.942c.567.326,1.027.065,1.027-.591Zm7.428,20.961c0,.654-.462.918-1.027.592l-64.487-37.232a2.266,2.266,0,0,1-1.031-1.78h0c0-.652.46-.918,1.031-.59l64.487,37.232a2.274,2.274,0,0,1,1.027,1.778Zm-7.428.452a2.276,2.276,0,0,0-1.027-1.778L937.967,451.1c-.57-.332-1.031-.066-1.031.588h0a2.266,2.266,0,0,0,1.031,1.78l57.058,32.944c.566.327,1.027.062,1.027-.594Zm7.428,20.963c0,.658-.462.921-1.027.592l-64.487-37.232a2.269,2.269,0,0,1-1.031-1.779h0c0-.656.46-.92,1.031-.592L1002.453,505a2.274,2.274,0,0,1,1.027,1.778Zm-7.43.451a2.26,2.26,0,0,0-1.026-1.775l-57.058-32.942c-.57-.329-1.031-.066-1.031.588h0a2.269,2.269,0,0,0,1.031,1.782l57.058,32.944c.566.324,1.027.06,1.026-.6Zm7.43,20.962c0,.657-.462.923-1.027.594l-64.487-37.232a2.272,2.272,0,0,1-1.031-1.783h0c0-.649.46-.916,1.031-.587l64.487,37.232a2.279,2.279,0,0,1,1.027,1.776Zm-7.43.457a2.269,2.269,0,0,0-1.024-1.779l-57.06-32.943c-.57-.329-1.031-.065-1.031.59h0a2.275,2.275,0,0,0,1.031,1.782l57.058,32.942c.567.329,1.027.063,1.026-.591Z" transform="translate(-936.936 -424.795)" fill="#dee1e9"/>
        </g>
        <g id="Group_3624" data-name="Group 3624" transform="translate(41.625 47.903)">
          <path id="Path_3328" data-name="Path 3328" d="M909.065,413.13l-7.53-13.034,1.5-.862,6.035,10.439,7.714-4.443,1.5,2.593Zm9.213,16.11-1.5-2.592-7.714,4.44-6.031-10.438-1.5.863,7.53,13.033Zm0,21.415-1.5-2.592-7.714,4.44-6.035-10.437-1.5.861,7.53,13.034Z" transform="translate(-901.535 -399.234)" fill="#5b6b91"/>
        </g>
      </g>
    </g>
    <g id="Group_3629" data-name="Group 3629" transform="translate(991.304 366.5)">
      <g id="Group_3627" data-name="Group 3627">
        <path id="Path_3329" data-name="Path 3329" d="M1154.8,560.182a9.648,9.648,0,0,0,4.376,7.572l50.047,28.894c2.417,1.4,4.373.273,4.37-2.521l0-82.161a9.642,9.642,0,0,0-4.379-7.568L1159.172,475.5c-2.416-1.4-4.373-.27-4.373,2.518Z" transform="translate(-1153.957 -474.06)" fill="#fff"/>
        <path id="Path_3330" data-name="Path 3330" d="M1210.629,597.538a4.809,4.809,0,0,1-2.381-.717L1158.2,567.927a10.443,10.443,0,0,1-4.8-8.3v-82.16a3.484,3.484,0,0,1,5.635-3.247l50.044,28.894a10.441,10.441,0,0,1,4.8,8.3l0,82.16a3.861,3.861,0,0,1-1.7,3.56A3.075,3.075,0,0,1,1210.629,597.538ZM1156.66,475.193a1.416,1.416,0,0,0-.716.176,2.323,2.323,0,0,0-.858,2.1v82.16a8.871,8.871,0,0,0,3.955,6.842l50.048,28.9a1.85,1.85,0,0,0,3.107-1.791l0-82.162a8.872,8.872,0,0,0-3.959-6.839L1158.2,475.677A3.179,3.179,0,0,0,1156.66,475.193Z" transform="translate(-1153.404 -473.504)" fill="#c1c1c1"/>
      </g>
      <g id="Group_3628" data-name="Group 3628" transform="translate(9.361 26.932)">
        <path id="Path_3331" data-name="Path 3331" d="M1210.668,590.679c.007.68-.466.947-1.042.614l-39.662-22.9a2.316,2.316,0,0,1-1.048-1.818h0c0-.664.469-.937,1.048-.6l39.659,22.9a2.3,2.3,0,0,1,1.045,1.811Zm-7.286,5.477c0,.671-.466.943-1.048.6l-32.37-18.691a2.3,2.3,0,0,1-1.045-1.811h0c0-.667.463-.943,1.049-.6l32.367,18.683a2.324,2.324,0,0,1,1.048,1.815Zm-7.288-9.048a2.326,2.326,0,0,0-1.045-1.815l-25.085-14.482c-.575-.332-1.045-.06-1.048.6h0a2.31,2.31,0,0,0,1.048,1.815l25.085,14.488c.579.336,1.045.059,1.045-.608Zm14.577-13.364c0,.668-.467.94-1.045.608l-39.662-22.9a2.317,2.317,0,0,1-1.048-1.815h0c0-.661.473-.937,1.048-.6l39.662,22.9a2.309,2.309,0,0,1,1.045,1.812Zm-7.285,5.47c-.007.667-.473.941-1.049.615l-32.373-18.7a2.3,2.3,0,0,1-1.045-1.812h0c0-.67.461-.944,1.045-.608l32.373,18.693a2.329,2.329,0,0,1,1.049,1.811Zm-7.3-9.051a2.282,2.282,0,0,0-1.042-1.8l-25.085-14.491c-.578-.332-1.048-.059-1.048.608h0a2.326,2.326,0,0,0,1.051,1.821l25.074,14.476c.585.336,1.052.066,1.049-.608Zm-6.3-50.211c-7.351-4.241-13.308-.812-13.308,7.667s5.954,18.792,13.3,23.036,13.315.812,13.311-7.667l-13.307-7.683Z" transform="translate(-1168.916 -518.135)" fill="#dee1e9"/>
      </g>
      <path id="Path_3332" data-name="Path 3332" d="M1208.337,518.358l0,15.357,13.308,7.676C1221.652,532.919,1215.691,522.606,1208.337,518.358Z" transform="translate(-1175.188 -491.291)" fill="#5b6b91"/>
    </g>
    <g id="Group_3632" data-name="Group 3632" transform="translate(744.628 266.973)">
      <g id="Group_3630" data-name="Group 3630">
        <path id="Path_3333" data-name="Path 3333" d="M746.022,334.756a9.665,9.665,0,0,0,4.376,7.568l50.051,28.9c2.413,1.39,4.369.264,4.369-2.524V347.038a9.66,9.66,0,0,0-4.372-7.572L750.4,310.572c-2.416-1.394-4.376-.263-4.372,2.528Z" transform="translate(-745.181 -309.13)" fill="#fff"/>
        <path id="Path_3334" data-name="Path 3334" d="M801.848,372.108a4.8,4.8,0,0,1-2.373-.711l-50.051-28.9a10.457,10.457,0,0,1-4.8-8.3h0l0-21.655a3.488,3.488,0,0,1,5.635-3.257l50.047,28.9a10.45,10.45,0,0,1,4.793,8.3v21.661a3.862,3.862,0,0,1-1.7,3.557A3.075,3.075,0,0,1,801.848,372.108ZM746.311,334.2a8.884,8.884,0,0,0,3.956,6.839l50.05,28.9a1.853,1.853,0,0,0,3.107-1.795V346.483a8.882,8.882,0,0,0-3.951-6.843l-50.048-28.9a1.855,1.855,0,0,0-3.11,1.8Z" transform="translate(-744.628 -308.574)" fill="#c1c1c1"/>
      </g>
      <g id="Group_3631" data-name="Group 3631" transform="translate(9.36 14.123)">
        <path id="Path_3335" data-name="Path 3335" d="M801.9,356.833c0,.669-.47.943-1.049.608l-39.661-22.9a2.321,2.321,0,0,1-1.049-1.818h0c0-.664.473-.937,1.049-.6l39.661,22.9a2.326,2.326,0,0,1,1.049,1.816Zm-7.292,5.469c0,.68-.469.94-1.048.608l-32.37-18.685a2.339,2.339,0,0,1-1.049-1.822h0c0-.656.47-.934,1.049-.6l32.372,18.686a2.3,2.3,0,0,1,1.046,1.809Zm-7.285-9.045a2.323,2.323,0,0,0-1.046-1.81L761.194,336.97c-.585-.343-1.055-.074-1.052.6h0a2.313,2.313,0,0,0,1.048,1.819l25.081,14.483c.579.326,1.052.063,1.049-.611Z" transform="translate(-760.139 -331.978)" fill="#dee1e9"/>
      </g>
    </g>
  </g>
</svg>
