<svg id="Layer_1" data-name="Layer 1" xmlns="http://www.w3.org/2000/svg" viewBox="0 0 100 100"><path d="M70.4,1.58A2,2,0,0,0,69,1H19.5a8.66,8.66,0,0,0-8.64,8.64V88.78C10.86,94.41,15.19,99,20.5,99h59c5.3,0,9.61-4.59,9.61-10.22V21.15a2,2,0,0,0-.59-1.42C81.82,13,74.17,5.33,70.4,1.58Zm14.74,87.2c0,3.43-2.52,6.22-5.61,6.22h-59c-3.11,0-5.64-2.79-5.64-6.22V9.64A4.65,4.65,0,0,1,19.5,5H68.17c3.81,3.8,10.72,10.71,17,17Z"/><path d="M49.62,38H67.53a2,2,0,0,0,2-2A19.93,19.93,0,0,0,49.62,16.1a2,2,0,0,0-2,2V36A2,2,0,0,0,49.62,38Zm2-17.79A15.94,15.94,0,0,1,65.41,34H51.62Z"/><path d="M35.32,69a2,2,0,0,0,2,2H74.21a2,2,0,1,0,0-4H37.32A2,2,0,0,0,35.32,69Z"/><path d="M30,67H28a2,2,0,0,0,0,4h2a2,2,0,0,0,0-4Z"/><path d="M74.21,77.57H37.32a2,2,0,1,0,0,4H74.21a2,2,0,0,0,0-4Z"/><path d="M30,77.57H28a2,2,0,0,0,0,4h2a2,2,0,0,0,0-4Z"/><path d="M49.62,55.93a19.8,19.8,0,0,0,17.81-11,2,2,0,0,0-3.58-1.79A15.91,15.91,0,1,1,42.51,21.77a2,2,0,1,0-1.79-3.58,19.92,19.92,0,0,0,8.9,37.74Z"/></svg>