<svg id="Layer_1" data-name="Layer 1" xmlns="http://www.w3.org/2000/svg" viewBox="0 0 100 100"><path d="M50.22,37.59a2,2,0,0,0-2,2V42a2,2,0,1,0,4,0V39.59A2,2,0,0,0,50.22,37.59Z"/><path d="M98.14,38.22,75.21,22.38h0a2.69,2.69,0,0,0-.29-.16l-.06,0-.07,0a1.94,1.94,0,0,0-.7-.14H53.6l-1.81-1.25a2,2,0,0,0-2.27,0l-1.94,1.34A2.11,2.11,0,0,0,47,22H25.92a2.58,2.58,0,0,0-.39,0h0l-.27.08-.11,0-.06,0a2.69,2.69,0,0,0-.29.16h0L1.86,38.22A2,2,0,0,0,3,41.86H5.75V75.58H3.89a2,2,0,0,0,0,4H96.11a2,2,0,0,0,0-4H94.25V41.86H97a2,2,0,0,0,1.14-3.64ZM9.75,41.86h4.71a2,2,0,0,0,0-4H9.41L26.55,26H41.92L19.65,41.41a2,2,0,1,0,2.27,3.29l.87-.59V75.58h-13ZM35.9,75.58V59.34h7.66V75.58Zm21.87,0V59.34h7.66V75.58Zm11.66,0V57.34a2,2,0,0,0-2-2H55.77a2,2,0,0,0-2,2V75.58H47.56V57.34a2,2,0,0,0-2-2H33.9a2,2,0,0,0-2,2V75.58H26.79V41.34L50.65,24.85,74.54,41.36V75.58Zm20.82,0H78.54V44.12l.85.58a2,2,0,0,0,2.78-.51,2,2,0,0,0-.51-2.78L59.39,26H73.45L90.59,37.86h-5a2,2,0,0,0,0,4h4.71Z"/><path d="M16.27,54.33a2,2,0,0,0-2,2v4.42a2,2,0,0,0,4,0V56.33A2,2,0,0,0,16.27,54.33Z"/><path d="M82.4,56.33v4.42a2,2,0,0,0,4,0V56.33a2,2,0,0,0-4,0Z"/></svg>