<svg id="Layer_1" data-name="Layer 1" xmlns="http://www.w3.org/2000/svg" viewBox="0 0 100 100"><path d="M17.35,64.13a2,2,0,0,0-2,2v4.06a2,2,0,1,0,4,0V66.13A2,2,0,0,0,17.35,64.13Z"/><path d="M82.65,72.19a2,2,0,0,0,2-2V66.13a2,2,0,0,0-4,0v4.06A2,2,0,0,0,82.65,72.19Z"/><path d="M61.84,46.06a2,2,0,0,0,2-2V40.17a2,2,0,0,0-4,0v3.89A2,2,0,0,0,61.84,46.06Z"/><path d="M73.06,46.06a2,2,0,0,0,2-2V40.17a2,2,0,0,0-4,0v3.89A2,2,0,0,0,73.06,46.06Z"/><path d="M27.53,46.06a2,2,0,0,0,2-2V40.17a2,2,0,0,0-4,0v3.89A2,2,0,0,0,27.53,46.06Z"/><path d="M38.75,46.06a2,2,0,0,0,2-2V40.17a2,2,0,0,0-4,0v3.89A2,2,0,0,0,38.75,46.06Z"/><path d="M50,48.51a2,2,0,0,0,2-2V23.93a2,2,0,0,0-4,0V46.51A2,2,0,0,0,50,48.51Z"/><path d="M97,83.1H94.22V57.38a2,2,0,0,0-2-2H90.39v-14l.81.48a1.94,1.94,0,0,0,1,.29,2,2,0,0,0,1-3.72L51,13.18a2,2,0,0,0-2.06,0L6.74,38.45A2,2,0,1,0,8.8,41.88l.82-.49v14H7.77a2,2,0,0,0-2,2V83.1H3a2,2,0,0,0,0,4H97a2,2,0,0,0,0-4ZM9.77,59.39H19.85a2,2,0,1,0,0-4H13.62V39L50,17.23,86.39,39V55.38H80.15a2,2,0,0,0,0,4H90.22V83.1H75.07V57.38s0,0,0,0V53.7a2,2,0,0,0-2-2H26.94a2,2,0,0,0-2,2V83.1H9.77ZM37.06,83.1v-15h6.39v15Zm19.49,0v-15h6.39v15Zm10.39,0v-17a2,2,0,0,0-2-2H54.55a2,2,0,0,0-2,2v17h-5.1v-17a2,2,0,0,0-2-2H35.06a2,2,0,0,0-2,2v17H28.94V55.7H71.06V83.1Z"/></svg>