<svg id="Layer_1" data-name="Layer 1" xmlns="http://www.w3.org/2000/svg" viewBox="0 0 100 100"><path d="M81.23,39.53c-5-.41-11.64-.59-13.71-.64C65,37.06,54.51,30,41,30c-12.8,0-26,7.29-28.74,8.89h-7a2,2,0,0,0-2,2v3.32a6.63,6.63,0,0,0-2.26,5v6.48a6.73,6.73,0,0,0,4.81,6.42l7,2.05a2.12,2.12,0,0,0,.43.06,9.72,9.72,0,0,0,17.48.44h39a9.72,9.72,0,0,0,17.77-1.14c.9-.06,1.93-.12,2.37-.12,2.57,0,6.81-1.84,7.64-2.2a2,2,0,0,0,1.18-2l-.35-3.87.37-.56A2.05,2.05,0,0,0,99,53.72V47.54C99,43,84.87,39.82,81.23,39.53ZM22.11,66a5.74,5.74,0,1,1,5.73-5.73A5.74,5.74,0,0,1,22.11,66Zm56.23,0a5.74,5.74,0,1,1,5.74-5.73A5.74,5.74,0,0,1,78.34,66ZM95,53.14l-.41.64A2,2,0,0,0,94.28,55l.27,3.09a17.69,17.69,0,0,1-4.7,1.31c-.36,0-.94,0-1.81.08a9.73,9.73,0,0,0-19.43.71c0,.16,0,.31,0,.47H31.82c0-.16,0-.31,0-.47a9.73,9.73,0,0,0-19.45-.32l-5.46-1.6A2.69,2.69,0,0,1,5,55.73V49.25a2.67,2.67,0,0,1,1-2l.63-.56a2,2,0,0,0,.68-1.5V42.93h5.58a2,2,0,0,0,1.05-.3C14,42.55,28.11,34,41,34c13.72,0,24.45,8.32,24.55,8.4a2,2,0,0,0,1.2.43c.09,0,8.23.17,14.11.64C86.21,44,93.47,46.74,95,48Z"/><path d="M57,42.21H33.89l-2.36-2.12a2,2,0,0,0-2.67,3l2.92,2.63a2,2,0,0,0,1.34.52H57a2,2,0,0,0,0-4Z"/></svg>