<svg id="Layer_1" data-name="Layer 1" xmlns="http://www.w3.org/2000/svg" viewBox="0 0 100 100"><path d="M9.56,67.62h1.72a10.21,10.21,0,0,0,20,0H68.69a10.21,10.21,0,0,0,20,0h1.72A8.57,8.57,0,0,0,99,59.06V52.59a7.35,7.35,0,0,0-4.93-6.94L78.31,40.14l-15.1-12a18.19,18.19,0,0,0-11.28-3.94H34A18.08,18.08,0,0,0,21.73,29l-9.5,8.78H9a6.14,6.14,0,0,0-6.13,6.13V48.3l-.38.39A5.28,5.28,0,0,0,1,52.43v6.63A8.57,8.57,0,0,0,9.56,67.62Zm11.73,4.21a6.22,6.22,0,0,1-6.21-6.21h0a6.22,6.22,0,1,1,6.21,6.22Zm57.42,0a6.22,6.22,0,1,1,6.21-6.22h0A6.22,6.22,0,0,1,78.71,71.83ZM9,41.75h4a2,2,0,0,0,1.36-.53l10.08-9.31A14.06,14.06,0,0,1,34,28.17H51.93a14.17,14.17,0,0,1,8.79,3.07l11.8,9.41-23.38,0V32.9a2,2,0,1,0-4,0v7.73H33l3.12-6.89a2,2,0,1,0-3.65-1.65l-3.15,7A4.07,4.07,0,0,0,33,44.65H78.71a2.85,2.85,0,0,0,.29,0l13.75,4.8a3.39,3.39,0,0,1,1.94,1.77H92.58a2,2,0,1,0,0,4H95v3.87a4.56,4.56,0,0,1-4.56,4.56H88.72a10.21,10.21,0,0,0-20,0H31.31a10.21,10.21,0,0,0-20,0H9.56A4.56,4.56,0,0,1,5,59.06V52.43a1.31,1.31,0,0,1,.38-.94l1-1a2,2,0,0,0,.57-1.4v-.67H9.23a2,2,0,1,0,0-4H6.91v-.56A2.13,2.13,0,0,1,9,41.75Z"/><path d="M53.08,52.47h4.26a2,2,0,0,0,0-4H53.08a2,2,0,0,0,0,4Z"/></svg>