<svg id="Layer_1" data-name="Layer 1" xmlns="http://www.w3.org/2000/svg" viewBox="0 0 100 100"><path d="M50.49,90.88H16.65a6.38,6.38,0,0,1-6.37-6.36v-52H79.15V54.23a2,2,0,0,0,4,0V11.36A10.37,10.37,0,0,0,72.79,1H16.38A10.11,10.11,0,0,0,6.28,11.09V84.52A10.38,10.38,0,0,0,16.65,94.88H50.49a2,2,0,1,0,0-4ZM16.38,5H72.79a6.37,6.37,0,0,1,6.36,6.36V28.49H10.28V11.09A6.1,6.1,0,0,1,16.38,5Z"/><path d="M33.22,69.53a2,2,0,0,0-2.83,0L27.62,72.3l-2.78-2.77A2,2,0,1,0,22,72.35l2.78,2.78L22,77.9a2,2,0,1,0,2.83,2.83L27.62,78l2.77,2.77a2,2,0,0,0,2.83-2.83l-2.78-2.77,2.78-2.78A2,2,0,0,0,33.22,69.53Z"/><path d="M69.74,50.05a2,2,0,0,0-2-2H55.58a2,2,0,0,0,0,4H67.74A2,2,0,0,0,69.74,50.05Z"/><path d="M35.86,50.05a2,2,0,0,0-2-2H29.78V44a2,2,0,0,0-4,0v4.08H21.7a2,2,0,0,0,0,4h4.08v4.08a2,2,0,0,0,4,0V52.05h4.08A2,2,0,0,0,35.86,50.05Z"/><path d="M74.71,59.44c-9.21,0-19,3.18-19,9.06V89.94c0,6,9.56,9.06,19,9.06s19-3.11,19-9.06V68.5C93.72,62.62,83.92,59.44,74.71,59.44Zm15,19.78c0,.76-1,2.07-4,3.24h0a30.74,30.74,0,0,1-11,1.82,32.2,32.2,0,0,1-10.3-1.55h0c-3.25-1.14-4.7-2.58-4.7-3.51v-5c3.66,2.18,9.34,3.31,15,3.31s11.35-1.13,15-3.31Zm-15-15.78c9,0,15,3,15,5.06s-6,5.07-15,5.07-15-3-15-5.07S65.69,63.44,74.71,63.44Zm0,31.56c-9,0-15-3-15-5.06V85a18.69,18.69,0,0,0,3.38,1.55h0a36.37,36.37,0,0,0,11.62,1.77,34.86,34.86,0,0,0,12.52-2.11h0a16.85,16.85,0,0,0,2.48-1.23v5C89.72,92,83.73,95,74.71,95Z"/><path d="M19.88,19a2,2,0,0,0,2-2,2.56,2.56,0,0,0,0-.39,2.4,2.4,0,0,0-.12-.38,2.21,2.21,0,0,0-.18-.34,1.87,1.87,0,0,0-.56-.56,1.83,1.83,0,0,0-.34-.18,1.73,1.73,0,0,0-.37-.11,1.76,1.76,0,0,0-.79,0,1.73,1.73,0,0,0-.37.11,1.83,1.83,0,0,0-.34.18,1.87,1.87,0,0,0-.56.56,2.21,2.21,0,0,0-.18.34,2.4,2.4,0,0,0-.12.38,2.56,2.56,0,0,0,0,.39,2,2,0,0,0,2,2Z"/><path d="M27.28,18.67a2.37,2.37,0,0,0,.35.19L28,19a2.58,2.58,0,0,0,.39,0,2,2,0,0,0,.77-.15,2,2,0,0,0,.65-.44A2,2,0,0,0,30.39,17a1.72,1.72,0,0,0,0-.39,1.66,1.66,0,0,0-.11-.38,2.21,2.21,0,0,0-.18-.34,3.76,3.76,0,0,0-.25-.31,2.6,2.6,0,0,0-.31-.25,1.83,1.83,0,0,0-.34-.18,1.66,1.66,0,0,0-.38-.11,1.71,1.71,0,0,0-.78,0,1.73,1.73,0,0,0-.37.11,2.31,2.31,0,0,0-.35.18,2.48,2.48,0,0,0-.3.25,1.89,1.89,0,0,0-.25.31,2.21,2.21,0,0,0-.18.34,2.4,2.4,0,0,0-.12.38,2.58,2.58,0,0,0,0,.39A2,2,0,0,0,27,18.42,2.34,2.34,0,0,0,27.28,18.67Z"/><path d="M36.91,19a2.71,2.71,0,0,0,.4,0l.37-.11a2.27,2.27,0,0,0,.34-.19,2.42,2.42,0,0,0,.31-.25A2,2,0,0,0,38.91,17a1.72,1.72,0,0,0,0-.39,1.66,1.66,0,0,0-.11-.38,1.63,1.63,0,0,0-.19-.34,2.34,2.34,0,0,0-.24-.31L38,15.34a2.21,2.21,0,0,0-.34-.18,1.66,1.66,0,0,0-.38-.11,2,2,0,0,0-1.8.54,1.48,1.48,0,0,0-.25.31,2.27,2.27,0,0,0-.19.34,2.38,2.38,0,0,0-.11.38,1.72,1.72,0,0,0,0,.39,2,2,0,0,0,2,2Z"/></svg>