<svg id="Layer_1" data-name="Layer 1" xmlns="http://www.w3.org/2000/svg" viewBox="0 0 100 100"><path d="M55.78,10.31A9.31,9.31,0,1,0,65.09,1,9.32,9.32,0,0,0,55.78,10.31Zm14.62,0A5.31,5.31,0,1,1,65.09,5,5.31,5.31,0,0,1,70.4,10.31Z"/><path d="M98.13,33.27,81.68,22a2,2,0,0,0-2.29,0l-17,12L33.8,14.16a2,2,0,0,0-2.28,0L1.86,34.77a2,2,0,0,0,2.28,3.29L32.66,18.24,58.87,36.43l-6.25,4.39a2,2,0,0,0,2.3,3.28l25.64-18L95.87,36.57a2,2,0,1,0,2.26-3.3Z"/><path d="M96,93.93H90.75V85.79a2,2,0,0,0,.39-1.18,2,2,0,0,0-.39-1.19V77.16a2,2,0,0,0-4,0v5.45h-14V77.16a2,2,0,0,0-4,0v5.45H56.79V67.38A2,2,0,0,0,59,64.07L33.28,42.92a2,2,0,0,0-2.54,0l-6.12,5V44.51a2,2,0,0,0-2-2H13.08a2,2,0,0,0-2,2V59.08L5,64.07a2,2,0,0,0,2.21,3.31V93.93H3a2,2,0,0,0,0,4H96a2,2,0,1,0,0-4Zm-9.23-7.32v7.32h-14V86.61Zm-18,0v7.32H56.79V86.61ZM15.08,46.51h5.54v4.72l-5.54,4.56ZM37.73,93.93H26.28a1.89,1.89,0,0,0,.14-.72v-12A3.22,3.22,0,0,1,29.64,78h4.51a3.44,3.44,0,0,1,3.44,3.44V93.21A1.89,1.89,0,0,0,37.73,93.93Zm3.72,0a1.89,1.89,0,0,0,.14-.72V81.44A7.45,7.45,0,0,0,34.15,74H29.64a7.23,7.23,0,0,0-7.22,7.22v12a1.89,1.89,0,0,0,.14.72H11.22V64.14L32,47.06,52.79,64.14V93.93Z"/></svg>