<svg xmlns="http://www.w3.org/2000/svg" viewBox="0 0 90 90"><g id="Layer_2" data-name="Layer 2"><g id="Layer_1-2" data-name="Layer 1"><g id="crane"><path id="Path_1" data-name="Path 1" d="M25.5,51h3v3h-3Z"/><path id="Path_2" data-name="Path 2" d="M31.5,51h3v3h-3Z"/><path id="Path_3" data-name="Path 3" d="M37.5,51h3v3h-3Z"/><path id="Path_4" data-name="Path 4" d="M25.5,57h3v3h-3Z"/><path id="Path_5" data-name="Path 5" d="M31.5,57h3v3h-3Z"/><path id="Path_6" data-name="Path 6" d="M37.5,57h3v3h-3Z"/><path id="Path_7" data-name="Path 7" d="M43.5,57h3v3h-3Z"/><path id="Path_8" data-name="Path 8" d="M49.5,57h3v3h-3Z"/><path id="Path_9" data-name="Path 9" d="M25.5,63h3v3h-3Z"/><path id="Path_10" data-name="Path 10" d="M31.5,63h3v3h-3Z"/><path id="Path_11" data-name="Path 11" d="M37.5,63h3v3h-3Z"/><path id="Path_12" data-name="Path 12" d="M43.5,63h3v3h-3Z"/><path id="Path_13" data-name="Path 13" d="M49.5,63h3v3h-3Z"/><path id="Path_14" data-name="Path 14" d="M25.5,69h3v3h-3Z"/><path id="Path_15" data-name="Path 15" d="M31.5,69h3v3h-3Z"/><path id="Path_16" data-name="Path 16" d="M37.5,69h3v3h-3Z"/><path id="Path_17" data-name="Path 17" d="M43.5,69h3v3h-3Z"/><path id="Path_18" data-name="Path 18" d="M49.5,69h3v3h-3Z"/><path id="Path_19" data-name="Path 19" d="M25.5,75h3v3h-3Z"/><path id="Path_20" data-name="Path 20" d="M31.5,75h3v3h-3Z"/><path id="Path_21" data-name="Path 21" d="M37.5,75h3v3h-3Z"/><path id="Path_22" data-name="Path 22" d="M43.5,75h3v3h-3Z"/><path id="Path_23" data-name="Path 23" d="M49.5,75h3v3h-3Z"/><path id="Path_24" data-name="Path 24" d="M25.5,81h3v3h-3Z"/><path id="Path_25" data-name="Path 25" d="M31.5,81h3v3h-3Z"/><path id="Path_26" data-name="Path 26" d="M37.5,81h3v3h-3Z"/><path id="Path_27" data-name="Path 27" d="M43.5,81h3v3h-3Z"/><path id="Path_28" data-name="Path 28" d="M49.5,81h3v3h-3Z"/><path id="Path_29" data-name="Path 29" d="M88.5,4.5H78v-3A1.5,1.5,0,0,0,76.5,0h-15A1.5,1.5,0,0,0,60,1.5v3H1.5A1.5,1.5,0,0,0,0,6v6a1.5,1.5,0,0,0,1.5,1.5H6V42a1.5,1.5,0,0,0,1.5,1.5A1.5,1.5,0,1,1,6,45H3a4.4,4.4,0,0,0,1.15,3L.3,53.1h0A1.53,1.53,0,0,0,0,54v6a1.5,1.5,0,0,0,.44,1.06l3,3a1.5,1.5,0,0,0,1.06.44h6a1.5,1.5,0,0,0,1.06-.44l3-3A1.5,1.5,0,0,0,15,60V54a1.48,1.48,0,0,0-.32-.88l0,0L10.85,48a4.45,4.45,0,0,0-.33-6.31A4.35,4.35,0,0,0,9,40.76V13.5H60V15a1.5,1.5,0,0,0,1.5,1.5h3V87h-6V27h-3v6h-9V30h-3v3h-9V31.5h-3V33h-9V28.5H42v-3H22.5v-6h-3V87H17.12l-7.06-7.06a1.49,1.49,0,0,0-2.12,0L.88,87H0v3H90V87H88.83a4.46,4.46,0,0,0-.28-6.3,4.51,4.51,0,0,0-1.88-1,4.5,4.5,0,1,0-8.34,0A4.45,4.45,0,0,0,76.17,87H73.5V16.5h3A1.5,1.5,0,0,0,78,15V13.5H88.5A1.5,1.5,0,0,0,90,12V6A1.5,1.5,0,0,0,88.5,4.5ZM8.25,49.5l2.25,3h-6l2.25-3ZM12,59.38,9.88,61.5H5.12L3,59.38V55.5h9ZM82.05,7.5l-4,2.7V7.5ZM63,3h6V9H63ZM22.5,7.8l4.05,2.7h-8.1Zm-9,2.4L9.45,7.5h8.1Zm14-2.7h8.1l-4,2.7Zm13.05.3,4,2.7h-8.1Zm5-.3h8.1l-4,2.7ZM3,7.5h1l4.5,3H3Zm51.45,3,4.5-3h1v3Zm16,71.55-2.7-4,2.7-4Zm0-36-2.7-4,2.7-4Zm-3,.9,2.7,4-2.7,4Zm0-9.9V29L70.2,33Zm0,27.9,2.7,4-2.7,4Zm3-.91-2.7-4,2.7-4ZM67.8,24,70.5,20v8.1Zm-.3-4.95V16.5h1.7Zm-12,17V51h-9V36Zm-12,0V48.9l-3.45-3.41a1.48,1.48,0,0,0-1-.43H34.5V36Zm-12,0v2.5h-9V36ZM9,83.12,12.88,87H5.12ZM22.5,87V41.5h9v5.06a1.5,1.5,0,0,0,1.5,1.5h5.38L44,53.56A1.49,1.49,0,0,0,45,54H55.5V87Zm45-4,2.7,4H67.5Zm18,2.55A1.5,1.5,0,1,1,87,84,1.5,1.5,0,0,1,85.5,85.5Zm-3-9A1.5,1.5,0,1,1,81,78,1.5,1.5,0,0,1,82.5,76.5Zm-3,6A1.5,1.5,0,1,1,78,84,1.5,1.5,0,0,1,79.5,82.5ZM75,13.5H63V12h7.5A1.5,1.5,0,0,0,72,10.5V3h3Zm8-3,4-2.7v2.7Z"/></g></g></g></svg>