<svg xmlns="http://www.w3.org/2000/svg" viewBox="0 0 94 94"><g id="Layer_2" data-name="Layer 2"><g id="Layer_1-2" data-name="Layer 1"><g id="Building-Construction_Construction_construction-building" data-name="Building-Construction Construction construction-building"><g id="Group_51" data-name="Group 51"><g id="construction-building"><path d="M38,67a2,2,0,0,1-2-2V25H28V65a2,2,0,0,1-4,0V23a2,2,0,0,1,2-2H38a2,2,0,0,1,2,2V65A2,2,0,0,1,38,67Z"/><path d="M80,43a2,2,0,0,1-2-2V23a2,2,0,0,1,4,0V41A2,2,0,0,1,80,43Z"/><path d="M80,25H2a2,2,0,0,1,0-4H80a2,2,0,0,1,0,4Z"/><path d="M89,94H5a5,5,0,0,1-5-5V80a5,5,0,0,1,5-5H89a5,5,0,0,1,5,5v9A5,5,0,0,1,89,94ZM5,79a1,1,0,0,0-1,1v9a1,1,0,0,0,1,1H89a1,1,0,0,0,1-1V80a1,1,0,0,0-1-1Z"/><path d="M83,79a2,2,0,0,1-2-2V59a2,2,0,0,1,4,0V77A2,2,0,0,1,83,79Z"/><path d="M71,79a2,2,0,0,1-2-2V59a2,2,0,0,1,4,0V77A2,2,0,0,1,71,79Z"/><path d="M59,79a2,2,0,0,1-2-2V59a2,2,0,0,1,4,0V77A2,2,0,0,1,59,79Z"/><path d="M80,25a1.81,1.81,0,0,1-.72-.14L26.41,4.3,3.32,24.5a2,2,0,0,1-2.64-3l24-21a2,2,0,0,1,2-.36l54,21A2,2,0,0,1,80,25Z"/><path d="M26,25a2,2,0,0,1-2-2V2a2,2,0,0,1,4,0V23A2,2,0,0,1,26,25Z"/></g></g></g></g></g></svg>