<svg xmlns="http://www.w3.org/2000/svg" viewBox="0 0 94 94"><g id="Layer_2" data-name="Layer 2"><g id="Layer_1-2" data-name="Layer 1"><g id="Money-Payments-Finance_Credit-Card-Payments_credit-card" data-name="Money-Payments-Finance Credit-Card-Payments credit-card"><g id="Group_177" data-name="Group 177"><g id="credit-card"><path d="M92,55a2,2,0,0,1-2-2V8a4,4,0,0,0-4-4H20a4,4,0,0,0-4,4V23a2,2,0,0,1-4,0V8a8,8,0,0,1,8-8H86a8,8,0,0,1,8,8V53A2,2,0,0,1,92,55Z"/><path d="M92,22H14a2,2,0,0,1,0-4H92a2,2,0,0,1,0,4Z"/><path d="M74,94H8a8,8,0,0,1-8-8V41a8,8,0,0,1,8-8H74a8,8,0,0,1,8,8V86A8,8,0,0,1,74,94ZM8,37a4,4,0,0,0-4,4V86a4,4,0,0,0,4,4H74a4,4,0,0,0,4-4V41a4,4,0,0,0-4-4Z"/><path d="M80,55H2a2,2,0,0,1,0-4H80a2,2,0,0,1,0,4Z"/><path d="M23,73H14a2,2,0,0,1,0-4h9a2,2,0,0,1,0,4Z"/><path d="M60.52,82a8.89,8.89,0,0,1-1.36-.1,9.36,9.36,0,0,1-4.66-2l-.3.23a9.5,9.5,0,1,1,.3-15l.3-.23a9.5,9.5,0,0,1,15.1,8.94A9.49,9.49,0,0,1,60.52,82Zm-6-7a2,2,0,0,1,1.6.8,5.5,5.5,0,0,0,8.8-6.6,5.5,5.5,0,0,0-7.7-1.1,5.21,5.21,0,0,0-1.1,1.1,2.07,2.07,0,0,1-3.2,0,5.5,5.5,0,1,0-1.1,7.7,5.21,5.21,0,0,0,1.1-1.1A2,2,0,0,1,54.5,75Z"/></g></g></g></g></g></svg>