<svg xmlns="http://www.w3.org/2000/svg" viewBox="0 0 94 94"><g id="Layer_2" data-name="Layer 2"><g id="Layer_1-2" data-name="Layer 1"><g id="Building-Construction_Construction_construction-brick" data-name="Building-Construction Construction construction-brick"><g id="Group_50" data-name="Group 50"><g id="construction-brick"><path d="M32,76H2a2,2,0,0,1,0-4H32a2,2,0,0,1,0,4Z"/><path d="M92,76H80a2,2,0,0,1,0-4H92a2,2,0,0,1,0,4Z"/><path d="M32,58H2a2,2,0,0,1,0-4H32a2,2,0,0,1,0,4Z"/><path d="M44,40H2a2,2,0,0,1,0-4H44a2,2,0,0,1,0,4Z"/><path d="M92,94H8a8,8,0,0,1-8-8V26a8,8,0,0,1,8-8H50a2,2,0,0,1,0,4H8a4,4,0,0,0-4,4V86a4,4,0,0,0,4,4H92a2,2,0,0,1,0,4Z"/><path d="M74.57,28.26a6,6,0,0,1-4.24-1.76L67.5,23.68a6,6,0,0,1,0-8.49.08.08,0,0,0,0,0L80.93,1.76a6,6,0,0,1,8.49,0l0,0,2.8,2.79a6,6,0,0,1,0,8.49L78.81,26.5A6,6,0,0,1,74.57,28.26ZM70.3,18a2,2,0,0,0,0,2.81l2.83,2.83a2,2,0,0,0,2.82,0L89.42,10.24a2,2,0,0,0,0-2.83L86.59,4.58l0,0a2,2,0,0,0-2.8,0L70.33,18Z"/><path d="M68.2,53.25a2,2,0,0,1-1.42-3.42l10.61-10.6a4,4,0,0,0,0-5.65l-8.48-8.49a2,2,0,1,1,2.83-2.83l8.48,8.49a8,8,0,0,1,0,11.31L69.61,52.66A2,2,0,0,1,68.2,53.25Z"/><path d="M48.11,76.36a5,5,0,0,1-4.65-6.86l11.1-27.92,0-.12a7.9,7.9,0,0,1,1.57-2.23,8,8,0,0,1,11.32,0L80.23,52a7.9,7.9,0,0,1,1.57,2.23A8,8,0,0,1,78,64.85l-.12.05L50,76A5.16,5.16,0,0,1,48.11,76.36ZM58.25,43.12,47.18,71h0a1,1,0,0,0,.56,1.3,1,1,0,0,0,.74,0L76.34,61.21a4,4,0,0,0,1.85-5.31,4.32,4.32,0,0,0-.79-1.11L64.67,42.06a4,4,0,0,0-5.66,0A4,4,0,0,0,58.25,43.12ZM45.32,70.24h0Z"/><path d="M20,76a2,2,0,0,1-2-2V56a2,2,0,0,1,4,0V74A2,2,0,0,1,20,76Z"/><path d="M26,58a2,2,0,0,1-2-2V38a2,2,0,0,1,4,0V56A2,2,0,0,1,26,58Z"/><path d="M38,40a2,2,0,0,1-2-2V20a2,2,0,0,1,4,0V38A2,2,0,0,1,38,40Z"/><path d="M26,94a2,2,0,0,1-2-2V74a2,2,0,0,1,4,0V92A2,2,0,0,1,26,94Z"/><path d="M68,94a2,2,0,0,1-2-2V80a2,2,0,0,1,4,0V92A2,2,0,0,1,68,94Z"/></g></g></g></g></g></svg>