<svg xmlns="http://www.w3.org/2000/svg" viewBox="0 0 94 94"><g id="Layer_2" data-name="Layer 2"><g id="Layer_1-2" data-name="Layer 1"><g id="Shopping-E-Commerce_Discounts_Coupons_discount-arrow" data-name="Shopping-E-Commerce Discounts Coupons discount-arrow"><g id="Group_67" data-name="Group 67"><g id="discount-arrow"><path d="M2,94a2,2,0,0,1-1.41-.59,2,2,0,0,1,0-2.82l90-90a2,2,0,0,1,2.82,0,2,2,0,0,1,0,2.82l-90,90A2,2,0,0,1,2,94Z"/><path d="M29,94H2a2,2,0,0,1-2-2V65a2,2,0,0,1,4,0V90H29a2,2,0,0,1,0,4Z"/><path d="M74,82A14,14,0,1,1,88,68,14,14,0,0,1,74,82Zm0-24A10,10,0,1,0,84,68,10,10,0,0,0,74,58Z"/><path d="M26,34A14,14,0,1,1,40,20,14,14,0,0,1,26,34Zm0-24A10,10,0,1,0,36,20,10,10,0,0,0,26,10Z"/></g></g></g></g></g></svg>