<svg xmlns="http://www.w3.org/2000/svg" viewBox="0 0 94 90.4"><g id="Layer_2" data-name="Layer 2"><g id="Layer_1-2" data-name="Layer 1"><g id="Business-Products_Performances_performance-increase-1" data-name="Business-Products Performances performance-increase-1"><g id="Group_145" data-name="Group 145"><g id="performance-increase-1"><path d="M92,90.4H2a2,2,0,0,1,0-4H92a2,2,0,0,1,0,4Z"/><path d="M26,90.4H8a2,2,0,0,1-2-2V68.24a4.93,4.93,0,0,1,5-4.88H23a5,5,0,0,1,3.5,1.38A4.92,4.92,0,0,1,28,68.2V88.4A2,2,0,0,1,26,90.4Zm-16-4H24V68.24a.9.9,0,0,0-.29-.62.92.92,0,0,0-.65-.26H11a.94.94,0,0,0-1,.92Z"/><path d="M56,90.4H38a2,2,0,0,1-2-2v-49a5,5,0,0,1,1.52-3.51A4.91,4.91,0,0,1,41,34.56H53a5,5,0,0,1,5,4.84v49A2,2,0,0,1,56,90.4Zm-16-4H54v-47a.9.9,0,0,0-.29-.62.75.75,0,0,0-.67-.26H41a1,1,0,0,0-.71.26.93.93,0,0,0-.29.66Z"/><path d="M86,90.4H68a2,2,0,0,1-2-2V51a4.93,4.93,0,0,1,5-4.88H83a5,5,0,0,1,5,4.84V88.4A2,2,0,0,1,86,90.4Zm-16-4H84V51a.91.91,0,0,0-1-.88H71a1,1,0,0,0-.71.26A.93.93,0,0,0,70,51Z"/><path d="M92,21.28a2,2,0,0,1-2-2V4H74a2,2,0,0,1,0-4H92a2,2,0,0,1,2,2V19.28A2,2,0,0,1,92,21.28Z"/><path d="M8,44.34a2,2,0,0,1-1.44-.62,2,2,0,0,1,.05-2.83l23.33-22.4a11.22,11.22,0,0,1,10.58-2.73l22.83,5.86a7.34,7.34,0,0,0,7.08-1.68L90.61.56a2,2,0,0,1,2.78,2.88L73.19,22.83a11.32,11.32,0,0,1-10.9,2.65L39.52,19.64a7.21,7.21,0,0,0-6.82,1.75L9.39,43.78A2,2,0,0,1,8,44.34Z"/></g></g></g></g></g></svg>