<svg xmlns="http://www.w3.org/2000/svg" viewBox="0 0 94 94"><g id="Layer_2" data-name="Layer 2"><g id="Layer_1-2" data-name="Layer 1"><g id="Business-Products_Business-Deals_business-deal-cash-exchange" data-name="Business-Products Business-Deals business-deal-cash-exchange"><g id="Group_37" data-name="Group 37"><g id="business-deal-cash-exchange"><path d="M20,25A12.5,12.5,0,1,1,32.5,12.5,12.52,12.52,0,0,1,20,25ZM20,4a8.5,8.5,0,1,0,8.5,8.5A8.51,8.51,0,0,0,20,4Z"/><path d="M28.12,46H2a2,2,0,0,1-2-2A20,20,0,0,1,20,24h0a20,20,0,0,1,14.81,6.57,2,2,0,1,1-3,2.68A16.07,16.07,0,0,0,20,28h0A16,16,0,0,0,4.12,42h24a2,2,0,1,1,0,4Z"/><path d="M74,73a12.42,12.42,0,0,1-9.93-5,2,2,0,0,1,3.19-2.42,8.5,8.5,0,1,0,5.15-13.48,2,2,0,1,1-.76-3.92,12.5,12.5,0,0,1,4.77,24.54A13.3,13.3,0,0,1,74,73Z"/><path d="M92,94H56a2,2,0,0,1-2-2,20,20,0,0,1,40,0A2,2,0,0,1,92,94ZM58.12,90H89.88a16,16,0,0,0-31.76,0Z"/><path d="M49.57,62.88A10.88,10.88,0,0,1,41,58.59a2,2,0,1,1,3.19-2.42,7,7,0,0,0,5.76,2.71c3.46,0,6.33-1.92,6.33-4.19S53.38,50.5,50,50.5c-5.65,0-10.25-3.67-10.25-8.19s4.6-8.19,10.25-8.19a10.86,10.86,0,0,1,9,4.29,2,2,0,1,1-3.19,2.42,6.81,6.81,0,0,0-5.75-2.71c-3.47,0-6.33,1.92-6.33,4.19S46.61,46.5,50,46.5c5.65,0,10.25,3.67,10.25,8.19S55.65,62.88,50,62.88Z"/><path d="M50,67a2,2,0,0,1-2-2V60.88a2,2,0,1,1,4,0V65A2,2,0,0,1,50,67Z"/><path d="M50,38.12a2,2,0,0,1-2-2V32a2,2,0,0,1,4,0v4.12A2,2,0,0,1,50,38.12Z"/><path d="M29,91a2,2,0,0,1-1.41-.58l-9-9a2,2,0,0,1,0-2.83l9-9a2,2,0,1,1,2.82,2.83L22.83,80l7.58,7.59A2,2,0,0,1,29,91Z"/><path d="M41,82H20a2,2,0,0,1,0-4H41a2,2,0,0,1,0,4Z"/><path d="M65,25a2,2,0,0,1-1.41-3.41L71.17,14,63.59,6.42a2,2,0,0,1,2.82-2.83l9,9a2,2,0,0,1,0,2.83l-9,9A2,2,0,0,1,65,25Z"/><path d="M74,16H53a2,2,0,0,1,0-4H74a2,2,0,0,1,0,4Z"/></g></g></g></g></g></svg>