<svg xmlns="http://www.w3.org/2000/svg" viewBox="0 0 82 94"><g id="Layer_2" data-name="Layer 2"><g id="Layer_1-2" data-name="Layer 1"><g id="Money-Payments-Finance_Accounting_Billing_accounting-document" data-name="Money-Payments-Finance Accounting Billing accounting-document"><g id="Group_6" data-name="Group 6"><g id="accounting-document"><path d="M74,94H8a8,8,0,0,1-8-8V8A8,8,0,0,1,8,0H50.52a7.94,7.94,0,0,1,5.65,2.34L79.66,25.83A7.94,7.94,0,0,1,82,31.48V86A8,8,0,0,1,74,94ZM8,4A4,4,0,0,0,4,8V86a4,4,0,0,0,4,4H74a4,4,0,0,0,4-4V31.48a4,4,0,0,0-1.17-2.82L53.34,5.17A4,4,0,0,0,50.51,4Z"/><path d="M80,34H56a8,8,0,0,1-8-8V2a2,2,0,0,1,4,0V26a4,4,0,0,0,4,4H80a2,2,0,0,1,0,4Z"/><path d="M24.81,50.88a10.87,10.87,0,0,1-8.6-4.29,2,2,0,0,1,3.18-2.43,6.88,6.88,0,0,0,5.76,2.72c3.47,0,6.33-1.92,6.33-4.19s-2.85-4.19-6.23-4.19C19.6,38.5,15,34.83,15,30.31s4.6-8.19,10.25-8.19a10.82,10.82,0,0,1,9,4.29,2,2,0,1,1-3.18,2.42,6.87,6.87,0,0,0-5.76-2.71C21.86,26.12,19,28,19,30.31s2.86,4.19,6.25,4.19c5.64,0,10.23,3.68,10.23,8.19s-4.6,8.19-10.25,8.19Z"/><path d="M25.25,55a2,2,0,0,1-2-2V48.88a2,2,0,1,1,4,0V53A2,2,0,0,1,25.25,55Z"/><path d="M25.25,26.12a2,2,0,0,1-2-2V20a2,2,0,0,1,4,0v4.12A2,2,0,0,1,25.25,26.12Z"/><path d="M65,61H41a2,2,0,0,1,0-4H65a2,2,0,0,1,0,4Z"/><path d="M65,79H20a2,2,0,0,1,0-4H65a2,2,0,0,1,0,4Z"/></g></g></g></g></g></svg>