<svg xmlns="http://www.w3.org/2000/svg" viewBox="0 0 94 94"><g id="Layer_2" data-name="Layer 2"><g id="Layer_1-2" data-name="Layer 1"><g id="Building-Construction_Heavy-Equipment_heavy-equipment-tractor" data-name="Building-Construction Heavy-Equipment heavy-equipment-tractor"><g id="Group_76" data-name="Group 76"><g id="heavy-equipment-tractor"><path d="M71,94A23,23,0,1,1,94,71,23,23,0,0,1,71,94Zm0-42A19,19,0,1,0,90,71,19,19,0,0,0,71,52Z"/><path d="M71,82A11,11,0,1,1,82,71,11,11,0,0,1,71,82Zm0-18a7,7,0,1,0,7,7A7,7,0,0,0,71,64Z"/><path d="M15.5,94A15.5,15.5,0,1,1,31,78.5,15.51,15.51,0,0,1,15.5,94Zm0-27A11.5,11.5,0,1,0,27,78.5,11.51,11.51,0,0,0,15.5,67Z"/><path d="M15.5,82A3.5,3.5,0,0,1,12,78.5,2,2,0,0,1,16,78.05a2,2,0,0,1-.45,4Z"/><path d="M15.5,82a2,2,0,0,1-.45-4A2,2,0,0,1,19,78.5,3.5,3.5,0,0,1,15.5,82Z"/><path d="M17,80.5A2,2,0,0,1,15.05,79a2,2,0,0,1,.45-4A3.5,3.5,0,0,1,19,78.5,2,2,0,0,1,17,80.5ZM15.5,79h0Z"/><path d="M14,80.5a2,2,0,0,1-2-2A3.5,3.5,0,0,1,15.5,75,2,2,0,0,1,16,79,2,2,0,0,1,14,80.5Z"/><path d="M52,82H28.92a2,2,0,0,1,0-4H52a2,2,0,1,1,0,4Z"/><path d="M92,73a2,2,0,0,1-2-2V20a4,4,0,0,0-4-4H61a4,4,0,0,0-3.93,3.29L54.5,33.43A8,8,0,0,1,46.63,40H20A10,10,0,0,0,10,50V67.28a2,2,0,0,1-4,0V50A14,14,0,0,1,20,36H46.63a4,4,0,0,0,3.93-3.29l2.57-14.14A8,8,0,0,1,61,12H86a8,8,0,0,1,8,8V71A2,2,0,0,1,92,73Z"/><path d="M26,16a2,2,0,0,1-2-2V8a4,4,0,0,0-4-4H14a2,2,0,0,1,0-4h6a8,8,0,0,1,8,8v6A2,2,0,0,1,26,16Z"/><path d="M80,34H65a2,2,0,0,1,0-4H80a2,2,0,0,1,0,4Z"/><path d="M32,40H20a2,2,0,0,1-2-2V16a4,4,0,0,1,4-4h8a4,4,0,0,1,4,4V38A2,2,0,0,1,32,40ZM22,36h8V16H22Z"/></g></g></g></g></g></svg>