<svg xmlns="http://www.w3.org/2000/svg" viewBox="0 0 90 86.12"><g id="Layer_2" data-name="Layer 2"><g id="Layer_1-2" data-name="Layer 1"><g id="recycle"><path id="Path_45" data-name="Path 45" d="M89.74,75.32,70.39,41.9,75.92,43a2,2,0,0,0,.79-3.83h0l-9.78-2h-.25a1.4,1.4,0,0,0-.9.15l-.22.08,0,0a1.83,1.83,0,0,0-.39.34.92.92,0,0,0-.34.52,1.46,1.46,0,0,0-.16.36l0,.06-2,9.78a2,2,0,0,0,1.54,2.3,2.31,2.31,0,0,0,.37,0,2,2,0,0,0,1.92-1.56l.94-4.7L84.64,74.34H56.74a2,2,0,0,0,0,3.91H88a2,2,0,0,0,2-2,2,2,0,0,0-.26-1Z"/><path id="Path_46" data-name="Path 46" d="M42.47,67.09a2,2,0,0,0-2.76,2.77l4.48,4.48H5.3L21.27,46A2,2,0,0,0,17.86,44L.25,75.34A2,2,0,0,0,1,78a1.89,1.89,0,0,0,1,.26H44.19l-4.48,4.48a2,2,0,0,0,2.68,2.85l0,0,0,0,7.83-7.83a2,2,0,0,0,0-2.77Z"/><path id="Path_47" data-name="Path 47" d="M21.59,39.57a2.08,2.08,0,0,0,.81,1.18s.06.06.1.08.07,0,.11,0a1.79,1.79,0,0,0,1.26.2l9.78-2a2,2,0,0,0-.79-3.83l-5.53,1.1L45,5.91,60.89,34.23a2,2,0,0,0,3.41-1.92L46.69,1A2,2,0,0,0,45,0a2.14,2.14,0,0,0-1.71,1L24.38,33.65,23.44,29a2,2,0,0,0-2.31-1.53h0a2,2,0,0,0-1.52,2.31h0l1.95,9.78Z"/><path d="M44.57,61.88a10.86,10.86,0,0,1-8.6-4.3,2,2,0,0,1,3.19-2.42,6.92,6.92,0,0,0,5.76,2.71c3.46,0,6.33-1.92,6.33-4.19S48.38,49.5,45,49.5c-5.65,0-10.25-3.67-10.25-8.19s4.6-8.19,10.25-8.19a10.84,10.84,0,0,1,9,4.29,2,2,0,1,1-3.18,2.42,6.86,6.86,0,0,0-5.76-2.71c-3.47,0-6.33,1.92-6.33,4.19S41.61,45.5,45,45.5c5.65,0,10.25,3.67,10.25,8.18S50.65,61.87,45,61.87Z"/><path id="Shape_214" data-name="Shape 214" d="M45,59.87V64"/><path d="M45,66a2,2,0,0,1-2-2V59.87a2,2,0,0,1,4,0V64A2,2,0,0,1,45,66Z"/><path id="Shape_215" data-name="Shape 215" d="M45,31v4.12"/><path d="M45,37.12a2,2,0,0,1-2-2V31a2,2,0,0,1,4,0v4.12A2,2,0,0,1,45,37.12Z"/></g></g></g></svg>