<svg xmlns="http://www.w3.org/2000/svg" viewBox="0 0 94 94"><g id="Layer_2" data-name="Layer 2"><g id="Layer_1-2" data-name="Layer 1"><g id="Building-Construction_Construction_construction-house-1" data-name="Building-Construction Construction construction-house-1"><g id="Group_55" data-name="Group 55"><g id="construction-house-1"><path d="M56,40H2A2,2,0,0,1,.4,36.8l27-36a2.07,2.07,0,0,1,3.2,0L57,36H92a2,2,0,0,1,0,4H56ZM6,36H52L29,5.33Z"/><path d="M80,40a2,2,0,0,1-1.6-.8l-27-36A2,2,0,0,1,54.6.8l27,36A2,2,0,0,1,80,40Z"/><path d="M86,94H23a2,2,0,0,1,0-4H86a4,4,0,0,0,4-4V74a4,4,0,0,0-4-4H65a2,2,0,0,1,0-4H86a8,8,0,0,1,8,8V86A8,8,0,0,1,86,94Z"/><path d="M56,58a2,2,0,0,1-2-2V38a2,2,0,0,1,4,0V56A2,2,0,0,1,56,58Z"/><path d="M2,46a2,2,0,0,1-2-2V38a2,2,0,0,1,4,0v6A2,2,0,0,1,2,46Z"/><path d="M74,4H29a2,2,0,0,1,0-4H74a2,2,0,0,1,0,4Z"/><path d="M83,22H42.5a2,2,0,0,1,0-4H83a2,2,0,0,1,0,4Z"/><path d="M80,70a2,2,0,0,1-2-2V38a2,2,0,0,1,4,0V68A2,2,0,0,1,80,70Z"/><path d="M45,94H4a4,4,0,0,1-4-4V82a4,4,0,0,1,4-4H45a4,4,0,0,1,4,4v8A4,4,0,0,1,45,94ZM4,82v8H45V82Z"/><path d="M54,82H13a4,4,0,0,1-4-4V70a4,4,0,0,1,4-4H54a4,4,0,0,1,4,4v8A4,4,0,0,1,54,82ZM13,70v8H54V70Z"/><path d="M45,70H4a4,4,0,0,1-4-4V58a4,4,0,0,1,4-4H45a4,4,0,0,1,4,4v8A4,4,0,0,1,45,70ZM4,58v8H45V58Z"/></g></g></g></g></g></svg>