<svg xmlns="http://www.w3.org/2000/svg" viewBox="0 0 94 90.4"><g id="Layer_2" data-name="Layer 2"><g id="Layer_1-2" data-name="Layer 1"><g id="Work-Office-Companies_Work_Office_office-employee" data-name="Work-Office-Companies Work Office office-employee"><g id="Group_61" data-name="Group 61"><g id="office-employee"><path d="M70.72,90.4H23.28a2,2,0,0,1-2-1.55L15.16,62.09a6.2,6.2,0,0,1,1-5,5.57,5.57,0,0,1,4.48-2.38H73.35a5.64,5.64,0,0,1,4.53,2.4,6.25,6.25,0,0,1,1,5L72.67,88.85A2,2,0,0,1,70.72,90.4Zm-45.85-4H69.13L75,61.19a2.29,2.29,0,0,0-.35-1.8,1.59,1.59,0,0,0-1.28-.69H20.65a1.54,1.54,0,0,0-1.23.68,2.2,2.2,0,0,0-.36,1.8Z"/><path d="M92,90.4H2a2,2,0,0,1,0-4H92a2,2,0,0,1,0,4Z"/><path d="M46.88,78.88A7.9,7.9,0,0,1,39,71.16a7.76,7.76,0,1,1,8.08,7.72Zm.12-2h0Zm-.23-9.53h-.16A3.75,3.75,0,0,0,43,71.12a3.91,3.91,0,0,0,3.94,3.76,3.77,3.77,0,0,0-.17-7.53Z"/><path d="M52.38,19.84a29.73,29.73,0,0,1-21-8.62,2,2,0,0,1,2.8-2.84,25.81,25.81,0,0,0,18.21,7.46h.14a26.23,26.23,0,0,0,10.06-2,2,2,0,1,1,1.52,3.7,30.21,30.21,0,0,1-11.56,2.29Z"/><path d="M47,35.68c-10.2,0-18.5-8-18.5-17.84S36.8,0,47,0,65.5,8,65.5,17.84,57.2,35.68,47,35.68ZM47,4c-8,0-14.5,6.21-14.5,13.84S39,31.68,47,31.68s14.5-6.21,14.5-13.84S55,4,47,4Z"/><path d="M27,50.08a2,2,0,0,1-1.46-3.37c.42-.44.85-.87,1.29-1.28a29.48,29.48,0,0,1,41.63,1.28,2,2,0,0,1-2.92,2.74,25.48,25.48,0,0,0-36-1.11q-.57.54-1.11,1.11A2,2,0,0,1,27,50.08Z"/></g></g></g></g></g></svg>