<svg xmlns="http://www.w3.org/2000/svg" viewBox="0 0 88 94">
  <g id="Layer_2" data-name="Layer 2">
    <g id="Layer_1-2" data-name="Layer 1">
      <g id="Building-Construction_Buildings_building-modern-2" data-name="Building-Construction Buildings building-modern-2">
        <g id="Group_30" data-name="Group 30">
          <g id="building-modern-2">
            <path d="M38,94a2,2,0,0,1-2-2V34H4V92a2,2,0,0,1-4,0V32a2,2,0,0,1,2-2H38a2,2,0,0,1,2,2V92A2,2,0,0,1,38,94Z"/>
            <path d="M14,94a2,2,0,0,1-2-2V44a2,2,0,0,1,4,0V92A2,2,0,0,1,14,94Z"/>
            <path d="M26,94a2,2,0,0,1-2-2V44a2,2,0,0,1,4,0V92A2,2,0,0,1,26,94Z"/>
            <path d="M38,34a2,2,0,0,1-1.52-.7L20,14.07,3.52,33.3a2,2,0,1,1-3-2.6l18-21a2.06,2.06,0,0,1,3,0l18,21A2,2,0,0,1,38,34Z"/>
            <path d="M20,13a2,2,0,0,1-2-2V2a2,2,0,0,1,4,0v9A2,2,0,0,1,20,13Z"/>
            <path d="M86,94a2,2,0,0,1-2-2V43.16a1,1,0,0,0-.68-.95l-30-10a1,1,0,0,0-1.27.64,1.06,1.06,0,0,0,0,.31V92a2,2,0,0,1-4,0V33.16a5.08,5.08,0,0,1,.26-1.58,5,5,0,0,1,6.32-3.16l30,10A5,5,0,0,1,88,43.17V92A2,2,0,0,1,86,94Z"/>
            <path d="M74,88a2,2,0,0,1-2-2V83a2,2,0,0,1,4,0v3A2,2,0,0,1,74,88Z"/>
            <path d="M74,73a2,2,0,0,1-2-2V68a2,2,0,0,1,4,0v3A2,2,0,0,1,74,73Z"/>
            <path d="M74,58a2,2,0,0,1-2-2V53a2,2,0,0,1,4,0v3A2,2,0,0,1,74,58Z"/>
            <path d="M62,88a2,2,0,0,1-2-2V83a2,2,0,0,1,4,0v3A2,2,0,0,1,62,88Z"/>
            <path d="M62,73a2,2,0,0,1-2-2V68a2,2,0,0,1,4,0v3A2,2,0,0,1,62,73Z"/>
            <path d="M62,58a2,2,0,0,1-2-2V53a2,2,0,0,1,4,0v3A2,2,0,0,1,62,58Z"/>
          </g>
        </g>
      </g>
    </g>
  </g>
</svg>