<svg xmlns="http://www.w3.org/2000/svg" viewBox="0 0 99.27 96.98"><defs><style>.cls-1{isolation:isolate;}</style></defs><g id="Layer_2" data-name="Layer 2"><g id="Layer_1-2" data-name="Layer 1"><g id="Group_4" data-name="Group 4"><path id="Path_31" data-name="Path 31" d="M.91,57.78c.29,1.33,1.77,1.62,2.47,1.69l2,.07,15-8c2.47-2.89.29-5.5-.91-7.34l-1.48-2L2.61,50.65c-1.84,1.06-2.89,1.9-2.54,4Z"/><path id="Path_32" data-name="Path 32" d="M3.45,59.47c-.77-.07-2.18-.36-2.46-1.69l1.9,8.46c.56,2.05,1.83,2.33,4,2.47l20,1.13c2.19.21,5.57.14,6.28,3.88.28-1.41,1-5.22,1-5.22A7.27,7.27,0,0,0,34,65.75a6.82,6.82,0,0,0-6.49-5.29Z"/><path id="Path_33" data-name="Path 33" d="M97.35,63.14a2.56,2.56,0,0,0-1.48-2.61l-1.77-.92c-4.8.21-16.79.7-16.93.7-3.46,1.56-2.61,4.87-2.33,7l.43,2.47,17.49-1c2.12-.14,3.46-.42,3.95-2.47Z"/><path id="Path_34" data-name="Path 34" d="M19.47,13.47c-2-.77-3.25-1.13-4.66.5l-2,2.54a2.58,2.58,0,0,0,.21,3l1.2,1.62c4.44,1.9,15.38,6.7,15.59,6.77,3.74.15,4.51-3.24,5.15-5.29l.7-2.4Z"/><path id="Path_35" data-name="Path 35" d="M59,3.32c-.63-2-1.2-3.25-3.31-3.32H52.41c-1.34,0-2,1.34-2.19,2.05L49.73,4C51,8.6,54.1,20.17,54.17,20.31c2.26,3,5.3,1.48,7.34.78l2.33-1Z"/><path id="Path_36" data-name="Path 36" d="M92.13,23.28l-2-2.54c-.84-1.06-2.26-.71-3-.42l-1.84.77c-2.82,3.88-9.94,13.55-10,13.69-1,3.67,2.11,5.08,4,6.21l2.19,1.19L91.56,27.93C92.76,26.17,93.33,25,92.13,23.28Z"/><path id="Path_37" data-name="Path 37" d="M28.71,91.92,30,90.44c.92-4.73,3.1-16.51,3.1-16.65-.71-3.67-4.09-3.67-6.28-3.88l-2.54-.14L21.37,87.05C21,89.17,21,90.51,22.92,91.5l2.89,1.41C27,93.4,28.14,92.48,28.71,91.92Z"/><path id="Path_38" data-name="Path 38" d="M50.22,2.12c.22-.71.85-2.05,2.19-2.05H43.73c-2.11.07-2.68,1.27-3.31,3.32L34.85,22.64c-.71,2.05-1.42,5.37-5.15,5.3,1.34.56,4.86,2.11,4.86,2.11a6.55,6.55,0,0,0,2.75.57,6.74,6.74,0,0,0,6.56-5.15Z"/><path id="Path_39" data-name="Path 39" d="M13,19.54c-.42-.64-1.06-2-.21-3L7.33,23.35C6.06,25,6.63,26.24,7.9,28l11.57,16.3c1.2,1.83,3.31,4.44.91,7.33,1.27-.7,4.73-2.47,4.73-2.47a7.18,7.18,0,0,0,2.12-1.76,6.78,6.78,0,0,0,.07-8.32Z"/><path id="Path_40" data-name="Path 40" d="M68.71,95.16c1.2-.56,1.2-2,1.13-2.82l-.36-2c-3.17-3.66-11-12.7-11.07-12.83-3.32-1.77-5.43.91-6.91,2.54L49.8,82,61.44,95c1.48,1.55,2.47,2.4,4.38,1.55Z"/><path id="Path_41" data-name="Path 41" d="M69.84,92.41c.07.78.14,2.26-1.13,2.82l7.83-3.8c1.83-1,1.83-2.33,1.55-4.45L74.77,67.23c-.28-2.19-1.06-5.5,2.4-7-1.41.07-5.29.21-5.29.21a7.82,7.82,0,0,0-2.68.7,6.82,6.82,0,0,0-3.74,7.48Z"/><path id="Path_42" data-name="Path 42" d="M28.71,91.92a2.6,2.6,0,0,1-2.89.91l7.83,3.81c1.9.85,3,0,4.37-1.55L51.35,80.21c1.48-1.56,3.6-4.24,6.92-2.54l-3.46-4A7.73,7.73,0,0,0,52.62,72a6.92,6.92,0,0,0-8.18,1.77Z"/><path id="Path_43" data-name="Path 43" d="M95.8,60.53c.63.42,1.83,1.27,1.48,2.61l1.9-8.47c.42-2.05-.64-2.89-2.54-4L79.21,41c-1.83-1.13-4.94-2.54-4-6.21-.85,1.13-3.17,4.3-3.17,4.3a6.87,6.87,0,0,0,2.4,10.09Z"/><path id="Path_44" data-name="Path 44" d="M87.12,20.32a2.5,2.5,0,0,1,3,.42L84.65,13.9C83.31,12.27,82,12.63,80,13.4L61.51,21.09c-2,.78-5.08,2.26-7.33-.78.35,1.34,1.41,5.15,1.41,5.15a6.26,6.26,0,0,0,1.27,2.47,6.89,6.89,0,0,0,8.11,2Z"/><g class="cls-1"><path d="M39.67,42.23a2,2,0,0,0-1.55-.65,2.27,2.27,0,0,0-1.58.56,4,4,0,0,0-1,1.37A7.84,7.84,0,0,0,35,45.25a12.66,12.66,0,0,0-.2,1.65l0,.05a4.29,4.29,0,0,1,1.7-1.5A5.32,5.32,0,0,1,38.77,45a5.18,5.18,0,0,1,2.2.49A5.42,5.42,0,0,1,42.8,46.8a4.93,4.93,0,0,1,1,1.83,6.69,6.69,0,0,1,.33,2.07,7.08,7.08,0,0,1-.44,2.51,6,6,0,0,1-1.25,2,5.93,5.93,0,0,1-1.94,1.35,6.92,6.92,0,0,1-5.77-.3,6.12,6.12,0,0,1-2.08-2.06,8.69,8.69,0,0,1-1.07-2.89,18,18,0,0,1-.3-3.29,14.47,14.47,0,0,1,.37-3.25,9.58,9.58,0,0,1,1.2-2.94A6.77,6.77,0,0,1,35,39.73a5.8,5.8,0,0,1,3.17-.83,6.51,6.51,0,0,1,2.1.33,5.44,5.44,0,0,1,1.73.93,4.79,4.79,0,0,1,1.22,1.52h0a1.44,1.44,0,0,1-1.31,2.06h-.48a1.42,1.42,0,0,1-1.25-.82A3.18,3.18,0,0,0,39.67,42.23Zm-3,5.71a2.4,2.4,0,0,0-.89.71,3.3,3.3,0,0,0-.53,1,4.53,4.53,0,0,0-.17,1.24,3.69,3.69,0,0,0,.19,1.18,3.09,3.09,0,0,0,.55,1,2.62,2.62,0,0,0,.88.74,2.47,2.47,0,0,0,1.2.28,2.19,2.19,0,0,0,1.14-.28,2.64,2.64,0,0,0,.84-.72,3,3,0,0,0,.52-1A3.86,3.86,0,0,0,40.6,51a5,5,0,0,0-.16-1.22,3.38,3.38,0,0,0-.49-1,2.76,2.76,0,0,0-.84-.75,2.41,2.41,0,0,0-1.19-.28A2.68,2.68,0,0,0,36.69,47.94Z"/><path d="M44.71,43.64a7.75,7.75,0,0,1,1.39-2.79,4.93,4.93,0,0,1,2-1.5,6.72,6.72,0,0,1,2.46-.45,6.88,6.88,0,0,1,2.49.45,5.16,5.16,0,0,1,2,1.5,7.76,7.76,0,0,1,1.4,2.79,15.46,15.46,0,0,1,.51,4.29,16,16,0,0,1-.51,4.38,7.75,7.75,0,0,1-1.4,2.82,5.16,5.16,0,0,1-2,1.5,6.88,6.88,0,0,1-2.49.45,6.72,6.72,0,0,1-2.46-.45,4.93,4.93,0,0,1-2-1.5,7.74,7.74,0,0,1-1.39-2.82,16,16,0,0,1-.51-4.38A15.46,15.46,0,0,1,44.71,43.64Zm3.09,6.1a9.85,9.85,0,0,0,.31,2A4.55,4.55,0,0,0,49,53.48a2,2,0,0,0,1.65.7,2.12,2.12,0,0,0,1.69-.7,4.42,4.42,0,0,0,.85-1.69,9.85,9.85,0,0,0,.31-2c0-.71,0-1.31,0-1.81,0-.3,0-.67,0-1.09s-.05-.86-.1-1.31-.15-.9-.25-1.34A4.08,4.08,0,0,0,52.65,43a2.7,2.7,0,0,0-.83-.85,2.24,2.24,0,0,0-1.22-.32,2.18,2.18,0,0,0-1.21.32,2.51,2.51,0,0,0-.8.85,4.72,4.72,0,0,0-.49,1.19,8.78,8.78,0,0,0-.25,1.34c-.05.45-.08.88-.09,1.31s0,.79,0,1.09C47.75,48.43,47.77,49,47.8,49.74Z"/><path d="M70.4,50.44h0a1.34,1.34,0,0,1-1.34,1.34H65.42v3.63a1.33,1.33,0,0,1-1.33,1.34h0a1.34,1.34,0,0,1-1.34-1.34V51.78H59.11a1.34,1.34,0,0,1-1.34-1.34h0a1.34,1.34,0,0,1,1.34-1.34h3.64V45.46a1.34,1.34,0,0,1,1.34-1.33h0a1.33,1.33,0,0,1,1.33,1.33V49.1h3.64A1.34,1.34,0,0,1,70.4,50.44Z"/></g></g></g></g></svg>