<svg xmlns="http://www.w3.org/2000/svg" viewBox="0 0 90.41 94.01"><g id="Layer_2" data-name="Layer 2"><g id="Layer_1-2" data-name="Layer 1"><g id="Nature-Farming_Outdoors_outdoors-landscape-meadow" data-name="Nature-Farming Outdoors outdoors-landscape-meadow"><g id="Group_62" data-name="Group 62"><g id="Regular_62" data-name="Regular 62"><path d="M2,94a2,2,0,0,1-2-2V62a2,2,0,1,1,4,0V92A2,2,0,0,1,2,94Z"/><path d="M45.2,94a2,2,0,0,1-2-2V62a2,2,0,0,1,4,0V92A2,2,0,0,1,45.2,94Z"/><path d="M88.4,94a2,2,0,0,1-2-2V62a2,2,0,1,1,4,0V92A2,2,0,0,1,88.4,94Z"/><path d="M88.4,73H2a2,2,0,0,1,0-4H88.4a2,2,0,0,1,0,4Z"/><path d="M88.4,85H2a2,2,0,0,1,0-4H88.4a2,2,0,0,1,0,4Z"/><path d="M56.72,52a2,2,0,0,1-1.14-.36L30.8,34.44,6,51.65a2,2,0,1,1-2.28-3.28l25.92-18a2,2,0,0,1,2.28,0l25.92,18A2,2,0,0,1,56.72,52Z"/><path d="M51.34,22H50.9A10.84,10.84,0,0,1,40.32,11c0-.11,0-.26,0-.41a11,11,0,1,1,22,.9A11,11,0,0,1,51.34,22Zm0-18a7,7,0,0,0-7,6.72,2.81,2.81,0,0,0,0,.29A6.84,6.84,0,0,0,51,18h0a7,7,0,1,0,.57-14Z"/><path d="M45.2,44a2,2,0,0,1-1.14-3.64l23-16a2,2,0,0,1,2.28,0l20.17,14a2,2,0,0,1-2.28,3.28l-19-13.21L46.34,43.65A2,2,0,0,1,45.2,44Z"/></g></g></g></g></g></svg>