<svg xmlns="http://www.w3.org/2000/svg" viewBox="0 0 88 94"><g id="Layer_2" data-name="Layer 2"><g id="Layer_1-2" data-name="Layer 1"><g id="Landmarks_Various-Buildings_water-dam" data-name="Landmarks Various-Buildings water-dam"><g id="Group_17" data-name="Group 17"><g id="water-dam"><path d="M74,94H8a8,8,0,0,1-8-8V53a2,2,0,0,1,0-.42L8.54,13A5,5,0,0,1,13.42,9h7.16A5,5,0,0,1,25.46,13l8,37.11,17.35-8.68A5,5,0,0,1,58,45.86v3.91l16.77-8.39A5,5,0,0,1,82,45.86V86A8,8,0,0,1,74,94ZM4,53.21V86a4,4,0,0,0,4,4H74a4,4,0,0,0,4-4V45.86a1,1,0,0,0-.11-.45A1,1,0,0,0,76.55,45L56.89,54.79A2,2,0,0,1,55,54.7,2,2,0,0,1,54,53V45.86a1,1,0,0,0-.11-.45A1,1,0,0,0,52.55,45L32.89,54.79a2,2,0,0,1-1.76,0A2,2,0,0,1,30,53.42L21.55,13.79a1,1,0,0,0-1-.79H13.42a1,1,0,0,0-1,.79Z"/><path d="M44,70H32a2,2,0,0,1,0-4H44a2,2,0,0,1,0,4Z"/><path d="M44,82H32a2,2,0,0,1,0-4H44a2,2,0,0,1,0,4Z"/><path d="M68,70H56a2,2,0,0,1,0-4H68a2,2,0,0,1,0,4Z"/><path d="M68,82H56a2,2,0,0,1,0-4H68a2,2,0,0,1,0,4Z"/><path d="M65.58,12C59.52,12,52.11,10.6,43.21,6.8A25.79,25.79,0,0,0,32.05,4.48h0a2,2,0,0,1,0-4A29.83,29.83,0,0,1,44.83,3.14C72.77,15.07,84.31.91,84.43.76a2,2,0,0,1,3.14,2.47C87.19,3.72,80.48,12,65.58,12Z"/></g></g></g></g></g></svg>