<svg xmlns="http://www.w3.org/2000/svg" viewBox="0 0 94 94.01"><g id="Layer_2" data-name="Layer 2"><g id="Layer_1-2" data-name="Layer 1"><g id="Outdoors-Recreation_Beach_beach-palm-sunbed" data-name="Outdoors-Recreation Beach beach-palm-sunbed"><g id="Group"><g id="Regular"><path d="M58.91,47a4.86,4.86,0,0,1-2.55-.72L31,30.71a2,2,0,1,1,2.09-3.41l25.4,15.55a.91.91,0,0,0,1.25-.31.88.88,0,0,0,.14-.45.76.76,0,0,1,0-.15A14.47,14.47,0,0,0,52.16,27.6a21.69,21.69,0,0,0-7.37-2.16,2,2,0,1,1,.43-4A25.82,25.82,0,0,1,54,24,18.51,18.51,0,0,1,63.83,42.3,4.9,4.9,0,0,1,58.91,47Z"/><path d="M32,31H5A5,5,0,0,1,.39,24.19a18.74,18.74,0,0,1,17.73-12A24.18,24.18,0,0,1,29.6,15.4a2,2,0,1,1-2,3.46A20.23,20.23,0,0,0,18,16.15h-.23A14.71,14.71,0,0,0,4.13,25.59a.79.79,0,0,0,0,.29,1,1,0,0,0,.27.77A1.09,1.09,0,0,0,5.1,27H32a2,2,0,0,1,0,4Z"/><path d="M50.46,26.72a2,2,0,0,1-1-3.71l13.24-7.88a.62.62,0,0,0,.25-.85.61.61,0,0,0-.14-.17A15,15,0,0,0,47.1,11.7,11,11,0,0,0,42,16.51a2,2,0,0,1-3.52-1.9A15.07,15.07,0,0,1,45.5,8a19,19,0,0,1,19.83,3,4.31,4.31,0,0,1,1,1.25,4.62,4.62,0,0,1-1.69,6.3L51.48,26.44A2,2,0,0,1,50.46,26.72Z"/><path d="M40.23,17.56a2,2,0,0,1-1.93-1.49A15.83,15.83,0,0,0,28.41,5.29,44.72,44.72,0,0,0,20.13,4a.6.6,0,0,0-.28.08.62.62,0,0,0-.25.84l4.79,8.89a2,2,0,1,1-3.52,1.89L16.09,6.83A4.63,4.63,0,0,1,20.32,0,48.64,48.64,0,0,1,29.5,1.44l.17.05A19.82,19.82,0,0,1,42.16,15a2,2,0,0,1-1.41,2.45A2.32,2.32,0,0,1,40.23,17.56Z"/><path d="M56.53,82a8,8,0,0,1-7-4.12l-10.33-21a2,2,0,0,1,3.59-1.77L53.08,76a4,4,0,0,0,3.45,2H92a2,2,0,0,1,0,4Z"/><path d="M83,94a2,2,0,0,1-1.94-1.52l-3-12a2,2,0,0,1,3.88-1l3,12A2,2,0,0,1,83.49,94,2,2,0,0,1,83,94Z"/><path d="M47,94a2,2,0,0,1-.9-.21,2,2,0,0,1-.89-2.69l6.43-12.86A2,2,0,1,1,55.23,80L48.8,92.9A2,2,0,0,1,47,94Z"/><path d="M65,67H45.43a2,2,0,0,1,0-4H65a2,2,0,0,1,0,4Z"/><path d="M2,94H1.88A2,2,0,0,1,0,91.89c0-.47.06-1,.09-1.69C.56,79.78,2,48,27.75,27.44a2,2,0,0,1,2.5,3.13C5.92,50,4.54,80.4,4.08,90.39c0,.66,0,1.25-.08,1.73A2,2,0,0,1,2,94Z"/><path d="M23,94a2,2,0,0,1-2-1.77,129.17,129.17,0,0,1,9.15-64,2,2,0,0,1,3.69,1.54,125.09,125.09,0,0,0-8.86,62A2,2,0,0,1,23.22,94Z"/></g></g></g></g></g></svg>