<svg xmlns="http://www.w3.org/2000/svg" viewBox="0 0 94 93.88"><g id="Layer_2" data-name="Layer 2"><g id="Layer_1-2" data-name="Layer 1"><g id="Transportation_Car-Actions_car-actions-disable" data-name="Transportation Car-Actions car-actions-disable"><g id="Group_48" data-name="Group 48"><g id="car-actions-disable"><path d="M38,52H8a8,8,0,0,1-8-8A16.42,16.42,0,0,1,4.83,32.34l7.76-7.75A2,2,0,0,1,14,24H80a2,2,0,0,1,1.41.59l7.76,7.75a16.51,16.51,0,0,1,4.44,8.09,2,2,0,0,1-3.91.87,12.34,12.34,0,0,0-3.36-6.13L79.17,28H14.83L7.66,35.17A12.41,12.41,0,0,0,4,44a4,4,0,0,0,4,4H38a2,2,0,0,1,0,4Z"/><path d="M20,40H3.3a2,2,0,1,1,0-4H20a2,2,0,0,1,0,4Z"/><path d="M80,28H14a2,2,0,0,1-1.87-2.7l6.8-18.16A11.05,11.05,0,0,1,29.23,0H64.76a11.05,11.05,0,0,1,10.3,7.14l6.8,18.16A2,2,0,0,1,80,28ZM16.88,24H77.1L71.32,8.54A7.05,7.05,0,0,0,64.76,4H29.23a7.05,7.05,0,0,0-6.56,4.54Z"/><path d="M14,64a8,8,0,0,1-8-8V50a2,2,0,0,1,2-2H20a2,2,0,0,1,2,2v6A8,8,0,0,1,14,64ZM10,52v4a4,4,0,0,0,8,0V52Z"/><path d="M70.13,81.88H62a2,2,0,0,1,0-4h8.12a3.37,3.37,0,0,0,1.26-6.49l-8.25-3.3a7.37,7.37,0,0,1,2.74-14.21H74a2,2,0,0,1,0,4H65.87a3.37,3.37,0,0,0-1.25,6.5l8.25,3.29a7.37,7.37,0,0,1-2.74,14.21Z"/><path d="M68,57.88a2,2,0,0,1-2-2v-3a2,2,0,1,1,4,0v3A2,2,0,0,1,68,57.88Z"/><path d="M68,84.88a2,2,0,0,1-2-2v-3a2,2,0,0,1,4,0v3A2,2,0,0,1,68,84.88Z"/><path d="M68,93.88a26,26,0,1,1,26-26A26,26,0,0,1,68,93.88Zm0-48a22,22,0,1,0,22,22A22,22,0,0,0,68,45.88Z"/></g></g></g></g></g></svg>