<svg xmlns="http://www.w3.org/2000/svg" viewBox="0 0 94 94"><g id="Layer_2" data-name="Layer 2"><g id="Layer_1-2" data-name="Layer 1"><g id="Hotels-Spas_Garage_Parking_car-key-1" data-name="Hotels-Spas Garage Parking car-key-1"><g id="Group_66" data-name="Group 66"><g id="car-key-1"><path d="M26,94a8,8,0,1,1,8-8A8,8,0,0,1,26,94Zm0-12a4,4,0,1,0,4,4A4,4,0,0,0,26,82Z"/><path d="M74,94a8,8,0,1,1,8-8A8,8,0,0,1,74,94Zm0-12a4,4,0,1,0,4,4A4,4,0,0,0,74,82Z"/><path d="M68,88H32a2,2,0,0,1,0-4H68a2,2,0,0,1,0,4Z"/><path d="M86,88H80a2,2,0,0,1,0-4h6a4,4,0,0,0,4-4V74A10,10,0,0,0,80,64a2,2,0,0,1-1.79-1.11L70.87,48.21A4,4,0,0,0,67.29,46H35.69a4,4,0,0,0-3.58,2.21L24.79,62.89A2,2,0,0,1,23,64H14A10,10,0,0,0,4,74v6a4,4,0,0,0,4,4H20a2,2,0,0,1,0,4H8a8,8,0,0,1-8-8V74A14,14,0,0,1,14,60h7.76l6.77-13.58A8,8,0,0,1,35.69,42h31.6a8,8,0,0,1,7.16,4.42l6.81,13.64A14,14,0,0,1,94,74v6A8,8,0,0,1,86,88Z"/><path d="M80,64H23a2,2,0,0,1,0-4H80a2,2,0,0,1,0,4Z"/><path d="M32,28A14,14,0,1,1,46,14,14,14,0,0,1,32,28ZM32,4A10,10,0,1,0,42,14,10,10,0,0,0,32,4Z"/><path d="M74,25a2,2,0,0,1-2-2V16H44a2,2,0,0,1,0-4H74a2,2,0,0,1,2,2v9A2,2,0,0,1,74,25Z"/><path d="M62,22a2,2,0,0,1-2-2V14a2,2,0,0,1,4,0v6A2,2,0,0,1,62,22Z"/></g></g></g></g></g></svg>