<svg xmlns="http://www.w3.org/2000/svg" viewBox="0 0 82.24 94.01"><g id="Layer_2" data-name="Layer 2"><g id="Layer_1-2" data-name="Layer 1"><g id="Update_real-estate-update-house-refresh" data-name="Update real-estate-update-house-refresh"><g id="Group_101" data-name="Group 101"><g id="Regular_101" data-name="Regular 101"><path d="M52.88,29.43a2,2,0,0,1-1.32-.5L35.92,15.24a2,2,0,0,1,.2-3.17L53.72.34a2,2,0,1,1,2.22,3.32L40.51,14l13.68,12a2,2,0,0,1-1.31,3.51Z"/><path d="M41.19,94A42,42,0,0,1,32,93,40.85,40.85,0,0,1,6.3,74.76a2,2,0,0,1,3.39-2.13A37.11,37.11,0,1,0,41.12,15.76H37.23a2,2,0,0,1,0-4h3.89A41.13,41.13,0,0,1,41.19,94Z"/><path d="M3.23,64.65a2,2,0,0,1-1.94-1.5A41.51,41.51,0,0,1,0,52.86a2,2,0,0,1,2-2H2a2,2,0,0,1,2,2,37.23,37.23,0,0,0,1.17,9.28,2,2,0,0,1-1.44,2.44A2.14,2.14,0,0,1,3.23,64.65Z"/><path d="M3.79,43.13a2.08,2.08,0,0,1-.6-.09,2,2,0,0,1-1.31-2.51A40.71,40.71,0,0,1,6.31,31,2,2,0,1,1,9.69,33.1a36.75,36.75,0,0,0-4,8.63A2,2,0,0,1,3.79,43.13Z"/><path d="M15.69,25.12a2,2,0,0,1-1.3-3.52,40.87,40.87,0,0,1,7.7-5.21,2,2,0,1,1,1.85,3.54,37.55,37.55,0,0,0-7,4.7A2,2,0,0,1,15.69,25.12Z"/><path d="M50,76H32a5,5,0,0,1-5-5V62a2,2,0,0,1,4,0v9a1,1,0,0,0,1,1H50a1,1,0,0,0,1-1V62a2,2,0,0,1,4,0v9A5,5,0,0,1,50,76Z"/><path d="M59,55a2,2,0,0,1-1.28-.47L41,40.59,24.27,54.52a2,2,0,0,1-2.56-3.07l18-15a2,2,0,0,1,2.56,0l18,15A2,2,0,0,1,59,55Z"/><path d="M36.14,66a1.5,1.5,0,0,1,0-3H43a1.4,1.4,0,0,0,.56-2.68l-5.67-1.76-.11,0A4.4,4.4,0,0,1,39.38,50h5.67a1.5,1.5,0,0,1,0,3H39.38a1.38,1.38,0,0,0-1,.41,1.4,1.4,0,0,0,.42,2.27l5.67,1.76.12,0A4.4,4.4,0,0,1,43,66Z"/><path d="M41,53a1.5,1.5,0,0,1-1.5-1.5V48.29a1.5,1.5,0,1,1,3,0v3.24A1.5,1.5,0,0,1,41,53Z"/><path d="M41,69.23a1.5,1.5,0,0,1-1.5-1.5V64.49a1.5,1.5,0,0,1,3,0v3.24A1.5,1.5,0,0,1,41,69.23Z"/></g></g></g></g></g></svg>