<svg xmlns="http://www.w3.org/2000/svg" viewBox="0 0 94 94"><g id="Layer_2" data-name="Layer 2"><g id="Layer_1-2" data-name="Layer 1"><g id="Users_Geometric-Full-Body-Single-User-Man_single-man-briefcase" data-name="Users Geometric-Full-Body-Single-User-Man single-man-briefcase"><g id="Group_41" data-name="Group 41"><g id="Regular_41" data-name="Regular 41"><path d="M89,94H47a5,5,0,0,1-5-5V59a5,5,0,0,1,5-5H89a5,5,0,0,1,5,5V89A5,5,0,0,1,89,94ZM47,58a1,1,0,0,0-1,1V89a1,1,0,0,0,1,1H89a1,1,0,0,0,1-1V59a1,1,0,0,0-1-1Z"/><path d="M92,70H44a2,2,0,0,1,0-4H92a2,2,0,0,1,0,4Z"/><path d="M68,76a2,2,0,0,1-2-2V68a2,2,0,0,1,4,0v6A2,2,0,0,1,68,76Z"/><path d="M77,58H59a2,2,0,0,1-2-2V50a8,8,0,0,1,8-8h6a8,8,0,0,1,8,8v6A2,2,0,0,1,77,58ZM61,54H75V50a4,4,0,0,0-4-4H65a4,4,0,0,0-4,4Z"/><path d="M20,28A14,14,0,1,1,34,14,14,14,0,0,1,20,28ZM20,4A10,10,0,1,0,30,14,10,10,0,0,0,20,4Z"/><path d="M20,58a2,2,0,0,1-2-2V32a2,2,0,0,1,4,0V56A2,2,0,0,1,20,58Z"/><path d="M29,94H11a2,2,0,0,1-2-1.8L6.19,64H2a2,2,0,0,1-2-2V50a20,20,0,0,1,37.51-9.67A2,2,0,1,1,34,42.27,16,16,0,0,0,4,50V60H8a2,2,0,0,1,2,1.8L12.81,90H27.19l1.86-18.6a2,2,0,0,1,4,.4L31,92.2A2,2,0,0,1,29,94Z"/></g></g></g></g></g></svg>