<svg xmlns="http://www.w3.org/2000/svg" viewBox="0 0 94 93.99"><g id="Layer_2" data-name="Layer 2"><g id="Layer_1-2" data-name="Layer 1"><g id="Users_Geomertric-Close-Up-Multiple-Users_multiple-users-1-2" data-name="Users Geomertric-Close-Up-Multiple-Users multiple-users-1-2"><g id="Group_497-2" data-name="Group 497-2"><g id="Regular_497-2" data-name="Regular 497-2"><path d="M73,79A15.5,15.5,0,1,1,88.5,63.5,15.53,15.53,0,0,1,73,79Zm0-27A11.5,11.5,0,1,0,84.5,63.5,11.51,11.51,0,0,0,73,52Z"/><path d="M73,31A15.5,15.5,0,1,1,88.5,15.5,15.52,15.52,0,0,1,73,31ZM73,4A11.5,11.5,0,1,0,84.5,15.5,11.51,11.51,0,0,0,73,4Z"/><path d="M92,94a2,2,0,0,1-1.57-.77,22.1,22.1,0,0,0-31-3.83,21.69,21.69,0,0,0-3.83,3.83,2,2,0,0,1-3.15-2.46A25.45,25.45,0,0,1,57,86.24a26.09,26.09,0,0,1,36.63,4.52,2,2,0,0,1-.35,2.8A2,2,0,0,1,92,94Z"/><path d="M92,46a2,2,0,0,1-1.57-.77,22.1,22.1,0,0,0-31-3.83,21.69,21.69,0,0,0-3.83,3.83,2,2,0,1,1-3.15-2.46A25.45,25.45,0,0,1,57,38.24a26.09,26.09,0,0,1,36.63,4.52A2,2,0,0,1,92,46Z"/><path d="M79.09,67a29.18,29.18,0,0,1-19.71-7.64,2,2,0,1,1,2.7-2.94A25.21,25.21,0,0,0,86,62a2,2,0,0,1,1.1,3.85A28.82,28.82,0,0,1,79.09,67Z"/><path d="M79.09,19a29.21,29.21,0,0,1-19.71-7.63,2,2,0,1,1,2.7-2.95A25.21,25.21,0,0,0,86,14a2,2,0,0,1,1.1,3.84A28.82,28.82,0,0,1,79.09,19Z"/><path d="M21,79A15.5,15.5,0,1,1,36.5,63.5,15.53,15.53,0,0,1,21,79Zm0-27A11.5,11.5,0,1,0,32.5,63.5,11.51,11.51,0,0,0,21,52Z"/><path d="M21,31A15.5,15.5,0,1,1,36.5,15.5,15.52,15.52,0,0,1,21,31ZM21,4A11.5,11.5,0,1,0,32.5,15.5,11.51,11.51,0,0,0,21,4Z"/><path d="M40,94a2,2,0,0,1-1.58-.77,22.07,22.07,0,0,0-34.84,0A2,2,0,0,1,.42,90.76a26.1,26.1,0,0,1,41.16,0,2,2,0,0,1-.35,2.8A2,2,0,0,1,40,94Z"/><path d="M2,46A2,2,0,0,1,.42,42.76a26.1,26.1,0,0,1,41.16,0,2,2,0,1,1-3.16,2.46,22.1,22.1,0,0,0-31-3.83,22.33,22.33,0,0,0-3.82,3.83A2,2,0,0,1,2,46Z"/><path d="M27.1,67A29.18,29.18,0,0,1,7.38,59.35a2,2,0,0,1,2.7-2.94A25.21,25.21,0,0,0,34,62a2,2,0,0,1,1.1,3.85A28.8,28.8,0,0,1,27.1,67Z"/><path d="M27.1,19A29.22,29.22,0,0,1,7.38,11.36a2,2,0,0,1,2.7-2.95A25.21,25.21,0,0,0,34,14a2,2,0,1,1,1.1,3.84A28.8,28.8,0,0,1,27.1,19Z"/></g></g></g></g></g></svg>