<svg xmlns="http://www.w3.org/2000/svg" viewBox="0 0 94 94"><g id="Layer_2" data-name="Layer 2"><g id="Layer_1-2" data-name="Layer 1"><g id="Users_Geometric-Full-Body-Multiple-Users-Actions_multiple-actions-time-2" data-name="Users Geometric-Full-Body-Multiple-Users-Actions multiple-actions-time-2"><g id="Group_288-2" data-name="Group 288-2"><g id="Regular_288-2" data-name="Regular 288-2"><path d="M23,28A14,14,0,1,1,37,14,14,14,0,0,1,23,28ZM23,4A10,10,0,1,0,33,14,10,10,0,0,0,23,4Z"/><path d="M32,94H14a2,2,0,0,1-2-1.8L9.19,64H2a2,2,0,0,1-2-2V53A23,23,0,0,1,43,41.55a2,2,0,0,1-3.48,2A19,19,0,0,0,4,53v7h7a2,2,0,0,1,2,1.8L15.81,90H30.19l1.12-11.13a2,2,0,1,1,4,.4L34,92.2A2,2,0,0,1,32,94Z"/><path d="M68,94A26,26,0,1,1,94,68,26,26,0,0,1,68,94Zm0-48A22,22,0,1,0,90,68,22,22,0,0,0,68,46Z"/><path d="M78.61,70H68a2,2,0,0,1-2-2V57.4a2,2,0,0,1,4,0V66h8.61a2,2,0,0,1,0,4Z"/><path d="M65,25A12.5,12.5,0,1,1,77.5,12.5,12.52,12.52,0,0,1,65,25ZM65,4a8.5,8.5,0,1,0,8.5,8.5A8.51,8.51,0,0,0,65,4Z"/><path d="M80.6,37a2,2,0,0,1-1.73-1A16,16,0,0,0,57,30.15a16.14,16.14,0,0,0-4,3.32,2,2,0,0,1-3-2.63A20,20,0,0,1,82.33,34a2,2,0,0,1-1.73,3Z"/></g></g></g></g></g></svg>