<svg xmlns="http://www.w3.org/2000/svg" viewBox="0 0 94 94.01"><g id="Layer_2" data-name="Layer 2"><g id="Layer_1-2" data-name="Layer 1"><g id="Users_Geometric-Full-Body-Multiple-Users-Actions_multiple-actions-edit-1" data-name="Users Geometric-Full-Body-Multiple-Users-Actions multiple-actions-edit-1"><g id="Group_258" data-name="Group 258"><g id="Regular_258" data-name="Regular 258"><path d="M44,94a2,2,0,0,1-1.41-.59A2,2,0,0,1,42,91.61l3-15a2,2,0,0,1,.55-1L76.11,45.06a10.47,10.47,0,0,1,14.79,0l.08.09a10.44,10.44,0,0,1,0,14.73h0L60.41,90.42a2,2,0,0,1-1,.55l-15,3A2.58,2.58,0,0,1,44,94Zm4.84-16L46.55,89.46,58,87.16l30.1-30.1h0a6.46,6.46,0,0,0,0-9.13L88,47.84a6.47,6.47,0,0,0-9.1,0ZM59,89h0Z"/><path d="M23,28A14,14,0,1,1,37,14,14,14,0,0,1,23,28ZM23,4A10,10,0,1,0,33,14,10,10,0,0,0,23,4Z"/><path d="M32,94H14a2,2,0,0,1-2-1.8L9.19,64H2a2,2,0,0,1-2-2V53a23,23,0,0,1,46,0v9a2,2,0,0,1-2,2H36.81L34,92.2A2,2,0,0,1,32,94ZM15.81,90H30.19L33,61.8A2,2,0,0,1,35,60h7V53A19,19,0,0,0,4,53v7h7a2,2,0,0,1,2,1.8Z"/><path d="M65,25A12.5,12.5,0,1,1,77.5,12.5,12.52,12.52,0,0,1,65,25ZM65,4a8.5,8.5,0,1,0,8.5,8.5A8.51,8.51,0,0,0,65,4Z"/><path d="M80.6,37a2,2,0,0,1-1.73-1A16,16,0,0,0,53,33.47a2,2,0,0,1-3-2.63,19.66,19.66,0,0,1,5-4.16A20,20,0,0,1,82.33,34a2,2,0,0,1-.73,2.73A1.91,1.91,0,0,1,80.6,37Z"/></g></g></g></g></g></svg>