<svg xmlns="http://www.w3.org/2000/svg" viewBox="0 0 93 101.83"><g id="Layer_2" data-name="Layer 2"><g id="Layer_1-2" data-name="Layer 1"><g id="Business-Products_Strategy_strategy-split" data-name="Business-Products Strategy strategy-split"><g id="Group_71" data-name="Group 71"><g id="strategy-split"><path d="M50.63,64.21a2,2,0,0,1-2-2V59.62c0-7.87-3.63-12.52-11.79-15.07A2,2,0,0,1,38,40.73C47.86,43.81,52.63,50,52.63,59.62v2.59A2,2,0,0,1,50.63,64.21Z"/><path d="M50.63,64.21a2,2,0,0,1-2-2V59.62c0-9.63,4.78-15.81,14.6-18.89a2,2,0,0,1,1.19,3.82c-8.15,2.55-11.79,7.2-11.79,15.07v2.59A2,2,0,0,1,50.63,64.21Z"/><path d="M50.63,61.62a2,2,0,0,1-2-2V27.83a2,2,0,0,1,4,0V59.62A2,2,0,0,1,50.63,61.62Z"/><path d="M81.38,55.47C75,55.47,70.05,50.89,70.05,45c0-6.08,4.53-9,6.91-10.33l-1.84-3.14a2.31,2.31,0,0,1,0-2.33,2.42,2.42,0,0,1,2-1.14h8.76a2.42,2.42,0,0,1,2,1.12,2.35,2.35,0,0,1,0,2.35l-1.88,3.21C88.46,36.19,93,39,93,45,93,50.79,87.79,55.47,81.38,55.47ZM78.32,31.09l2,3.43a1.5,1.5,0,0,1-.49,2c-.2.13-.48.28-.84.47-1.93,1-6,3.13-6,8,0,4.17,3.66,7.44,8.33,7.44S90,49.13,90,45c0-4.48-3.57-6.56-5.71-7.81a11.89,11.89,0,0,1-1.18-.75,1.49,1.49,0,0,1-.39-1.95l2-3.43Zm-1.17,0h0Zm8.76,0h0ZM77.71,30h0Z"/><g id="Transportation_Cars_car" data-name="Transportation Cars car"><g id="Group_44" data-name="Group 44"><g id="car"><path d="M63.77,10.66a1.51,1.51,0,0,1-1.37-.88L59.92,4.25A1.81,1.81,0,0,0,58.22,3H43.06a1.78,1.78,0,0,0-1.67,1.16L38.87,9.78a1.5,1.5,0,0,1-2.74-1.23L38.61,3a4.77,4.77,0,0,1,4.44-3H58.22A4.82,4.82,0,0,1,62.7,3.1l2.44,5.45a1.49,1.49,0,0,1-1.37,2.11Z"/><path d="M37.5,24.89a3.69,3.69,0,0,1-3.69-3.68V19a1.5,1.5,0,0,1,3,0v2.24a.69.69,0,0,0,1.38,0V19a1.5,1.5,0,1,1,3,0v2.19A3.69,3.69,0,0,1,37.5,24.89Z"/><path d="M63.77,24.89a3.69,3.69,0,0,1-3.69-3.68V19a1.5,1.5,0,1,1,3,0v2.19a.69.69,0,0,0,1.38,0V19a1.5,1.5,0,0,1,3,0v2.24A3.69,3.69,0,0,1,63.77,24.89Z"/><path d="M62.68,15.59a1.49,1.49,0,0,1-1.3-.75,1.5,1.5,0,0,1,.75-2.8,2.05,2.05,0,0,1,2.05,2.05A1.5,1.5,0,0,1,62.68,15.59ZM62.13,15h0Z"/><path d="M61.58,15.59h0a1.51,1.51,0,0,1-1.5-1.51,2.06,2.06,0,0,1,2.05-2,1.5,1.5,0,0,1,.75,2.8A1.49,1.49,0,0,1,61.58,15.59Z"/><path d="M62.13,16.14a2.06,2.06,0,0,1-2.05-2.05,1.5,1.5,0,0,1,1.5-1.5h0a1.49,1.49,0,0,1,1.3.75,1.5,1.5,0,0,1-.75,2.8Z"/><path d="M62.13,16.13a1.5,1.5,0,0,1-.75-2.8,1.5,1.5,0,0,1,2.8.75A2.05,2.05,0,0,1,62.13,16.13Z"/><path d="M38.6,15.59h0a1.49,1.49,0,0,1-1.49-1.51,2,2,0,0,1,2-2,1.5,1.5,0,0,1,.76,2.8A1.5,1.5,0,0,1,38.6,15.59Z"/><path d="M39.69,15.59a1.49,1.49,0,0,1-1.3-.75,1.5,1.5,0,0,1,.75-2.8,2.06,2.06,0,0,1,2,2,1.51,1.51,0,0,1-1.5,1.51Z"/><path d="M39.14,16.14a1.5,1.5,0,0,1-.75-2.8,1.49,1.49,0,0,1,1.3-.75h0a1.5,1.5,0,0,1,1.5,1.5A2.06,2.06,0,0,1,39.14,16.14Z"/><path d="M39.14,16.13a2.06,2.06,0,0,1-2-2,1.51,1.51,0,0,1,1.5-1.51h0a1.51,1.51,0,0,1,1.3.75,1.5,1.5,0,0,1-.75,2.8Z"/><path d="M35.67,20.52a2.94,2.94,0,0,1-2.09-.87,3,3,0,0,1-.87-2.09V12.08a4.43,4.43,0,0,1,4.42-4.42h27a4.43,4.43,0,0,1,4.42,4.42v5.48a3,3,0,0,1-3,3Zm1.46-9.86a1.43,1.43,0,0,0-1.42,1.42v5.48l29.88,0,0-5.44a1.42,1.42,0,0,0-1.42-1.42Z"/></g></g></g><g id="Building-Construction_Houses_house-fire-1" data-name="Building-Construction Houses house-fire-1"><g id="Group_5" data-name="Group 5"><g id="house-fire-1"><path d="M25.75,51.93H19.13a1.5,1.5,0,0,1-1.5-1.5V43.81a.7.7,0,0,0-.7-.7h-2.2a.71.71,0,0,0-.7.7v6.62a1.5,1.5,0,0,1-1.5,1.5H5.91a1.5,1.5,0,0,1-1.5-1.5V43.81a1.5,1.5,0,0,1,3,0v5.12H11V43.81a3.7,3.7,0,0,1,3.7-3.7h2.2a3.7,3.7,0,0,1,3.7,3.7v5.12h3.62V43.81a1.5,1.5,0,0,1,3,0v6.62A1.5,1.5,0,0,1,25.75,51.93Z"/><path d="M30.18,44.21a1.51,1.51,0,0,1-1.06-.44L16.34,31a.7.7,0,0,0-1,0L2.56,43.77A1.5,1.5,0,0,1,.44,41.65L13.22,28.87a3.71,3.71,0,0,1,5.23,0L31.24,41.65a1.49,1.49,0,0,1,0,2.12A1.51,1.51,0,0,1,30.18,44.21Z"/></g></g></g></g><path d="M52.16,92.48H45.82a1.74,1.74,0,0,1,0-3.47h6.34a2.45,2.45,0,0,0,.91-4.73l-6.44-2.57a5.91,5.91,0,0,1,2.2-11.4h6.34a1.73,1.73,0,0,1,0,3.46H48.83a2.4,2.4,0,0,0-1.73.72,2.45,2.45,0,0,0-.72,1.73,2.47,2.47,0,0,0,1.54,2.28l6.43,2.57a5.92,5.92,0,0,1-2.19,11.41Z"/><path d="M50.5,94.81a1.72,1.72,0,0,1-1.73-1.73V90.75a1.73,1.73,0,1,1,3.46,0v2.33A1.73,1.73,0,0,1,50.5,94.81Z"/><path d="M50.5,101.83A20.44,20.44,0,1,1,70.94,81.39,20.46,20.46,0,0,1,50.5,101.83Zm0-37.42a17,17,0,1,0,17,17A17,17,0,0,0,50.5,64.41Z"/><path d="M50.5,73.77A1.73,1.73,0,0,1,48.77,72V69.7a1.73,1.73,0,1,1,3.46,0V72A1.74,1.74,0,0,1,50.5,73.77Z"/></g></g></g></g></svg>