<svg xmlns="http://www.w3.org/2000/svg" viewBox="0 0 78.46 83.45"><defs><style>.cls-1{isolation:isolate;}</style></defs><g id="Layer_2" data-name="Layer 2"><g id="Layer_1-2" data-name="Layer 1"><g id="Signs_real-estate-sign-building-sold" data-name="Signs real-estate-sign-building-sold"><g id="Group_32" data-name="Group 32"><g id="Regular_32" data-name="Regular 32"><path d="M6.46,52.3a2,2,0,0,1-2-2V4.68A4.68,4.68,0,0,1,9.15,0h0A4.73,4.73,0,0,1,10.79.3L11,.4,40.44,15.63a4.71,4.71,0,0,1,2.91,4.31V50.29a2,2,0,0,1-4,0V20a.69.69,0,0,0-.44-.63l-.22-.09L9.31,4a.32.32,0,0,0-.16,0,.67.67,0,0,0-.48.19.72.72,0,0,0-.21.49V50.3A2,2,0,0,1,6.46,52.3Z"/><path d="M14.52,20.1H6.46a2,2,0,0,1,0-4h8.06a2,2,0,1,1,0,4Z"/><path d="M19.88,30.83H6.46a2,2,0,0,1,0-4H19.88a2,2,0,0,1,0,4Z"/><path d="M54.77,36.19H41.35a2,2,0,1,1,0-4H54.77a2,2,0,1,1,0,4Z"/><path d="M54.77,46.93H41.35a2,2,0,0,1,0-4H54.77a2,2,0,0,1,0,4Z"/><path d="M27.93,13.4a2,2,0,0,1-2-2V2a2,2,0,0,1,4,0v9.4A2,2,0,0,1,27.93,13.4Z"/><path d="M68.19,52.3a2,2,0,0,1-2-2V28.83a3.38,3.38,0,0,0-3.37-3.37H41.35a2,2,0,0,1,0-4H62.82a7.39,7.39,0,0,1,7.37,7.37V50.3A2,2,0,0,1,68.19,52.3Z"/><g id="BUY" class="cls-1"><g class="cls-1"><path d="M13.1,55a16.94,16.94,0,0,1,3.63.35,7.84,7.84,0,0,1,2.81,1.15,5.34,5.34,0,0,1,1.81,2.12A7.49,7.49,0,0,1,22,61.88a6.1,6.1,0,0,1-1,3.51,6.94,6.94,0,0,1-2.83,2.3,6.67,6.67,0,0,1,3.84,2.6,8.5,8.5,0,0,1,.45,8.11,7.11,7.11,0,0,1-2.2,2.51,9.94,9.94,0,0,1-3.16,1.45,14.32,14.32,0,0,1-3.65.46H3.81A3.8,3.8,0,0,1,0,79V58.79A3.8,3.8,0,0,1,3.81,55Zm-.78,11.27A4.38,4.38,0,0,0,15,65.47a2.94,2.94,0,0,0,1.06-2.54,3.3,3.3,0,0,0-.35-1.6,2.65,2.65,0,0,0-.94-1,3.83,3.83,0,0,0-1.34-.49,9.11,9.11,0,0,0-1.58-.13H6.12v6.51Zm.35,11.82a8,8,0,0,0,1.72-.18,4,4,0,0,0,1.44-.59,2.91,2.91,0,0,0,1-1.11,3.75,3.75,0,0,0,.37-1.79A3.59,3.59,0,0,0,16,71.34a5.17,5.17,0,0,0-3.2-.92H6.12v7.65Z"/><path d="M47.93,80.7c-2.1,1.83-5,2.75-8.74,2.75s-6.68-.91-8.75-2.73-3.1-4.63-3.1-8.43V58a3,3,0,0,1,3-3h.14a3,3,0,0,1,3,3V72.29a12.67,12.67,0,0,0,.2,2.23,4.51,4.51,0,0,0,.82,1.93,4.43,4.43,0,0,0,1.73,1.36,7.07,7.07,0,0,0,3,.53c2.19,0,3.7-.49,4.53-1.46A7,7,0,0,0,45,72.29V58a3,3,0,0,1,3-3h.13a3,3,0,0,1,3,3V72.29Q51.09,77.94,47.93,80.7Z"/><path d="M57,55h2.09a2.05,2.05,0,0,1,1.76,1L65,63a2,2,0,0,0,3.51,0l4.13-7a2.05,2.05,0,0,1,1.76-1h2a2,2,0,0,1,1.75,3.09L70,71.65a2,2,0,0,0-.3,1.06v8.07a2,2,0,0,1-2,2h-2a2,2,0,0,1-2-2V72.55a2,2,0,0,0-.29-1L55.21,58.07A2,2,0,0,1,57,55Z"/></g></g></g></g></g></g></g></svg>