<svg xmlns="http://www.w3.org/2000/svg" viewBox="0 0 70 94"><g id="Layer_2" data-name="Layer 2"><g id="Layer_1-2" data-name="Layer 1"><g id="Users_Geometric-Close-Up-Single-User-Neutral_single-neutral-id-card-1" data-name="Users Geometric-Close-Up-Single-User-Neutral single-neutral-id-card-1"><g id="Group_301" data-name="Group 301"><g id="Regular_301" data-name="Regular 301"><path d="M62,94H8a8,8,0,0,1-8-8V20a8,8,0,0,1,8-8H26a2,2,0,0,1,0,4H8a4,4,0,0,0-4,4V86a4,4,0,0,0,4,4H62a4,4,0,0,0,4-4V20a4,4,0,0,0-4-4H44a2,2,0,0,1,0-4H62a8,8,0,0,1,8,8V86A8,8,0,0,1,62,94Z"/><path d="M41,28H29a5,5,0,0,1-5-5V11a11,11,0,0,1,22,0V23A5,5,0,0,1,41,28ZM35,4a7,7,0,0,0-7,7V23a1,1,0,0,0,1,1H41a1,1,0,0,0,1-1V11A7,7,0,0,0,35,4Z"/><path d="M35,67A15.5,15.5,0,1,1,50.5,51.5,15.51,15.51,0,0,1,35,67Zm0-27A11.5,11.5,0,1,0,46.5,51.5,11.51,11.51,0,0,0,35,40Z"/><path d="M59,94a2,2,0,0,1-2-1.74,22.22,22.22,0,0,0-44,0,2,2,0,1,1-4-.53,26.21,26.21,0,0,1,52,0A2,2,0,0,1,59.27,94Z"/></g></g></g></g></g></svg>