<svg xmlns="http://www.w3.org/2000/svg" viewBox="0 0 94 88"><defs><style>.cls-1{isolation:isolate;}</style></defs><g id="Layer_2" data-name="Layer 2"><g id="Layer_1-2" data-name="Layer 1"><g id="Hotels-Spas_Spas_spa-sign" data-name="Hotels-Spas Spas spa-sign"><g id="Group_76-2" data-name="Group 76-2"><g id="spa-sign"><path d="M5.93,88A6,6,0,0,1,0,82.12v-45a6,6,0,0,1,6-5.88H88.07A6,6,0,0,1,94,37.14v45a6,6,0,0,1-6,5.91H5.93ZM4,37.18V82.09A2,2,0,0,0,6,84H88a2,2,0,0,0,2-1.93V37.16a2,2,0,0,0-2-1.9H6A2,2,0,0,0,4,37.18Z"/><path d="M20,33.3a2,2,0,0,1-2-2V2a2,2,0,0,1,4,0V31.3A2,2,0,0,1,20,33.3Z"/><path d="M74,33.3a2,2,0,0,1-2-2V2a2,2,0,0,1,4,0V31.3A2,2,0,0,1,74,33.3Z"/><path d="M92,4H2A2,2,0,0,1,2,0H92a2,2,0,0,1,0,4Z"/><g class="cls-1"><path d="M27.71,49.42l7,18.72a2.42,2.42,0,0,1-2.27,3.27h-.16A2.43,2.43,0,0,1,30,69.77l-1.22-3.61H20l-1.28,3.63a2.42,2.42,0,0,1-2.28,1.62h0a2.42,2.42,0,0,1-2.27-3.28l7.08-18.72a2.43,2.43,0,0,1,2.27-1.56h2A2.42,2.42,0,0,1,27.71,49.42Zm-.3,12.88-3-8.65h-.06L21.31,62.3Z"/><path d="M49.06,47.85a15.25,15.25,0,0,1,3.07.29,6.66,6.66,0,0,1,2.38,1A4.48,4.48,0,0,1,56,50.92a6.19,6.19,0,0,1,.55,2.77,5.14,5.14,0,0,1-.81,3,5.87,5.87,0,0,1-2.39,1.94,5.68,5.68,0,0,1,3.25,2.2A7.22,7.22,0,0,1,57,67.66a6.11,6.11,0,0,1-1.87,2.13A8.15,8.15,0,0,1,52.48,71a11.8,11.8,0,0,1-3.09.4H40.12A2.14,2.14,0,0,1,38,69.27V50a2.14,2.14,0,0,1,2.15-2.14Zm-.66,9.53a3.71,3.71,0,0,0,2.28-.66,2.49,2.49,0,0,0,.89-2.14,2.7,2.7,0,0,0-.3-1.35,2.11,2.11,0,0,0-.79-.83A3.36,3.36,0,0,0,49.34,52,7.23,7.23,0,0,0,48,51.87H43.16v5.51Zm.3,10a6.79,6.79,0,0,0,1.45-.15,3.4,3.4,0,0,0,1.22-.49,2.55,2.55,0,0,0,.84-.94,3.23,3.23,0,0,0,.32-1.52,3,3,0,0,0-1-2.59,4.33,4.33,0,0,0-2.7-.78H43.16v6.47Z"/><path d="M65,47.85A2.43,2.43,0,0,1,67.07,49l9.12,14.66h.06V50.27a2.42,2.42,0,0,1,2.43-2.42h0a2.42,2.42,0,0,1,2.43,2.42V69a2.43,2.43,0,0,1-2.43,2.43H77.27a2.42,2.42,0,0,1-2.06-1.15L66.12,55.63h-.06V69a2.43,2.43,0,0,1-2.43,2.43h0A2.42,2.42,0,0,1,61.21,69V50.27a2.42,2.42,0,0,1,2.42-2.42Z"/></g></g></g></g></g></g></svg>