<svg xmlns="http://www.w3.org/2000/svg" viewBox="0 0 94 94"><g id="Layer_2" data-name="Layer 2"><g id="Layer_1-2" data-name="Layer 1"><g id="Work-Office-Companies_Tasks_task-list-check-1" data-name="Work-Office-Companies Tasks task-list-check-1"><g id="Group_76" data-name="Group 76"><g id="task-list-check-1"><path d="M41,43H20a2,2,0,0,1,0-4H41a2,2,0,0,1,0,4Z"/><path d="M32,58H20a2,2,0,0,1,0-4H32a2,2,0,0,1,0,4Z"/><path d="M32,73H20a2,2,0,0,1,0-4H32a2,2,0,0,1,0,4Z"/><path d="M38,94H8a8,8,0,0,1-8-8V23a8,8,0,0,1,8-8H21.12a17,17,0,0,1,33.76,0H68a8,8,0,0,1,8,8v9a2,2,0,0,1-4,0V23a4,4,0,0,0-4-4H53a2,2,0,0,1-2-2,13,13,0,0,0-26,0,2,2,0,0,1-2,2H8a4,4,0,0,0-4,4V86a4,4,0,0,0,4,4H38a2,2,0,0,1,0,4Z"/><path d="M38,19a3.5,3.5,0,1,1,3.5-3.5A3.5,3.5,0,0,1,38,19Zm0-4a.5.5,0,1,0,.5.5A.5.5,0,0,0,38,15Z"/><path d="M68,94A26,26,0,1,1,94,68,26,26,0,0,1,68,94Zm0-48A22,22,0,1,0,90,68,22,22,0,0,0,68,46Z"/><path d="M64.67,79.72a4.91,4.91,0,0,1-3-1,4,4,0,0,1-.54-.47l-6-6A2,2,0,1,1,58,69.43l6,6,.11.09a1,1,0,0,0,.74.19,1,1,0,0,0,.66-.39L77.1,59.82a2,2,0,0,1,3.2,2.4L68.68,77.72a5,5,0,0,1-3.3,2A4.31,4.31,0,0,1,64.67,79.72Z"/></g></g></g></g></g></svg>