<svg xmlns="http://www.w3.org/2000/svg" viewBox="0 0 109.12 82"><g id="Layer_2" data-name="Layer 2"><g id="Layer_1-2" data-name="Layer 1"><g id="Business-Products_Business_user-cash-scale" data-name="Business-Products Business user-cash-scale"><g id="Group_28" data-name="Group 28"><g id="user-cash-scale"><path d="M77.12,40a2,2,0,0,1,0-4h8.13a3.35,3.35,0,0,0,3.13-2.11,3.37,3.37,0,0,0-1.87-4.38L78.25,26.2A7.36,7.36,0,0,1,81,12h8.13a2,2,0,0,1,0,4H81a3.36,3.36,0,0,0-1.25,6.49L88,25.8A7.36,7.36,0,0,1,85.26,40H77.12Z"/><path d="M83.12,16a2,2,0,0,1-2-2V11a2,2,0,0,1,4,0v3A2,2,0,0,1,83.12,16Z"/><path d="M83.12,43a2,2,0,0,1-2-2V38a2,2,0,0,1,4,0v3A2,2,0,0,1,83.12,43Z"/><path d="M83.12,52a26,26,0,1,1,26-26A26,26,0,0,1,83.12,52Zm0-48a22,22,0,1,0,22,22A22,22,0,0,0,83.12,4Z"/><path d="M106.61,55,18.43,73a2,2,0,0,1-.8-3.92l88.19-18a2,2,0,0,1,.79,3.92Z"/><path d="M74.12,82h-24a2,2,0,0,1-1.8-1.13,2,2,0,0,1,.24-2.12l12-15a2.06,2.06,0,0,1,3.12,0l12,15A2,2,0,0,1,74.12,82ZM54.28,78H70l-7.84-9.8Z"/><g id="Group_3" data-name="Group 3"><path d="M34.87,61.81H16.09a6.71,6.71,0,0,1-6.7-6.7V33.3a2,2,0,0,1,4,0V55.11a2.7,2.7,0,0,0,2.7,2.7H34.87a2.7,2.7,0,0,0,2.7-2.7V33.3a2,2,0,0,1,4,0V55.11A6.71,6.71,0,0,1,34.87,61.81Z"/><path d="M49,43.75a2,2,0,0,1-1.34-.51L27.27,24.94a2.69,2.69,0,0,0-3.59,0L3.34,43.24a2,2,0,1,1-2.68-3L21,22a6.7,6.7,0,0,1,8.93,0L50.3,40.27A2,2,0,0,1,49,43.75Z"/><path d="M44.26,39.52a2,2,0,0,1-2-2V24.59a2,2,0,1,1,4,0V37.52A2,2,0,0,1,44.26,39.52Z"/></g></g></g></g></g></g></svg>