<svg xmlns="http://www.w3.org/2000/svg" viewBox="0 0 94 93.43"><g id="Layer_2" data-name="Layer 2"><g id="Layer_1-2" data-name="Layer 1"><g id="Romance_Love_love-heart-hands-hold" data-name="Romance Love love-heart-hands-hold"><g id="Group_13" data-name="Group 13"><g id="love-heart-hands-hold"><path d="M80,93.43a2,2,0,0,1-1.53-3.29l8.06-9.53a16,16,0,0,0,3.47-10V50a4,4,0,0,0-8,0V65a2,2,0,0,1-4,0V50a8,8,0,0,1,16,0V70.66a20.15,20.15,0,0,1-4.38,12.5l-8.09,9.56A2,2,0,0,1,80,93.43Z"/><path d="M62,93.43a2,2,0,0,1-2-2v-12a20,20,0,0,1,3.36-11.11l4.57-6.86a7.46,7.46,0,0,1,4.62-3.38,7.55,7.55,0,0,1,5.76.86l.29.18a7.6,7.6,0,0,1,2.59,9.75s0,.09-.07.13l-5.4,9a2,2,0,1,1-3.43-2L77.65,67a3.62,3.62,0,0,0-1.25-4.56l-.15-.1a3.61,3.61,0,0,0-4.94,1.24l-4.62,6.94A16,16,0,0,0,64,79.43v12A2,2,0,0,1,62,93.43Z"/><path d="M14,93.43a2,2,0,0,1-1.53-.71l-8-9.52A20.08,20.08,0,0,1,0,70.66V50a8,8,0,0,1,16,0V65a2,2,0,0,1-4,0V50a4,4,0,0,0-8,0V70.66a16.08,16.08,0,0,0,3.5,10l8,9.48A2,2,0,0,1,14,93.43Z"/><path d="M32,93.43a2,2,0,0,1-2-2v-12a16,16,0,0,0-2.69-8.89l-4.57-6.86A3.69,3.69,0,0,0,20.47,62a3.56,3.56,0,0,0-2.72.41l-.16.09A3.62,3.62,0,0,0,16.35,67L21.71,76a2,2,0,1,1-3.43,2l-5.4-9s-.05-.08-.07-.13a7.6,7.6,0,0,1,2.58-9.74l.3-.19a7.59,7.59,0,0,1,10.43,2.61l4.52,6.77A20,20,0,0,1,34,79.43v12A2,2,0,0,1,32,93.43Z"/><path d="M35.11,46a14.11,14.11,0,0,1-10-24.08L45.56.59a2,2,0,0,1,2.88,0L68.9,21.93a14.1,14.1,0,0,1-20,19.91L47,39.91l-1.93,1.93a14.15,14.15,0,0,1-10,4.14ZM47,4.86,28,24.7a10.09,10.09,0,0,0,3.92,16.75A10.09,10.09,0,0,0,42.24,39l3.34-3.34A2,2,0,0,1,47,35.09h0a2,2,0,0,1,1.41.58L51.75,39A10.12,10.12,0,0,0,66,39a9.94,9.94,0,0,0,1.89-2.62A10.08,10.08,0,0,0,66,24.73Z"/></g></g></g></g></g></svg>