<svg xmlns="http://www.w3.org/2000/svg" viewBox="0 0 94 94"><g id="Layer_2" data-name="Layer 2"><g id="Layer_1-2" data-name="Layer 1"><g id="Work-Office-Companies_Tasks_task-list-warning" data-name="Work-Office-Companies Tasks task-list-warning"><g id="Group_105" data-name="Group 105"><g id="task-list-warning"><path d="M47,43H20a2,2,0,0,1,0-4H47a2,2,0,0,1,0,4Z"/><path d="M29,58H20a2,2,0,0,1,0-4h9a2,2,0,0,1,0,4Z"/><path d="M29,73H20a2,2,0,0,1,0-4h9a2,2,0,0,1,0,4Z"/><path d="M35,94H8a8,8,0,0,1-8-8V23a8,8,0,0,1,8-8H21.12a17,17,0,0,1,33.76,0H68a8,8,0,0,1,8,8v9a2,2,0,0,1-4,0V23a4,4,0,0,0-4-4H53a2,2,0,0,1-2-2,13,13,0,0,0-26,0,2,2,0,0,1-2,2H8a4,4,0,0,0-4,4V86a4,4,0,0,0,4,4H35a2,2,0,0,1,0,4Z"/><path d="M38,19a3.5,3.5,0,1,1,3.5-3.5A3.5,3.5,0,0,1,38,19Zm0-4a.5.5,0,1,0,.5.5A.5.5,0,0,0,38,15Z"/><path d="M68,85a3.5,3.5,0,1,1,3.5-3.5A3.5,3.5,0,0,1,68,85Zm0-4a.5.5,0,0,0-.5.5.5.5,0,0,0,1,0A.5.5,0,0,0,68,81Z"/><path d="M68,73a2,2,0,0,1-2-2V59a2,2,0,0,1,4,0V71A2,2,0,0,1,68,73Z"/><path d="M84.9,94H51.1A9.1,9.1,0,0,1,43,80.79L59.86,47a9.11,9.11,0,0,1,12.21-4.07A9.21,9.21,0,0,1,76.14,47L93,80.79h0A9.11,9.11,0,0,1,84.9,94ZM68,46a5.26,5.26,0,0,0-1.61.26,5.07,5.07,0,0,0-3,2.56L46.54,82.58A5.1,5.1,0,0,0,51.1,90H84.9a5.16,5.16,0,0,0,2.28-.54,5.11,5.11,0,0,0,2.28-6.84L72.56,48.77a5.13,5.13,0,0,0-2.28-2.28A5.06,5.06,0,0,0,68,46Z"/></g></g></g></g></g></svg>