<svg xmlns="http://www.w3.org/2000/svg" viewBox="0 0 83.41 79"><g id="Layer_2" data-name="Layer 2"><g id="Layer_1-2" data-name="Layer 1"><g id="Building-Construction_Houses_house-3" data-name="Building-Construction Houses house-3"><g id="house-3"><path d="M2,33.12A2,2,0,0,1,.82,29.51L37.39,2.68a7.28,7.28,0,0,1,8.63,0L82.59,29.51a2,2,0,0,1-2.36,3.22L43.65,5.91a3.29,3.29,0,0,0-3.9,0L3.18,32.73A2,2,0,0,1,2,33.12Z"/><path d="M70.82,25.35a2,2,0,0,1-2-2V4H56.94v7.71a2,2,0,1,1-4,0V2a2,2,0,0,1,2-2H70.82a2,2,0,0,1,2,2V23.35A2,2,0,0,1,70.82,25.35Z"/><path d="M81.41,79H2a2,2,0,0,1,0-4H81.41a2,2,0,0,1,0,4Z"/><path id="Path_30" data-name="Path 30" d="M66.77,44.92h11.9a2.34,2.34,0,1,1,.1,4.67h-12l1.86,1.86a2.34,2.34,0,0,1-3.31,3.31l-5.85-5.85a2.35,2.35,0,0,1,0-3.31l5.85-5.85a2.34,2.34,0,0,1,3.31,3.31Zm-51,4.67H3.83a2.34,2.34,0,0,1,0-4.67h11.9l-1.86-1.86a2.34,2.34,0,0,1,3.31-3.3L23,45.6a2.35,2.35,0,0,1,0,3.31l-5.85,5.85a2.34,2.34,0,0,1-3.31-3.31l1.86-1.85Zm10,19.32a2.65,2.65,0,0,1-2.78.37c-.91-.41-1.16-1.26-.54-1.88a29.66,29.66,0,0,0,8.12-20.89,29.66,29.66,0,0,0-8.12-20.89c-.61-.63-.37-1.47.55-1.88a2.63,2.63,0,0,1,2.77.37,31.77,31.77,0,0,1,8.8,22.4A31.77,31.77,0,0,1,25.71,68.91ZM57.3,24.11a2.63,2.63,0,0,1,2.77-.37c.92.42,1.16,1.26.55,1.88a29.67,29.67,0,0,0-8.11,20.89,29.69,29.69,0,0,0,8.11,20.9c.62.62.37,1.46-.54,1.87a2.64,2.64,0,0,1-2.78-.36,31.8,31.8,0,0,1-8.79-22.41A31.76,31.76,0,0,1,57.3,24.11Z"/></g></g></g></g></svg>