<svg xmlns="http://www.w3.org/2000/svg" viewBox="0 0 94 94"><g id="Layer_2" data-name="Layer 2"><g id="Layer_1-2" data-name="Layer 1"><g id="Work-Office-Companies_Tasks_task-list-clock" data-name="Work-Office-Companies Tasks task-list-clock"><g id="Group_79" data-name="Group 79"><g id="task-list-clock"><path d="M68,94A26,26,0,1,1,94,68,26,26,0,0,1,68,94Zm0-48A22,22,0,1,0,90,68,22,22,0,0,0,68,46Z"/><path d="M78.61,70H68a2,2,0,0,1-2-2V57.39a2,2,0,0,1,4,0V66h8.61a2,2,0,1,1,0,4Z"/><path d="M41,43H20a2,2,0,0,1,0-4H41a2,2,0,0,1,0,4Z"/><path d="M32,58H20a2,2,0,0,1,0-4H32a2,2,0,0,1,0,4Z"/><path d="M32,73H20a2,2,0,0,1,0-4H32a2,2,0,0,1,0,4Z"/><path d="M38,94H8a8,8,0,0,1-8-8V23a8,8,0,0,1,8-8H21.12a17,17,0,0,1,33.76,0H68a8,8,0,0,1,8,8v9a2,2,0,0,1-4,0V23a4,4,0,0,0-4-4H53a2,2,0,0,1-2-2,13,13,0,0,0-26,0,2,2,0,0,1-2,2H8a4,4,0,0,0-4,4V86a4,4,0,0,0,4,4H38a2,2,0,0,1,0,4Z"/><path d="M38,19a3.5,3.5,0,1,1,3.5-3.5A3.5,3.5,0,0,1,38,19Zm0-4a.5.5,0,1,0,.5.5A.5.5,0,0,0,38,15Z"/></g></g></g></g></g></svg>