<svg xmlns="http://www.w3.org/2000/svg" viewBox="0 0 93.99 94"><g id="Layer_2" data-name="Layer 2"><g id="Layer_1-2" data-name="Layer 1"><g id="Money-Payments-Finance_Cash-Payments_cash-payment-bag" data-name="Money-Payments-Finance Cash-Payments cash-payment-bag"><g id="Group_138" data-name="Group 138"><g id="cash-payment-bag"><path d="M2,94a2,2,0,0,1-2-2V56a2,2,0,0,1,4,0V92A2,2,0,0,1,2,94Z"/><path d="M68,88H2a2,2,0,0,1,0-4H65.8A10,10,0,0,0,56,76H41a2,2,0,0,1-2-2A10,10,0,0,0,29,64H2a2,2,0,0,1,0-4H29A14,14,0,0,1,42.86,72H56A14,14,0,0,1,70,86,2,2,0,0,1,68,88Z"/><path d="M41,76H26a2,2,0,0,1,0-4H41a2,2,0,0,1,0,4Z"/><path d="M80,73a2,2,0,0,1-1.19-3.6,27.9,27.9,0,0,0-7.55-48.74A2,2,0,0,1,70,19.49a2,2,0,0,1,.15-1.7L77.56,5.11a.73.73,0,0,0,0-.73.79.79,0,0,0-.7-.38H47.16a.83.83,0,0,0-.72.4.72.72,0,0,0,0,.71l7.41,12.68a2,2,0,0,1,.15,1.7,2,2,0,0,1-1.22,1.2A27.93,27.93,0,0,0,34,47a2,2,0,0,1-2,2h0a2,2,0,0,1-2-2A32,32,0,0,1,49.23,17.78L43,7.13a4.73,4.73,0,0,1,0-4.77A4.85,4.85,0,0,1,47.15,0H76.84A4.84,4.84,0,0,1,81,2.34a4.75,4.75,0,0,1,0,4.79L74.78,17.78a31.91,31.91,0,0,1,6.37,54.86A2,2,0,0,1,80,73Z"/><path d="M60.81,59.89a10.88,10.88,0,0,1-8.6-4.3,2,2,0,0,1,3.18-2.42,6.92,6.92,0,0,0,5.76,2.71c3.47,0,6.33-1.92,6.33-4.19s-2.86-4.18-6.25-4.18C55.59,47.51,51,43.83,51,39.32s4.6-8.19,10.25-8.19a10.84,10.84,0,0,1,9,4.29,2,2,0,0,1-3.18,2.42,6.88,6.88,0,0,0-5.76-2.71c-3.47,0-6.33,1.92-6.33,4.19s2.85,4.19,6.23,4.19c5.65,0,10.25,3.67,10.25,8.18s-4.6,8.19-10.25,8.19Z"/><path d="M61.25,64a2,2,0,0,1-2-2V57.88a2,2,0,1,1,4,0V62A2,2,0,0,1,61.25,64Z"/><path d="M61.25,35.12a2,2,0,0,1-2-2V29a2,2,0,0,1,4,0v4.12A2,2,0,0,1,61.25,35.12Z"/></g></g></g></g></g></svg>