<svg xmlns="http://www.w3.org/2000/svg" viewBox="0 0 96.48 97.84"><g id="Layer_2" data-name="Layer 2"><g id="Layer_1-2" data-name="Layer 1"><g id="Business-Products_Business_profile-man-cash-message" data-name="Business-Products Business profile-man-cash-message"><g id="Group_23" data-name="Group 23"><g id="profile-man-cash-message"><path d="M59.47,51.42a1.53,1.53,0,0,0,3.06,0V49.86h.34a4.29,4.29,0,0,0,1.6-8.27L59,39.87a1.21,1.21,0,0,1-.75-1.14,1.26,1.26,0,0,1,.36-.87,1.23,1.23,0,0,1,.88-.36h5.4a1.53,1.53,0,0,0,0-3.06H62.53V32.88a1.53,1.53,0,1,0-3.06,0v1.56h0a4.3,4.3,0,0,0-1.59,8.29l5.49,1.7a1.29,1.29,0,0,1,.65.65,1.25,1.25,0,0,1,0,1,1.23,1.23,0,0,1-1.14.77h-6.5a1.53,1.53,0,1,0,0,3.06h3.1Z"/><path d="M86.23,34h5.63a4.62,4.62,0,0,0,4.62-4.62V4.62A4.62,4.62,0,0,0,91.86,0H67.14a4.62,4.62,0,0,0-4.62,4.62,1.53,1.53,0,0,0,3.06,0,1.56,1.56,0,0,1,1.56-1.56H91.86a1.56,1.56,0,0,1,1.56,1.56V29.34a1.56,1.56,0,0,1-1.56,1.56H85.68a1.54,1.54,0,0,0-1,.36L78,36.86V30.12a4.62,4.62,0,0,0-4.62-4.62H48.64A4.62,4.62,0,0,0,44,30.12a1.53,1.53,0,0,0,3.06,0,1.56,1.56,0,0,1,1.56-1.56H73.36a1.56,1.56,0,0,1,1.56,1.56v2a2,2,0,0,0,0,.34v7.73a1.26,1.26,0,0,0,0,.28v14.4a1.56,1.56,0,0,1-1.56,1.56H67.18a1.54,1.54,0,0,0-1,.36l-6.76,5.63V57.93a1.53,1.53,0,0,0-3.06,0v7.73a1.56,1.56,0,0,0,.88,1.39,1.65,1.65,0,0,0,.65.14,1.52,1.52,0,0,0,1-.36l8.84-7.37h5.63A4.62,4.62,0,0,0,78,54.84v-.78H91.86a1.56,1.56,0,0,1,1.56,1.56V80.34a1.56,1.56,0,0,1-1.56,1.56H85.68a1.54,1.54,0,0,0-1,.36l-6.76,5.63V83.43a1.53,1.53,0,0,0-3.06,0v7.73a1.56,1.56,0,0,0,.88,1.39,1.65,1.65,0,0,0,.65.14,1.52,1.52,0,0,0,1-.36L86.23,85h5.63a4.62,4.62,0,0,0,4.62-4.62V55.62A4.62,4.62,0,0,0,91.86,51H78V40.84Z"/><path d="M81.37,21.3h-6.5a1.53,1.53,0,0,0,0,3.06H78v1.56a1.53,1.53,0,0,0,3.06,0V24.36h.34A4.29,4.29,0,0,0,83,16.09l-5.5-1.72a1.21,1.21,0,0,1-.75-1.14,1.26,1.26,0,0,1,.36-.87A1.23,1.23,0,0,1,78,12h5.4a1.53,1.53,0,1,0,0-3.06H81V7.38a1.53,1.53,0,1,0-3.06,0V8.94h0a4.3,4.3,0,0,0-1.59,8.29l5.49,1.7a1.29,1.29,0,0,1,.65.65,1.25,1.25,0,0,1,0,1A1.23,1.23,0,0,1,81.37,21.3Z"/><path d="M78,76.92a1.53,1.53,0,1,0,3.06,0V75.36h.34A4.29,4.29,0,0,0,83,67.09l-5.5-1.72a1.21,1.21,0,0,1-.75-1.14,1.26,1.26,0,0,1,.36-.87A1.23,1.23,0,0,1,78,63h5.4a1.53,1.53,0,0,0,0-3.06H81V58.38a1.53,1.53,0,1,0-3.06,0v1.56h0a4.3,4.3,0,0,0-1.59,8.29l5.49,1.7a1.29,1.29,0,0,1,.65.65,1.25,1.25,0,0,1,0,1,1.23,1.23,0,0,1-1.14.77h-6.5a1.53,1.53,0,0,0,0,3.06H78Z"/><path d="M30.1,52.81A37.06,37.06,0,0,1,3.46,41.57a2,2,0,0,1,2.88-2.78A33,33,0,0,0,43,46.16a2,2,0,1,1,1.58,3.68A36.67,36.67,0,0,1,30.1,52.81Z"/><path d="M23,73.84a23,23,0,1,1,23-23A23,23,0,0,1,23,73.84Zm0-42a19,19,0,1,0,19,19A19,19,0,0,0,23,31.84Z"/><path d="M53.7,97.84a2,2,0,0,1-1.58-.77,36.7,36.7,0,0,0-49-8.38A2,2,0,1,1,.92,85.33a40.68,40.68,0,0,1,54.36,9.28,2,2,0,0,1-.35,2.81A2,2,0,0,1,53.7,97.84Z"/></g></g></g></g></g></svg>