<svg xmlns="http://www.w3.org/2000/svg" viewBox="0 0 94 70"><g id="Layer_2" data-name="Layer 2"><g id="Layer_1-2" data-name="Layer 1"><g id="Users_Geomertric-Close-Up-Multiple-Users_multiple-man" data-name="Users Geomertric-Close-Up-Multiple-Users multiple-man"><g id="Group_493" data-name="Group 493"><g id="Regular_493" data-name="Regular 493"><path d="M56,70a2,2,0,0,1-2-2A25,25,0,0,0,4,68a2,2,0,0,1-4,0,29,29,0,0,1,58,0A2,2,0,0,1,56,70Z"/><path d="M34.58,20.47a29.56,29.56,0,0,1-21.24-9,2,2,0,0,1,2.88-2.78,25.56,25.56,0,0,0,28.34,5.7,2,2,0,1,1,1.58,3.67A29.17,29.17,0,0,1,34.58,20.47Z"/><path d="M29,37A18.5,18.5,0,1,1,47.5,18.5,18.52,18.52,0,0,1,29,37ZM29,4A14.5,14.5,0,1,0,43.5,18.5,14.51,14.51,0,0,0,29,4Z"/><path d="M65,37a18.5,18.5,0,0,1-10.1-3,2,2,0,0,1,2.18-3.35,14.5,14.5,0,1,0,0-24.31A2,2,0,0,1,54.91,3,18.5,18.5,0,1,1,65,37Z"/><path d="M92,70a2,2,0,0,1-2-2,24.8,24.8,0,0,0-.62-5.5A25.06,25.06,0,0,0,59.44,43.62a2,2,0,1,1-.88-3.9,29.05,29.05,0,0,1,34.72,21.9A28.5,28.5,0,0,1,94,68a2,2,0,0,1-2,2Z"/><path d="M70.52,20.48A29.42,29.42,0,0,1,54.93,16a2,2,0,0,1,2.12-3.4,25.42,25.42,0,0,0,23.51,1.8,2,2,0,1,1,1.58,3.67A29.41,29.41,0,0,1,70.52,20.48Z"/></g></g></g></g></g></svg>