<svg xmlns="http://www.w3.org/2000/svg" viewBox="0 0 94 82"><g id="Layer_2" data-name="Layer 2"><g id="Layer_1-2" data-name="Layer 1"><g id="Building-Construction_Houses_house-3" data-name="Building-Construction Houses house-3"><g id="Group_3" data-name="Group 3"><g id="house-3"><path d="M86,82H44a2,2,0,0,1-2-2V56a4,4,0,0,0-4-4H32a4,4,0,0,0-4,4V80a2,2,0,0,1-2,2H8a2,2,0,0,1-2-2V30.6a2,2,0,0,1,4,0V78H24V56a8,8,0,0,1,8-8h6a8,8,0,0,1,8,8V78H84V30.6a2,2,0,1,1,4,0V80A2,2,0,0,1,86,82Z"/><path d="M2,37A2,2,0,0,1,.82,33.39L42.27,3a8,8,0,0,1,9.47,0l41.44,30.4a2,2,0,1,1-2.36,3.22L49.37,6.21a4,4,0,0,0-4.73,0L3.18,36.61A2,2,0,0,1,2,37Z"/><path d="M80,28.2a2,2,0,0,1-2-2V4H64v9a2,2,0,0,1-4,0V2a2,2,0,0,1,2-2H80a2,2,0,0,1,2,2V26.2A2,2,0,0,1,80,28.2Z"/><path d="M74,70H56a2,2,0,0,1-2-2V50a2,2,0,0,1,2-2H74a2,2,0,0,1,2,2V68A2,2,0,0,1,74,70ZM58,66H72V52H58Z"/><path d="M92,82H2a2,2,0,0,1,0-4H92a2,2,0,0,1,0,4Z"/></g></g></g></g></g></svg>