<svg xmlns="http://www.w3.org/2000/svg" viewBox="0 0 82 94"><g id="Layer_2" data-name="Layer 2"><g id="Layer_1-2" data-name="Layer 1"><g id="Users_Geometric-Close-Up-Single-User-Actions-Man_single-man-actions" data-name="Users Geometric-Close-Up-Single-User-Actions-Man single-man-actions"><g id="Group_440" data-name="Group 440"><g id="Regular_440" data-name="Regular 440"><path d="M48.1,25A37.07,37.07,0,0,1,21.46,13.71a2,2,0,0,1,2.88-2.78A33.06,33.06,0,0,0,61,18.31,2,2,0,0,1,62.6,22,36.76,36.76,0,0,1,48.1,25Z"/><path d="M41,46A23,23,0,1,1,64,23,23,23,0,0,1,41,46ZM41,4A19,19,0,1,0,60,23,19,19,0,0,0,41,4Z"/><path d="M80,94a2,2,0,0,1-2-2A37,37,0,0,0,4,92a2,2,0,0,1-4,0,41,41,0,0,1,82,0A2,2,0,0,1,80,94Z"/></g></g></g></g></g></svg>