<svg xmlns="http://www.w3.org/2000/svg" viewBox="0 0 94 94"><g id="Layer_2" data-name="Layer 2"><g id="Layer_1-2" data-name="Layer 1"><g id="Building-Construction_Buildings_buildings" data-name="Building-Construction Buildings buildings"><g id="Group_38" data-name="Group 38"><g id="buildings"><path d="M90,94H58a4,4,0,0,1-4-4V34a4,4,0,0,1,4-4H90a4,4,0,0,1,4,4V90A4,4,0,0,1,90,94ZM58,34V90H90V34Z"/><path d="M42,94H4a4,4,0,0,1-4-4V46a4,4,0,0,1,4-4H42a4,4,0,0,1,4,4V90A4,4,0,0,1,42,94ZM4,46V90H42V46Z"/><path d="M38,46a2,2,0,0,1-2-2V11a1,1,0,0,0-1-1H11a1,1,0,0,0-1,1V44a2,2,0,0,1-4,0V11a5,5,0,0,1,5-5H35a5,5,0,0,1,5,5V44A2,2,0,0,1,38,46Z"/><path d="M20,10a2,2,0,0,1-2-2V2a2,2,0,0,1,4,0V8A2,2,0,0,1,20,10Z"/><path d="M26,34H20a2,2,0,0,1,0-4h6a2,2,0,0,1,0,4Z"/><path d="M26,22H20a2,2,0,0,1,0-4h6a2,2,0,0,1,0,4Z"/><path d="M32,58H14a2,2,0,0,1,0-4H32a2,2,0,0,1,0,4Z"/><path d="M32,70H14a2,2,0,0,1,0-4H32a2,2,0,0,1,0,4Z"/><path d="M32,82H14a2,2,0,0,1,0-4H32a2,2,0,0,1,0,4Z"/><path d="M80,58H68a2,2,0,0,1,0-4H80a2,2,0,0,1,0,4Z"/><path d="M80,46H68a2,2,0,0,1,0-4H80a2,2,0,0,1,0,4Z"/><path d="M80,70H68a2,2,0,0,1,0-4H80a2,2,0,0,1,0,4Z"/><path d="M80,82H68a2,2,0,0,1,0-4H80a2,2,0,0,1,0,4Z"/></g></g></g></g></g></svg>