<svg id="Layer_1" data-name="Layer 1" xmlns="http://www.w3.org/2000/svg" viewBox="0 0 100 100"><path d="M66.48,11A45.63,45.63,0,0,0,52.4,8V5.18a2,2,0,0,0-4,0V8C25.15,8.91,5.47,27.45,1.23,52.77A2,2,0,0,0,2,54.68,2,2,0,0,0,4,54.92a31.54,31.54,0,0,1,13-2.74,31.47,31.47,0,0,1,13.44,2.93l.2.07.16,0a1.55,1.55,0,0,0,.48.07h0a2,2,0,0,0,.48-.07l.14-.05a.86.86,0,0,0,.21-.07c3.82-1.74,9.53-2.75,16.22-2.91V87.93a4.9,4.9,0,0,1-9.79,0V82.17a2,2,0,0,0-4,0v5.76a8.9,8.9,0,0,0,17.79,0V52.23c6.34.21,11.76,1.22,15.43,2.89a1.9,1.9,0,0,0,.83.19l.08,0,.11,0a2,2,0,0,0,.76-.15,2,2,0,0,0,1.29-1.87,1.79,1.79,0,0,0-.09-.57C69.56,34.55,65.09,20.1,59,12.92A41.21,41.21,0,0,1,65,14.75C79.52,20.34,90.5,33.63,94.32,49.92a37.26,37.26,0,0,0-18.6-1,2,2,0,0,0,.81,3.92,32.71,32.71,0,0,1,19.64,2.07,2,2,0,0,0,2-.23A2,2,0,0,0,99,52.77C95.75,33.51,83.3,17.51,66.48,11ZM5.88,49.92c4.43-18.94,18.29-33.2,35.28-37C35.35,19.81,31,33.28,29.57,50.38a36.72,36.72,0,0,0-23.69-.46Zm60.74.47a57.82,57.82,0,0,0-16.19-2.2h-.64a58.51,58.51,0,0,0-16.2,2.14C35.71,26.31,43.49,12,50.13,12h0C56.77,12.19,64.51,26.55,66.62,50.39Z"/></svg>