<svg id="Layer_1" data-name="Layer 1" xmlns="http://www.w3.org/2000/svg" viewBox="0 0 100 100"><path d="M99,45.52l-19-29.59a2,2,0,0,0-2.42-.77l-32.71,13a2,2,0,1,0,1.48,3.72l1.58-.63-1.63,5.28a2,2,0,0,0,.31,1.78l3.15,4.27L48.32,47a2,2,0,0,0,1.33,2.5,2,2,0,0,0,.58.09,2,2,0,0,0,1.91-1.42l1.66-5.39A2,2,0,0,0,53.5,41L50.34,36.7l2.27-7.38,24.84-9.84,15.47,24-8.1,25.25a4,4,0,0,1-4.88,2.57L74.67,69l3.78-11.66a7.34,7.34,0,0,0-4.74-9.22L69.33,46.7a7.61,7.61,0,0,0-7.28,1.5,2,2,0,0,0,2.63,3,3.54,3.54,0,0,1,3.43-.71l4.37,1.41a3.33,3.33,0,0,1,2.16,4.18L70.31,69.48s0,.06,0,.1a1.29,1.29,0,0,0,0,.19,1.36,1.36,0,0,0,0,.2.61.61,0,0,0,0,.19,1.34,1.34,0,0,0,0,.2l0,.18.06.19a.87.87,0,0,0,.07.17,1.42,1.42,0,0,0,.08.18l.11.16.11.15.14.14a.64.64,0,0,0,.15.13l.15.11.18.1.09,0,7,3.11.2.07a7.9,7.9,0,0,0,2.42.39A8,8,0,0,0,88.63,70l7.1-22.14a2,2,0,0,0,1.56.77,2,2,0,0,0,1.09-.32A2,2,0,0,0,99,45.52Z"/><path d="M46.64,74.77a2.21,2.21,0,0,0-.34-.18,1.66,1.66,0,0,0-.38-.11,1.71,1.71,0,0,0-.78,0,1.58,1.58,0,0,0-.37.11,2.31,2.31,0,0,0-.35.18,2.48,2.48,0,0,0-.3.25,2,2,0,0,0-.59,1.42,2,2,0,0,0,.59,1.41,1.81,1.81,0,0,0,.3.25,2.31,2.31,0,0,0,.35.18,2.29,2.29,0,0,0,.37.12,1.92,1.92,0,0,0,.78,0,2.4,2.4,0,0,0,.38-.12,2.21,2.21,0,0,0,.34-.18,2.42,2.42,0,0,0,.31-.25,2,2,0,0,0,.58-1.41A2,2,0,0,0,47,75Z"/><path d="M32.91,75a2.42,2.42,0,0,0-.25.31,2.21,2.21,0,0,0-.18.34,2.4,2.4,0,0,0-.12.38,2.58,2.58,0,0,0,0,.39,2,2,0,0,0,2,2,2,2,0,0,0,1.42-.59,2,2,0,0,0,.58-1.41A2,2,0,0,0,35.74,75,2.08,2.08,0,0,0,32.91,75Z"/><path d="M24.22,74.77a1.83,1.83,0,0,0-.34-.18,1.73,1.73,0,0,0-.37-.11A2,2,0,0,0,21.7,75a2.42,2.42,0,0,0-.25.31,2.21,2.21,0,0,0-.18.34,2.4,2.4,0,0,0-.12.38,1.92,1.92,0,0,0,0,.78,2.29,2.29,0,0,0,.12.37,2.31,2.31,0,0,0,.18.35,2.16,2.16,0,0,0,.55.55,2.37,2.37,0,0,0,.35.19,2.59,2.59,0,0,0,.37.11,1.72,1.72,0,0,0,.39,0,1.81,1.81,0,0,0,.4,0,2.59,2.59,0,0,0,.37-.11,1.86,1.86,0,0,0,.34-.19,1.89,1.89,0,0,0,.31-.25,2,2,0,0,0,.58-1.41A2,2,0,0,0,24.53,75,2.6,2.6,0,0,0,24.22,74.77Z"/><path d="M13.75,75.67a2.21,2.21,0,0,0-.18-.34,3.76,3.76,0,0,0-.25-.31,1.83,1.83,0,0,0-.31-.24,1.41,1.41,0,0,0-.34-.19,1.73,1.73,0,0,0-.37-.11,2,2,0,0,0-1.81.54,2.42,2.42,0,0,0-.25.31,2.21,2.21,0,0,0-.18.34,2.4,2.4,0,0,0-.12.38,2.58,2.58,0,0,0,0,.39,2,2,0,0,0,.59,1.41,2,2,0,0,0,1.41.59,2,2,0,0,0,2-2,1.72,1.72,0,0,0,0-.39A1.66,1.66,0,0,0,13.75,75.67Z"/><path d="M71,76.23H64.57V59.87a2,2,0,1,0-4,0v6.61H53.82c0-.07,0-.15,0-.23V58.31a5.65,5.65,0,0,0-5.64-5.64h-7.4V46.81a2,2,0,0,0-2-2H37a2,2,0,0,0-.16,4v3.87H29.25L26.06,39.44a2,2,0,0,0-1.95-1.53H10a5.55,5.55,0,0,0-5.54,5.55V57.69a2.12,2.12,0,0,0,0,.44,5.34,5.34,0,0,0-.89,2.95v7.4a2.06,2.06,0,0,0,.34,1.13A8.71,8.71,0,0,0,.71,76.44a8.83,8.83,0,0,0,2.3,6,8.1,8.1,0,0,0,3.35,2.17,7.63,7.63,0,0,0,2,.37h.12l41.76-.19a1.88,1.88,0,0,0,.52-.08,8.46,8.46,0,0,0,6-8.27,8.81,8.81,0,0,0-2.28-6h6.13v7.75a2,2,0,0,0,2,2H71a2,2,0,0,0,0-4ZM8.44,43.46A1.55,1.55,0,0,1,10,41.91H22.54L25.3,53.34l-7.16,2.35H8.44ZM7.6,61.08A1.39,1.39,0,0,1,9,59.69h9.47a1.87,1.87,0,0,0,.62-.1L28,56.67H48.19a1.64,1.64,0,0,1,1.64,1.64v7.94a1.63,1.63,0,0,1-1.63,1.64H8.76A7.46,7.46,0,0,0,7.6,68ZM49.88,80.79,8.48,81a3.5,3.5,0,0,1-.76-.13l-.1,0A3.94,3.94,0,0,1,6,79.72a4.81,4.81,0,0,1-1.24-3.28,4.33,4.33,0,0,1,4.05-4.55H48.67a3.79,3.79,0,0,1,2.81,1.28,4.8,4.8,0,0,1,1.24,3.27A4.53,4.53,0,0,1,49.88,80.79Z"/></svg>