<svg id="Layer_1" data-name="Layer 1" xmlns="http://www.w3.org/2000/svg" viewBox="0 0 100 100"><path d="M19.89,99H80.11a8.65,8.65,0,0,0,8.64-8.64V9.64A8.65,8.65,0,0,0,80.11,1H19.89a8.65,8.65,0,0,0-8.64,8.64V90.36A8.65,8.65,0,0,0,19.89,99ZM15.25,9.64A4.64,4.64,0,0,1,19.89,5H80.11a4.64,4.64,0,0,1,4.64,4.64V90.36A4.64,4.64,0,0,1,80.11,95H19.89a4.64,4.64,0,0,1-4.64-4.64Z"/><path d="M27.51,33.75V46.5A5.51,5.51,0,0,0,33,52h20.4a5.51,5.51,0,0,0,5.5-5.5V33.76a2,2,0,0,0,1.32-.71A2,2,0,0,0,60,30.23l-8-6.59,6.14-5.05,10.57,8.68V41.16a1.21,1.21,0,0,1-1.21,1.21H63.91a2,2,0,0,0,0,4h3.52a5.22,5.22,0,0,0,5.21-5.21V29.62a2,2,0,0,0,.89-3.51L59.34,14.45a2,2,0,0,0-2.54,0l-8,6.6-4.3-3.54a2,2,0,0,0-2.54,0L26.47,30.23a2,2,0,0,0,1,3.52ZM45.78,48H40.66V41.29A1.27,1.27,0,0,1,41.93,40h2.71a1.14,1.14,0,0,1,1.14,1.14ZM43.21,21.65l4.31,3.54h0l7.39,6.08V46.5a1.5,1.5,0,0,1-1.5,1.5H49.78V41.16A5.14,5.14,0,0,0,44.64,36H41.93a5.27,5.27,0,0,0-5.27,5.27V48H33a1.5,1.5,0,0,1-1.5-1.5V31.27Z"/><path d="M71.65,61.49H28.35a2,2,0,0,0,0,4h43.3a2,2,0,1,0,0-4Z"/><path d="M71.65,72H28.35a2,2,0,0,0,0,4h43.3a2,2,0,0,0,0-4Z"/><path d="M50.76,82.55H28.35a2,2,0,0,0,0,4H50.76a2,2,0,1,0,0-4Z"/></svg>