<svg id="Layer_1" data-name="Layer 1" xmlns="http://www.w3.org/2000/svg" viewBox="0 0 100 100"><path d="M26.53,38.59v8.86A4.55,4.55,0,0,0,31.08,52H45.93a4.49,4.49,0,0,0,2.63-.85,4.54,4.54,0,0,0,2.63.85H66a4.55,4.55,0,0,0,4.55-4.55V38.59a2,2,0,0,0,.84-.59,2,2,0,0,0-.28-2.82L59.89,25.92a2,2,0,0,0-2.54,0l-8.79,7.23-8.78-7.23a2,2,0,0,0-2.54,0L26,35.18A2,2,0,0,0,25.7,38,2,2,0,0,0,26.53,38.59Zm32.09-8.53,8,6.56V47.45A.55.55,0,0,1,66,48H51.19a.55.55,0,0,1-.55-.55,1.85,1.85,0,0,0-.16-.78v-10a1.63,1.63,0,0,0,.49-.29Zm-20.11,0,8,6.56V47.45a.55.55,0,0,1-.55.55H31.08a.55.55,0,0,1-.55-.55V36.62Z"/><path d="M27.72,26.61a2,2,0,0,0,4,0V24.73l7.39-6.07,7.53,6.18v1.77a2,2,0,0,0,4,0V24.73L58,18.66l7.39,6.07v1.89a2,2,0,1,0,4,0h0a2,2,0,0,0,.75-.56,2,2,0,0,0-.28-2.82L59.29,14.52a2,2,0,0,0-2.54,0l-8.18,6.73-8.19-6.73a2,2,0,0,0-2.54,0l-10.6,8.71a2,2,0,0,0,.48,3.38Z"/><path d="M19.89,99H80.11a8.65,8.65,0,0,0,8.64-8.64V9.64A8.65,8.65,0,0,0,80.11,1H19.89a8.65,8.65,0,0,0-8.64,8.64V90.36A8.65,8.65,0,0,0,19.89,99ZM15.25,9.64A4.64,4.64,0,0,1,19.89,5H80.11a4.64,4.64,0,0,1,4.64,4.64V90.36A4.64,4.64,0,0,1,80.11,95H19.89a4.64,4.64,0,0,1-4.64-4.64Z"/><path d="M28.35,61.49a2,2,0,0,0,0,4h43.3a2,2,0,1,0,0-4Z"/><path d="M51.69,72H27.84a2,2,0,0,0,0,4H51.69a2,2,0,0,0,0-4Z"/><path d="M51.69,82.55H27.84a2,2,0,0,0,0,4H51.69a2,2,0,1,0,0-4Z"/><path d="M72.16,76.6H68.22V72.66a2,2,0,0,0-4,0V76.6H60.27a2,2,0,0,0,0,4h3.95v4a2,2,0,0,0,4,0v-4h3.94a2,2,0,0,0,0-4Z"/></svg>