<svg id="Layer_1" data-name="Layer 1" xmlns="http://www.w3.org/2000/svg" viewBox="0 0 100 100"><path d="M19.89,99H80.11a8.65,8.65,0,0,0,8.64-8.64V9.64A8.65,8.65,0,0,0,80.11,1H19.89a8.65,8.65,0,0,0-8.64,8.64V90.36A8.65,8.65,0,0,0,19.89,99ZM15.25,9.64A4.64,4.64,0,0,1,19.89,5H80.11a4.64,4.64,0,0,1,4.64,4.64V90.36A4.64,4.64,0,0,1,80.11,95H19.89a4.64,4.64,0,0,1-4.64-4.64Z"/><path d="M33,32.25a1.93,1.93,0,0,0,1.31.7V45.7a5.5,5.5,0,0,0,5.5,5.5H60.2a5.5,5.5,0,0,0,5.5-5.5V33A1.94,1.94,0,0,0,67,32.25a2,2,0,0,0-.28-2.81L51.27,16.72a2,2,0,0,0-2.54,0L33.26,29.44A2,2,0,0,0,33,32.25Zm19.58,15H47.45V40.49a1.27,1.27,0,0,1,1.27-1.27h2.71a1.14,1.14,0,0,1,1.14,1.14ZM50,20.85l11.7,9.62V45.7a1.5,1.5,0,0,1-1.5,1.5H56.57V40.36a5.15,5.15,0,0,0-5.14-5.14H48.72a5.28,5.28,0,0,0-5.27,5.27V47.2H39.8a1.5,1.5,0,0,1-1.5-1.5V30.47Z"/><path d="M61.38,19.53l.19-.15,10.56,8.68V42a1.21,1.21,0,0,1-1.21,1.21H70.7a2,2,0,0,0,0,4h.22A5.22,5.22,0,0,0,76.13,42V30.41a2.06,2.06,0,0,0,1.17-.69A2,2,0,0,0,77,26.9L62.84,15.25a2,2,0,0,0-2.54,0l-1.46,1.2a2,2,0,1,0,2.54,3.09Z"/><path d="M23.88,30.41V42a5.22,5.22,0,0,0,5.21,5.21h.21a2,2,0,0,0,0-4h-.21A1.21,1.21,0,0,1,27.88,42V28.06l10.56-8.68.23.2a2,2,0,0,0,2.55-3.09l-1.51-1.24a2,2,0,0,0-2.54,0L23,26.9a2,2,0,0,0-.28,2.82A2,2,0,0,0,23.88,30.41Z"/><path d="M71.65,61.49H28.35a2,2,0,0,0,0,4h43.3a2,2,0,1,0,0-4Z"/><path d="M71.65,72H28.35a2,2,0,0,0,0,4h43.3a2,2,0,0,0,0-4Z"/><path d="M50.76,82.55H28.35a2,2,0,0,0,0,4H50.76a2,2,0,1,0,0-4Z"/></svg>