<svg id="Layer_1" data-name="Layer 1" xmlns="http://www.w3.org/2000/svg" viewBox="0 0 100 100"><path d="M19.89,99H80.11a8.65,8.65,0,0,0,8.64-8.64V9.64A8.65,8.65,0,0,0,80.11,1H19.89a8.65,8.65,0,0,0-8.64,8.64V90.36A8.65,8.65,0,0,0,19.89,99ZM15.25,9.64A4.64,4.64,0,0,1,19.89,5H80.11a4.64,4.64,0,0,1,4.64,4.64V90.36A4.64,4.64,0,0,1,80.11,95H19.89a4.64,4.64,0,0,1-4.64-4.64Z"/><path d="M32.94,32V46.15A5.86,5.86,0,0,0,38.79,52H61.21a5.86,5.86,0,0,0,5.85-5.85V32a2,2,0,0,0,1.21-3.54l-17-14a2,2,0,0,0-2.54,0l-17,14a2,2,0,0,0-.28,2.81A2,2,0,0,0,32.94,32ZM53,48H47V40.43a1.6,1.6,0,0,1,1.59-1.6h3A1.45,1.45,0,0,1,53,40.28ZM50,18.59,63.06,29.32V46.15A1.85,1.85,0,0,1,61.21,48H57V40.28a5.46,5.46,0,0,0-5.45-5.45h-3A5.6,5.6,0,0,0,43,40.43V48h-4.2a1.85,1.85,0,0,1-1.85-1.85V29.32Z"/><path d="M28.35,65.49h43.3a2,2,0,1,0,0-4H28.35a2,2,0,0,0,0,4Z"/><path d="M28.35,76h43.3a2,2,0,0,0,0-4H28.35a2,2,0,0,0,0,4Z"/><path d="M28.35,86.55H50.76a2,2,0,1,0,0-4H28.35a2,2,0,0,0,0,4Z"/></svg>